<svg viewBox="0 0 855 566" fill="none" xmlns="http://www.w3.org/2000/svg">
<g clipPath="url(#clip0_27_9763)">
<path d="M820.68 379.055C814.52 385.785 806.881 390.795 798.591 394.685H798.58C797.801 395.055 797.02 395.415 796.23 395.755H796.22L796.21 395.765L796.2 395.755H796.191L796.19 395.759L796.188 395.763L796.184 395.765L796.18 395.765H796.17L796.16 395.755C796.151 395.765 796.151 395.765 796.14 395.755L796.131 395.765L796.12 395.755H796.111C796.1 395.765 796.1 395.765 796.091 395.755H796.08C790.532 398.156 784.833 400.193 779.02 401.855C744.84 411.552 708.915 413.429 673.91 407.345C673.24 407.225 672.58 407.105 671.91 406.985V325.875C672.571 325.595 673.24 325.315 673.91 325.045C678.281 323.235 682.704 321.572 687.18 320.055C693.62 317.855 700.15 315.969 706.77 314.395C728.368 309.168 750.653 307.366 772.81 309.055C776.841 309.355 780.861 309.789 784.87 310.355C793.26 311.525 802.06 313.565 809.8 317.105H809.81C810.941 317.635 812.05 318.185 813.151 318.775C820.03 322.505 825.83 327.635 829.37 334.665C830.642 337.19 831.558 339.879 832.091 342.655V342.675C832.29 343.635 832.43 344.605 832.54 345.565C833.801 357.405 828.89 370.075 820.68 379.055Z" fill="#F2F2F2"/>
<path d="M832.54 345.565C832.442 345.59 832.342 345.603 832.24 345.605C815.111 346.355 798.004 347.469 780.92 348.945H780.89C780.821 348.955 780.76 348.955 780.691 348.965C763.151 350.485 745.647 352.389 728.18 354.675C727.441 354.775 726.71 354.875 725.98 354.965C713.901 356.575 701.844 358.362 689.81 360.325C684.5 361.195 679.2 362.102 673.91 363.045C673.24 363.165 672.58 363.275 671.91 363.405V360.375C672.58 360.245 673.25 360.135 673.91 360.015C691.531 356.895 709.21 354.172 726.95 351.845C731.41 351.245 735.877 350.679 740.35 350.145C753.27 348.585 766.21 347.239 779.17 346.105C780.12 346.025 781.06 345.945 782.01 345.865C798.6 344.455 815.214 343.385 831.85 342.655C831.931 342.652 832.012 342.658 832.091 342.675C833.691 342.815 834.031 345.215 832.54 345.565Z" fill="white"/>
<path d="M796.967 392.809C775.627 392.965 754.603 383.917 739.509 368.939C735.25 364.697 731.497 359.975 728.325 354.869C727.307 353.238 724.927 355.037 725.936 356.655C737.658 375.455 757.185 388.848 778.714 393.772C784.828 395.157 791.082 395.826 797.35 395.766C799.264 395.752 798.867 392.795 796.967 392.809Z" fill="white"/>
<path d="M706.77 314.395C706.679 314.677 706.515 314.929 706.296 315.127C706.077 315.325 705.809 315.463 705.52 315.525C700.63 316.807 695.905 318.653 691.441 321.025C684.921 324.468 679.002 328.943 673.91 334.275C673.64 334.545 673.381 334.815 673.131 335.095C672.71 335.535 672.31 335.985 671.91 336.445V332.085C672.551 331.405 673.22 330.735 673.91 330.095C677.93 326.246 682.383 322.877 687.18 320.055C693.62 317.855 700.15 315.969 706.77 314.395Z" fill="white"/>
<path d="M811.569 316.317C797.995 322.152 786.636 332.166 779.147 344.903C778.996 345.267 778.994 345.677 779.142 346.042C779.291 346.408 779.577 346.701 779.94 346.857C780.305 347.001 780.712 346.999 781.076 346.851C781.439 346.704 781.732 346.422 781.894 346.064C789.042 334.034 799.826 324.586 812.69 319.08C814.455 318.326 813.338 315.562 811.569 316.317Z" fill="white"/>
<path d="M852.49 231.385C850.17 240.205 845.72 248.195 840.191 255.485L840.18 255.495C839.67 256.175 839.14 256.865 838.591 257.525V257.535C834.751 262.265 830.606 266.738 826.18 270.925C810.274 286.084 792.306 298.921 772.81 309.055C742.14 325.075 707.861 334.545 673.91 335.085C673.651 335.095 673.39 335.095 673.131 335.095C672.72 335.105 672.31 335.105 671.91 335.105V289.655C672.56 288.415 673.23 287.175 673.91 285.945C682.733 270.07 693.492 255.351 705.941 242.125C706.24 241.795 706.551 241.465 706.861 241.145C711.54 236.205 716.447 231.502 721.58 227.035C741.329 209.672 764.151 196.156 788.87 187.185C796.841 184.325 805.58 182.035 814.08 181.585C815.33 181.515 816.571 181.485 817.821 181.495C825.651 181.605 833.16 183.455 839.571 188.035C841.866 189.684 843.925 191.639 845.691 193.845C846.31 194.615 846.881 195.405 847.43 196.215V196.225C854.051 206.125 855.591 219.615 852.49 231.385Z" fill="#F2F2F2"/>
<path d="M847.43 196.215V196.225C847.356 196.29 847.276 196.347 847.191 196.395C832.39 205.005 817.777 213.929 803.35 223.165C803.33 223.175 803.32 223.185 803.3 223.195C803.243 223.236 803.183 223.272 803.12 223.305C788.29 232.805 773.67 242.625 759.26 252.765C758.66 253.185 758.05 253.615 757.441 254.045C747.49 261.075 737.644 268.255 727.901 275.585C709.5 289.445 691.503 303.819 673.91 318.705C673.24 319.265 672.58 319.835 671.91 320.405V316.515C672.571 315.945 673.24 315.375 673.91 314.815C680.651 309.125 687.451 303.515 694.31 297.985C696.361 296.335 698.42 294.685 700.48 293.055C718.781 278.485 737.491 264.459 756.611 250.975H756.62C760.381 248.325 764.147 245.699 767.92 243.095C778.64 235.715 789.481 228.512 800.441 221.485C801.23 220.975 802.031 220.465 802.83 219.955C816.861 210.995 831.074 202.329 845.47 193.955C845.541 193.913 845.614 193.876 845.691 193.845C847.191 193.245 848.6 195.225 847.43 196.215Z" fill="white"/>
<path d="M837.879 254.579C819.054 264.63 796.233 266.383 775.908 260.131C770.166 258.353 764.649 255.915 759.468 252.867C757.809 251.895 756.537 254.594 758.182 255.558C777.296 266.761 800.81 269.551 822.162 263.911C828.22 262.298 834.069 259.985 839.592 257.02C841.28 256.118 839.555 253.684 837.879 254.579Z" fill="white"/>
<path d="M697.032 291.167C696.1 285.932 695.78 280.607 696.079 275.298C696.753 263.191 700.46 251.447 706.86 241.147C711.545 236.209 716.453 231.505 721.583 227.035C721.632 227.327 721.603 227.627 721.5 227.905C721.397 228.183 721.224 228.429 720.997 228.62C717.264 232.027 713.938 235.855 711.085 240.027C700.897 254.898 696.92 273.16 700.003 290.92C700.053 291.121 700.05 291.332 699.995 291.532C699.941 291.732 699.835 291.915 699.689 292.063C699.476 292.249 699.217 292.376 698.938 292.431C698.66 292.486 698.372 292.468 698.104 292.377C697.835 292.287 697.595 292.127 697.406 291.915C697.218 291.703 697.089 291.445 697.032 291.167Z" fill="white"/>
<path d="M815.278 180.058C805.967 191.53 800.561 205.675 799.845 220.433C799.88 220.826 800.069 221.189 800.37 221.444C800.671 221.699 801.061 221.825 801.455 221.795C801.845 221.753 802.204 221.562 802.458 221.263C802.712 220.963 802.84 220.577 802.817 220.185C803.559 206.212 808.719 192.835 817.554 181.984C818.767 180.496 816.493 178.567 815.278 180.058Z" fill="white"/>
<path d="M711.72 212.915V212.925C711.651 213.785 711.571 214.635 711.48 215.485V215.505C710.785 221.556 709.699 227.555 708.23 233.465C707.531 236.365 706.77 239.245 705.941 242.125C705.841 242.495 705.73 242.865 705.62 243.225V243.235C703.178 251.611 700.26 259.841 696.881 267.885C690.663 282.695 682.967 296.84 673.91 310.105C673.26 311.075 672.591 312.045 671.91 313.005V156.405C672.58 156.365 673.24 156.365 673.91 156.385C674.23 156.385 674.55 156.395 674.87 156.415C677.692 156.564 680.479 157.106 683.151 158.025C684.091 158.335 685 158.685 685.901 159.075C696.81 163.855 705.381 174.395 709.1 185.985C711.89 194.665 712.45 203.795 711.72 212.915Z" fill="#F2F2F2"/>
<path d="M685.901 159.075C685.877 159.173 685.84 159.268 685.79 159.355C681.74 167.225 677.781 175.135 673.91 183.085C673.24 184.455 672.571 185.835 671.91 187.205V180.405C672.571 179.045 673.237 177.685 673.91 176.325C676.901 170.265 679.941 164.232 683.031 158.225C683.064 158.155 683.105 158.088 683.151 158.025C684.071 156.705 686.35 157.605 685.901 159.075Z" fill="white"/>
<path d="M712.04 214.525C711.861 214.845 711.68 215.165 711.48 215.485C708.544 220.603 705.049 225.378 701.06 229.725C693.399 238.037 684.173 244.756 673.91 249.495C673.25 249.815 672.58 250.115 671.91 250.395V247.145C672.58 246.845 673.25 246.535 673.91 246.215C688.766 239.13 701.105 227.68 709.281 213.395C709.398 213.191 709.559 213.015 709.751 212.879C709.943 212.742 710.162 212.648 710.393 212.604C710.625 212.559 710.863 212.565 711.092 212.62C711.321 212.676 711.535 212.78 711.72 212.925C711.847 213.009 711.955 213.117 712.039 213.243C712.124 213.369 712.182 213.51 712.212 213.659C712.242 213.808 712.242 213.961 712.212 214.109C712.183 214.258 712.124 214.399 712.04 214.525Z" fill="white"/>
<path d="M673.91 33.9454V109.945H671.91V109.135H2.9104V109.945H0.9104V33.9454C0.918989 25.1959 4.39852 16.8072 10.5854 10.6203C16.7722 4.43349 25.1609 0.953962 33.9104 0.945374H640.91C649.66 0.953962 658.049 4.43349 664.235 10.6203C670.422 16.8072 673.902 25.1959 673.91 33.9454Z" fill="#F9A826"/>
<path d="M640.91 0.945374H33.9104C25.1609 0.953962 16.7722 4.43349 10.5854 10.6203C4.39852 16.8072 0.918989 25.1959 0.9104 33.9454V467.945C0.918989 476.695 4.39852 485.084 10.5854 491.27C16.7722 497.457 25.1609 500.937 33.9104 500.945H640.91C649.66 500.937 658.049 497.457 664.235 491.27C670.422 485.084 673.902 476.695 673.91 467.945V33.9454C673.902 25.1959 670.422 16.8072 664.235 10.6203C658.049 4.43349 649.66 0.953962 640.91 0.945374ZM671.91 467.945C671.9 476.164 668.63 484.043 662.819 489.854C657.008 495.665 649.129 498.935 640.91 498.945H33.9104C25.6919 498.935 17.813 495.665 12.0017 489.854C6.19031 484.043 2.92089 476.164 2.9104 467.945V33.9454C2.92089 25.7269 6.19031 17.848 12.0017 12.0367C17.813 6.2253 25.6919 2.95586 33.9104 2.94537H640.91C649.129 2.95586 657.008 6.2253 662.819 12.0367C668.63 17.848 671.9 25.7269 671.91 33.9454V467.945Z" fill="#3F3D56"/>
<path d="M136.91 75.4454C147.956 75.4454 156.91 66.4911 156.91 55.4454C156.91 44.3997 147.956 35.4454 136.91 35.4454C125.865 35.4454 116.91 44.3997 116.91 55.4454C116.91 66.4911 125.865 75.4454 136.91 75.4454Z" fill="white"/>
<path d="M537.91 75.4454C548.956 75.4454 557.91 66.4911 557.91 55.4454C557.91 44.3997 548.956 35.4454 537.91 35.4454C526.865 35.4454 517.91 44.3997 517.91 55.4454C517.91 66.4911 526.865 75.4454 537.91 75.4454Z" fill="white"/>
<path d="M194.695 278.447H75.7188C70.6784 278.442 65.8461 276.437 62.282 272.873C58.7178 269.309 56.713 264.476 56.7073 259.436V203.203C56.713 198.163 58.7178 193.33 62.282 189.766C65.8461 186.202 70.6784 184.197 75.7188 184.192H194.695C199.735 184.197 204.568 186.202 208.132 189.766C211.696 193.33 213.701 198.163 213.706 203.203V259.436C213.701 264.476 211.696 269.309 208.132 272.873C204.568 276.437 199.735 278.442 194.695 278.447Z" fill="#F9A826"/>
<path d="M397.094 278.447H278.117C273.077 278.442 268.245 276.437 264.681 272.873C261.116 269.309 259.112 264.476 259.106 259.436V203.203C259.112 198.163 261.116 193.33 264.681 189.766C268.245 186.202 273.077 184.197 278.117 184.192H397.094C402.134 184.197 406.966 186.202 410.53 189.766C414.095 193.33 416.099 198.163 416.105 203.203V259.436C416.099 264.476 414.095 269.309 410.53 272.873C406.966 276.437 402.134 278.442 397.094 278.447Z" fill="#F9A826"/>
<path d="M397.094 423.739H278.117C272.924 423.733 267.945 421.667 264.273 417.995C260.601 414.323 258.536 409.344 258.53 404.151V347.918C258.536 342.725 260.601 337.746 264.273 334.074C267.945 330.402 272.924 328.336 278.117 328.33H397.094C402.287 328.336 407.265 330.402 410.938 334.074C414.61 337.746 416.675 342.725 416.681 347.918V404.151C416.675 409.344 414.61 414.323 410.938 417.995C407.265 421.667 402.287 423.733 397.094 423.739Z" fill="#F2F2F2"/>
<path d="M194.305 423.739H75.3287C70.1355 423.733 65.1568 421.667 61.4846 417.995C57.8125 414.323 55.747 409.344 55.7411 404.151V347.918C55.747 342.725 57.8125 337.746 61.4846 334.074C65.1568 330.402 70.1355 328.336 75.3287 328.33H194.305C199.498 328.336 204.477 330.402 208.149 334.074C211.821 337.746 213.887 342.725 213.892 347.918V404.151C213.887 409.344 211.821 414.323 208.149 417.995C204.477 421.667 199.498 423.733 194.305 423.739Z" fill="#F2F2F2"/>
<path d="M599.492 423.739H480.516C475.323 423.733 470.344 421.667 466.672 417.995C463 414.323 460.934 409.344 460.928 404.151V347.918C460.934 342.725 463 337.746 466.672 334.074C470.344 330.402 475.323 328.336 480.516 328.33H599.492C604.685 328.336 609.664 330.402 613.336 334.074C617.008 337.746 619.074 342.725 619.08 347.918V404.151C619.074 409.344 617.008 414.323 613.336 417.995C609.664 421.667 604.685 423.733 599.492 423.739Z" fill="#F2F2F2"/>
<path d="M599.492 278.56H480.516C475.323 278.555 470.344 276.489 466.672 272.817C463 269.145 460.934 264.166 460.928 258.973V202.74C460.934 197.546 463 192.568 466.672 188.896C470.344 185.223 475.323 183.158 480.516 183.152H599.492C604.685 183.158 609.664 185.223 613.336 188.896C617.008 192.568 619.074 197.546 619.08 202.74V258.973C619.074 264.166 617.008 269.145 613.336 272.817C609.664 276.489 604.685 278.555 599.492 278.56Z" fill="#F2F2F2"/>
<path d="M135.207 263.581C153.025 263.581 167.469 249.137 167.469 231.32C167.469 213.502 153.025 199.058 135.207 199.058C117.389 199.058 102.945 213.502 102.945 231.32C102.945 249.137 117.389 263.581 135.207 263.581Z" fill="white"/>
<path d="M132.009 243.627C131.283 243.628 130.577 243.393 129.996 242.958L129.96 242.931L122.378 237.126C122.026 236.857 121.731 236.522 121.509 236.139C121.288 235.756 121.143 235.333 121.085 234.894C121.027 234.455 121.055 234.009 121.17 233.582C121.284 233.154 121.481 232.753 121.75 232.402C122.019 232.05 122.355 231.755 122.739 231.534C123.122 231.312 123.545 231.169 123.984 231.111C124.423 231.053 124.868 231.082 125.296 231.197C125.724 231.311 126.124 231.509 126.475 231.779L131.386 235.544L142.991 220.409C143.261 220.058 143.596 219.764 143.979 219.542C144.362 219.321 144.785 219.177 145.224 219.119C145.662 219.062 146.108 219.091 146.535 219.205C146.962 219.319 147.363 219.517 147.714 219.786L147.642 219.884L147.716 219.787C148.424 220.331 148.887 221.134 149.004 222.02C149.121 222.905 148.882 223.801 148.339 224.51L134.689 242.312C134.373 242.722 133.967 243.054 133.502 243.282C133.038 243.51 132.527 243.628 132.009 243.627Z" fill="#F9A826"/>
<path d="M338.182 263.118C355.999 263.118 370.443 248.674 370.443 230.856C370.443 213.038 355.999 198.594 338.182 198.594C320.364 198.594 305.92 213.038 305.92 230.856C305.92 248.674 320.364 263.118 338.182 263.118Z" fill="white"/>
<path d="M334.984 243.163C334.258 243.165 333.551 242.93 332.97 242.495L332.934 242.468L325.353 236.663C324.644 236.119 324.179 235.317 324.062 234.431C323.945 233.545 324.184 232.649 324.728 231.94C325.271 231.231 326.074 230.767 326.959 230.65C327.845 230.532 328.741 230.772 329.45 231.315L334.361 235.081L345.966 219.946C346.235 219.595 346.571 219.3 346.954 219.079C347.337 218.858 347.76 218.714 348.198 218.656C348.637 218.598 349.083 218.627 349.51 218.742C349.937 218.856 350.338 219.053 350.689 219.323L350.617 219.421L350.691 219.324C351.399 219.868 351.862 220.671 351.979 221.556C352.096 222.442 351.857 223.337 351.314 224.047L337.664 241.849C337.348 242.259 336.942 242.591 336.477 242.819C336.012 243.047 335.501 243.165 334.984 243.163Z" fill="#F9A826"/>
<path d="M556.223 383.095C557.282 381.936 558.075 380.559 558.545 379.06C559.015 377.562 559.151 375.979 558.943 374.422C558.735 372.865 558.188 371.373 557.341 370.051C556.494 368.728 555.367 367.608 554.04 366.768L536.029 270.595L514.124 278.718L538.716 370.698C537.453 373.021 537.086 375.727 537.684 378.302C538.283 380.878 539.805 383.144 541.963 384.672C544.121 386.201 546.764 386.884 549.393 386.593C552.021 386.303 554.451 385.058 556.223 383.095Z" fill="#A0616A"/>
<path d="M381.438 236.346C381.492 236.943 381.5 237.543 381.46 238.142L424.05 270.921L436.127 265.962L445.995 283.211L425.467 294.069C423.808 294.946 421.91 295.261 420.057 294.968C418.204 294.675 416.496 293.788 415.19 292.441L372.619 248.552C370.366 249.06 368.011 248.87 365.868 248.008C363.725 247.145 361.896 245.65 360.623 243.722C359.35 241.795 358.695 239.525 358.743 237.215C358.792 234.906 359.543 232.666 360.895 230.793C362.248 228.921 364.139 227.505 366.316 226.733C368.494 225.961 370.855 225.871 373.085 226.474C375.315 227.076 377.308 228.344 378.8 230.107C380.293 231.871 381.212 234.047 381.438 236.346Z" fill="#A0616A"/>
<path d="M480.938 553.794H468.679L462.846 516.506L480.941 516.507L480.938 553.794Z" fill="#A0616A"/>
<path d="M484.065 565.679L444.535 565.677V565.177C444.535 563.157 444.933 561.156 445.706 559.289C446.479 557.422 447.613 555.726 449.041 554.297C450.47 552.869 452.166 551.735 454.033 550.962C455.9 550.189 457.901 549.791 459.921 549.791L484.066 549.792L484.065 565.679Z" fill="#2F2E41"/>
<path d="M526.938 553.794H514.679L508.846 516.506L526.941 516.507L526.938 553.794Z" fill="#A0616A"/>
<path d="M530.065 565.679L490.535 565.677V565.177C490.535 563.157 490.933 561.156 491.706 559.289C492.479 557.422 493.613 555.726 495.041 554.297C496.47 552.869 498.166 551.735 500.033 550.962C501.9 550.189 503.901 549.791 505.921 549.791L530.066 549.792L530.065 565.679Z" fill="#2F2E41"/>
<path d="M466.133 546.425C465.014 546.426 463.935 546.009 463.107 545.255C462.279 544.502 461.763 543.467 461.659 542.352L450.975 398.663L451.48 398.622L525.001 392.579L525.021 393.101L530.865 541.952C530.888 542.557 530.788 543.16 530.572 543.725C530.357 544.29 530.029 544.806 529.609 545.242C529.189 545.678 528.686 546.025 528.129 546.261C527.572 546.498 526.973 546.62 526.368 546.62H511.953C510.876 546.625 509.834 546.242 509.017 545.542C508.201 544.841 507.664 543.869 507.505 542.805L487.929 422.559C487.91 422.435 487.844 422.323 487.746 422.245C487.648 422.166 487.524 422.128 487.398 422.137C487.273 422.146 487.156 422.202 487.07 422.294C486.984 422.385 486.936 422.506 486.935 422.632L486.047 541.355C486.038 542.502 485.591 543.602 484.799 544.431C484.007 545.26 482.929 545.756 481.784 545.817L466.375 546.418C466.294 546.423 466.213 546.425 466.133 546.425Z" fill="#2F2E41"/>
<path d="M478.682 217.071C492.247 217.071 503.243 206.074 503.243 192.51C503.243 178.945 492.247 167.949 478.682 167.949C465.118 167.949 454.121 178.945 454.121 192.51C454.121 206.074 465.118 217.071 478.682 217.071Z" fill="#A0616A"/>
<path d="M483.437 407.827C472.702 407.795 462.019 406.335 451.669 403.485C450.673 403.195 449.807 402.571 449.218 401.717C448.628 400.864 448.351 399.833 448.433 398.799C451.739 349.105 452.517 310.542 445.564 283.86C442.6 272.488 443.946 260.511 449.255 251C457.245 236.687 471.93 227.975 487.595 228.276C488.344 228.29 489.1 228.317 489.863 228.356C513.636 229.58 532.16 251.087 531.157 276.298L526.376 396.467C526.358 397.343 526.081 398.195 525.58 398.915C525.079 399.635 524.376 400.19 523.56 400.511C510.733 405.336 497.142 407.815 483.437 407.827Z" fill="#3F3D56"/>
<path d="M449.606 293.086L431.208 270.542C430.684 269.9 430.305 269.154 430.097 268.352C429.888 267.551 429.854 266.714 429.998 265.899C430.141 265.084 430.459 264.309 430.929 263.627C431.399 262.946 432.011 262.374 432.722 261.95L457.644 247.1C460.941 244.44 465.158 243.195 469.371 243.64C473.584 244.085 477.449 246.182 480.118 249.472C482.786 252.762 484.042 256.977 483.608 261.191C483.174 265.405 481.087 269.275 477.804 271.952L458.327 293.326C457.769 293.937 457.086 294.422 456.324 294.746C455.562 295.07 454.739 295.225 453.911 295.203C453.084 295.18 452.271 294.979 451.528 294.614C450.785 294.249 450.129 293.728 449.606 293.086Z" fill="#3F3D56"/>
<path d="M507.48 290.257C506.725 289.919 506.051 289.422 505.505 288.8C504.959 288.177 504.553 287.444 504.316 286.651L496.034 258.946C494.236 255.11 494.034 250.717 495.47 246.731C496.907 242.745 499.865 239.492 503.697 237.684C507.529 235.877 511.921 235.663 515.911 237.09C519.9 238.516 523.161 241.467 524.978 245.294L540.994 269.483C541.451 270.173 541.754 270.954 541.882 271.772C542.01 272.59 541.961 273.426 541.736 274.223C541.512 275.02 541.119 275.759 540.583 276.391C540.048 277.022 539.383 277.53 538.633 277.881L512.278 290.217C511.529 290.569 510.712 290.754 509.884 290.761C509.056 290.768 508.236 290.596 507.48 290.257Z" fill="#3F3D56"/>
<path d="M490.819 212.663L472.613 208.496C470.735 208.066 468.479 207.246 468.219 205.337C467.869 202.772 471.56 200.985 471.22 198.418C470.89 195.933 467.527 195.612 465.129 194.878C462.896 194.095 461.055 192.474 459.997 190.357C458.938 188.24 458.744 185.795 459.457 183.538C456.863 187.194 450.936 187.507 447.571 184.545C444.206 181.583 443.56 176.209 445.581 172.207C446.673 170.242 448.213 168.562 450.076 167.304C451.94 166.046 454.074 165.245 456.305 164.967C460.791 164.458 465.327 165.304 469.328 167.395C469.595 164.561 473.132 163.413 475.978 163.388C481.89 163.456 487.633 165.366 492.408 168.852C497.183 172.337 500.753 177.225 502.621 182.834C506.113 194.086 503.777 206.42 494.007 213.004L490.819 212.663Z" fill="#2F2E41"/>
<path d="M674.198 565.945H293.198C292.933 565.945 292.678 565.84 292.491 565.652C292.303 565.465 292.198 565.211 292.198 564.945C292.198 564.68 292.303 564.426 292.491 564.238C292.678 564.051 292.933 563.945 293.198 563.945H674.198C674.463 563.945 674.717 564.051 674.905 564.238C675.092 564.426 675.198 564.68 675.198 564.945C675.198 565.211 675.092 565.465 674.905 565.652C674.717 565.84 674.463 565.945 674.198 565.945Z" fill="#3F3D56"/>
</g>
<defs>
<clipPath id="clip0_27_9763">
<rect width="853.117" height="565" fill="white" transform="translate(0.9104 0.945374)"/>
</clipPath>
</defs>
</svg>
