<svg width="588" height="661" viewBox="0 0 588 661" fill="none" xmlns="http://www.w3.org/2000/svg">
<g clip-path="url(#clip0_27_10026)">
<path d="M333.182 508.959C473.463 508.959 587.182 395.24 587.182 254.959C587.182 114.679 473.463 0.959473 333.182 0.959473C192.902 0.959473 79.1824 114.679 79.1824 254.959C79.1824 395.24 192.902 508.959 333.182 508.959Z" fill="#F2F2F2"/>
<path d="M499.167 114.548H33.8745C32.8767 114.526 32.0852 113.7 32.1065 112.703C32.1272 111.735 32.9068 110.955 33.8745 110.935H499.167C500.165 110.956 500.957 111.782 500.935 112.78C500.915 113.748 500.135 114.527 499.167 114.548Z" fill="#CACACA"/>
<path d="M340.597 175.432H211.971C202.31 175.432 194.478 183.264 194.478 192.925V192.925C194.478 202.586 202.31 210.418 211.971 210.418H340.597C350.258 210.418 358.09 202.586 358.09 192.925C358.09 183.264 350.258 175.432 340.597 175.432Z" fill="white"/>
<path d="M128.879 245.405H423.689C433.35 245.405 441.182 253.237 441.182 262.898C441.182 272.559 433.35 280.391 423.689 280.391H128.879C119.218 280.391 111.386 272.559 111.386 262.898C111.386 253.237 119.218 245.405 128.879 245.405Z" fill="white"/>
<path d="M128.879 315.378H423.689C433.35 315.378 441.182 323.21 441.182 332.871C441.182 342.532 433.35 350.364 423.689 350.364H128.879C119.218 350.364 111.386 342.532 111.386 332.871C111.386 323.21 119.218 315.378 128.879 315.378Z" fill="white"/>
<path d="M92.3446 658.719L91.6508 658.651C68.1101 656.222 46.8294 643.562 33.4623 624.033C29.801 618.591 26.8394 612.71 24.6473 606.528L24.4367 605.939L25.0604 605.888C32.5074 605.289 40.1577 604.025 43.5563 603.424L21.6415 595.999L21.506 595.349C20.2068 589.245 22.7521 582.964 27.9345 579.487C33.1309 575.842 40.0218 575.726 45.3386 579.192C47.7246 580.716 50.2202 582.226 52.6335 583.686C60.9267 588.702 69.5023 593.889 75.9318 600.987C85.6813 611.965 89.9547 626.757 87.5617 641.243L92.3446 658.719Z" fill="#F2F2F2"/>
<path d="M172.004 647.82L182.804 647.819L187.943 606.157L172.001 606.158L172.004 647.82Z" fill="#A0616A"/>
<path d="M171.623 659.088L204.837 659.086V658.667C204.837 651.527 199.049 645.739 191.909 645.739L185.842 641.136L174.522 645.739L171.623 645.74L171.623 659.088Z" fill="#2F2E41"/>
<path d="M85.4451 617.904L94.0841 624.385L123.197 594.144L110.445 584.578L85.4451 617.904Z" fill="#A0616A"/>
<path d="M78.3783 626.689L104.947 646.621L105.199 646.285C109.484 640.574 108.327 632.471 102.617 628.186L100.525 620.862L88.7078 617.751L86.3885 616.011L78.3783 626.689Z" fill="#2F2E41"/>
<path d="M121.348 452.312C121.348 452.312 121.945 468.576 122.697 481.62C122.82 483.759 117.809 486.083 117.938 488.41C118.024 489.954 118.966 491.454 119.054 493.064C119.146 494.763 117.846 496.267 117.938 498.024C118.029 499.741 119.513 501.709 119.602 503.467C120.565 522.376 124.057 545.013 120.56 551.341C118.837 554.46 96.8751 597.666 96.8751 597.666C96.8751 597.666 109.112 616.02 112.608 609.902C117.226 601.821 152.814 564.015 152.814 556.795C152.814 549.584 161.048 495.542 161.048 495.542L166.789 527.523L169.421 533.86L168.594 537.58L170.295 542.6L170.387 547.569L172.043 556.795C172.043 556.795 167.061 628.677 169.867 630.678C172.681 632.688 186.308 636.298 187.916 632.688C189.515 629.079 199.927 557.669 199.927 557.669C199.927 557.669 201.605 524.945 203.423 494.528C203.528 492.762 204.769 490.63 204.865 488.89C204.979 486.871 204.192 484.249 204.297 482.291C204.41 480.045 205.407 478.463 205.503 476.313C206.246 459.697 202.075 439.464 200.747 437.471C196.735 431.457 193.125 426.65 193.125 426.65C193.125 426.65 139.09 408.896 124.65 426.936L121.348 452.312Z" fill="#2F2E41"/>
<path d="M175.242 285.063L153.821 280.779L143.824 294.346C125.172 312.686 124.891 328.873 128.221 354.819V391.235L125.811 415.647C125.811 415.647 117.279 433.492 126.078 437.647C134.878 441.802 192.677 441.448 198.195 439.789C203.714 438.13 198.931 436.094 197.481 428.364C194.759 413.845 196.58 420.849 196.767 416.226C199.453 349.912 193.197 322.688 192.562 315.532L181.668 295.774L175.242 285.063Z" fill="#3F3D56"/>
<path d="M288.143 338.53C285.91 342.761 280.671 344.38 276.441 342.147C275.99 341.909 275.561 341.632 275.159 341.318L228.899 370.692L229.032 354.699L273.97 328.621C277.171 325.032 282.676 324.717 286.264 327.918C289.268 330.597 290.044 334.984 288.143 338.53Z" fill="#A0616A"/>
<path d="M158.329 303.584L153.062 303.026C148.196 302.521 143.421 304.605 140.483 308.517C139.357 310 138.549 311.699 138.108 313.508L138.105 313.523C136.783 318.968 138.856 324.675 143.363 328.004L161.553 341.415C174.318 358.664 198.309 370.108 226.451 379.405L270.194 352.238L254.722 333.5L224.719 349.579L180.12 315.056L180.095 315.035L163.12 304.099L158.329 303.584Z" fill="#3F3D56"/>
<path d="M168.004 274.545C181.8 274.545 192.984 263.361 192.984 249.565C192.984 235.769 181.8 224.585 168.004 224.585C154.208 224.585 143.024 235.769 143.024 249.565C143.024 263.361 154.208 274.545 168.004 274.545Z" fill="#A0616A"/>
<path d="M168.581 274.55C168.379 274.557 168.178 274.561 167.976 274.566C167.89 274.79 167.797 275.012 167.689 275.23L168.581 274.55Z" fill="#2F2E41"/>
<path d="M175.436 250.258C175.475 250.504 175.535 250.746 175.615 250.982C175.582 250.735 175.522 250.492 175.436 250.258Z" fill="#2F2E41"/>
<path d="M193.302 225.654C192.274 228.846 191.357 224.797 187.974 225.525C183.905 226.401 179.17 226.1 175.838 223.606C170.874 219.963 164.44 218.983 158.615 220.981C152.913 222.998 143.362 224.42 141.876 230.283C141.36 232.321 141.154 234.532 139.903 236.221C138.808 237.698 137.081 238.54 135.637 239.676C130.759 243.514 134.487 254.416 136.795 260.177C139.104 265.937 144.399 270.134 150.221 272.283C155.854 274.363 161.967 274.73 167.976 274.567C169.021 271.856 168.57 268.725 167.707 265.915C166.774 262.873 165.391 259.937 165.001 256.779C164.611 253.621 165.468 250.034 168.116 248.269C170.55 246.647 174.51 247.635 175.436 250.258C174.896 246.979 178.217 243.807 181.641 243.249C185.318 242.65 188.994 243.977 192.66 244.638C196.326 245.299 195.025 229.865 193.302 225.654Z" fill="#2F2E41"/>
<path d="M333.008 290.886C335.337 262.75 314.415 238.053 286.279 235.724C258.142 233.395 233.445 254.317 231.117 282.454C228.788 310.59 249.709 335.287 277.846 337.616C305.983 339.944 330.68 319.023 333.008 290.886Z" fill="#F9A826"/>
<path d="M295.491 265.37L282.062 278.798L268.634 265.37C266.46 263.196 262.936 263.196 260.762 265.37C258.589 267.544 258.589 271.068 260.762 273.242L274.191 286.67L260.762 300.098C258.591 302.274 258.594 305.798 260.77 307.97C262.942 310.139 266.461 310.139 268.634 307.97L282.062 294.542L295.491 307.97C297.666 310.142 301.191 310.138 303.362 307.963C305.531 305.79 305.531 302.271 303.362 300.098L289.934 286.67L303.362 273.242C305.536 271.068 305.536 267.544 303.362 265.37C301.189 263.196 297.664 263.196 295.491 265.37Z" fill="white"/>
<path d="M261.918 243.703C263.425 248.243 260.966 253.144 256.427 254.651C255.943 254.812 255.446 254.929 254.941 255.003L244.11 308.72L232.662 297.552L244.955 247.07C244.581 242.275 248.165 238.086 252.96 237.712C256.971 237.399 260.675 239.876 261.918 243.703Z" fill="#A0616A"/>
<path d="M146.829 313.184L142.78 316.598C139.047 319.76 137.245 324.649 138.034 329.477C138.325 331.316 138.991 333.076 139.992 334.647L140 334.659C143.015 339.382 148.567 341.838 154.09 340.89L176.36 337.048C197.645 339.778 222.512 330.389 248.703 316.518L259.383 266.145L235.15 264.337L225.982 297.12L170.194 305.401L170.161 305.405L150.518 310.083L146.829 313.184Z" fill="#3F3D56"/>
<path d="M273.641 659.95L1.89069 660.257C1.2331 660.255 0.701734 659.72 0.703864 659.063C0.705974 658.408 1.23609 657.878 1.89069 657.876L273.641 657.569C274.298 657.571 274.83 658.106 274.828 658.763C274.825 659.418 274.295 659.948 273.641 659.95Z" fill="#CACACA"/>
<path d="M57.4807 91.6629C62.1511 91.6629 65.9373 87.7924 65.9373 83.0178C65.9373 78.2433 62.1511 74.3727 57.4807 74.3727C52.8102 74.3727 49.024 78.2433 49.024 83.0178C49.024 87.7924 52.8102 91.6629 57.4807 91.6629Z" fill="#3F3D56"/>
<path d="M86.6944 91.6629C91.3649 91.6629 95.151 87.7924 95.151 83.0178C95.151 78.2433 91.3649 74.3727 86.6944 74.3727C82.0239 74.3727 78.2378 78.2433 78.2378 83.0178C78.2378 87.7924 82.0239 91.6629 86.6944 91.6629Z" fill="#3F3D56"/>
<path d="M115.908 91.6629C120.579 91.6629 124.365 87.7924 124.365 83.0178C124.365 78.2433 120.579 74.3727 115.908 74.3727C111.238 74.3727 107.452 78.2433 107.452 83.0178C107.452 87.7924 111.238 91.6629 115.908 91.6629Z" fill="#3F3D56"/>
<path d="M149.22 89.8506C148.96 89.8506 148.701 89.75 148.505 89.5498L142.799 83.7168C142.418 83.3281 142.418 82.707 142.799 82.3184L148.505 76.4858C148.892 76.0913 149.526 76.085 149.919 76.4702C150.314 76.8564 150.321 77.4897 149.934 77.8843L144.912 83.0176L149.934 88.1514C150.321 88.5459 150.314 89.1792 149.919 89.5654C149.724 89.7559 149.472 89.8506 149.22 89.8506Z" fill="#3F3D56"/>
<path d="M158.808 89.8506C158.555 89.8506 158.303 89.7559 158.109 89.5654C157.714 89.1792 157.707 88.5464 158.093 88.1514L163.115 83.0176L158.093 77.8843C157.707 77.4897 157.714 76.8564 158.109 76.4702C158.503 76.0835 159.137 76.0908 159.523 76.4858L165.228 82.3184C165.609 82.707 165.609 83.3281 165.228 83.7168L159.523 89.5498C159.327 89.75 159.068 89.8506 158.808 89.8506Z" fill="#3F3D56"/>
<path d="M457.318 75.3737H446.708C445.498 75.3737 444.518 76.3536 444.518 77.5637V88.1837C444.518 89.3937 445.498 90.3737 446.708 90.3737H457.318C458.528 90.3737 459.518 89.3937 459.518 88.1837V77.5637C459.518 76.3536 458.528 75.3737 457.318 75.3737Z" fill="#3F3D56"/>
<path d="M431.318 75.3737H420.708C419.498 75.3737 418.518 76.3536 418.518 77.5637V88.1837C418.518 89.3937 419.498 90.3737 420.708 90.3737H431.318C432.528 90.3737 433.518 89.3937 433.518 88.1837V77.5637C433.518 76.3536 432.528 75.3737 431.318 75.3737Z" fill="#3F3D56"/>
<path d="M481.818 75.8737H471.208C469.998 75.8737 469.018 76.8536 469.018 78.0637V88.6837C469.018 89.8937 469.998 90.8737 471.208 90.8737H481.818C483.028 90.8737 484.018 89.8937 484.018 88.6837V78.0637C484.018 76.8536 483.028 75.8737 481.818 75.8737Z" fill="#3F3D56"/>
<path d="M321.896 79.9136H237.086C235.606 79.9136 234.416 81.1136 234.416 82.5837C234.416 84.0537 235.606 85.2537 237.086 85.2537H321.896C323.366 85.2537 324.566 84.0536 324.566 82.5837C324.566 81.1137 323.366 79.9136 321.896 79.9136Z" fill="#3F3D56"/>
</g>
<defs>
<clipPath id="clip0_27_10026">
<rect width="586.479" height="659.298" fill="white" transform="translate(0.703857 0.959473)"/>
</clipPath>
</defs>
</svg>
