<svg width="983" height="764" viewBox="0 0 983 764" fill="none" xmlns="http://www.w3.org/2000/svg">
<g clip-path="url(#clip0_27_10241)">
<path d="M559.856 374.036C581.964 374.036 599.886 356.114 599.886 334.007C599.886 311.899 581.964 293.977 559.856 293.977C537.748 293.977 519.826 311.899 519.826 334.007C519.826 356.114 537.748 374.036 559.856 374.036Z" fill="#E6E6E6"/>
<path d="M657.962 385.447L616.13 343.615C619.336 338.628 621.509 333.047 622.52 327.205C623.53 321.362 623.358 315.376 622.012 309.601C620.667 303.827 618.176 298.381 614.688 293.586C611.199 288.792 606.784 284.746 601.703 281.689C592.137 275.974 580.773 274.061 569.862 276.327C558.951 278.593 549.289 284.875 542.79 293.927C536.81 302.312 533.937 312.519 534.667 322.792C535.397 333.066 539.682 342.764 546.788 350.22C553.893 357.676 563.374 362.424 573.6 363.647C583.827 364.87 594.16 362.492 602.823 356.922L644.655 398.754C646.42 400.517 648.813 401.507 651.308 401.506C653.802 401.506 656.194 400.514 657.958 398.75C659.722 396.986 660.714 394.594 660.714 392.099C660.715 389.605 659.725 387.212 657.962 385.447ZM601.261 342.054C596.078 347.237 589.258 350.463 581.963 351.181C574.668 351.9 567.349 350.067 561.254 345.994C555.159 341.922 550.665 335.862 548.537 328.847C546.409 321.833 546.779 314.297 549.584 307.525C552.389 300.753 557.456 295.162 563.921 291.707C570.385 288.251 577.848 287.144 585.038 288.574C592.227 290.004 598.698 293.883 603.349 299.549C607.999 305.216 610.541 312.319 610.541 319.65C610.546 323.811 609.729 327.933 608.137 331.778C606.544 335.622 604.207 339.115 601.261 342.054Z" fill="#3F3D56"/>
<path d="M961.196 447.151C1068.18 565.46 758.059 735.96 507.476 735.96C256.894 735.96 83.5301 603.852 53.7567 447.151C-18.4334 67.2042 668.834 -174.288 507.476 158.343C272.279 643.191 876.947 353.981 961.196 447.151Z" fill="#E6E6E6"/>
<path d="M913.196 475.151C1020.18 593.46 710.059 763.96 459.476 763.96C208.894 763.96 35.5301 631.852 5.75676 475.151C-66.4334 95.2042 620.834 -146.288 459.476 186.343C224.279 671.191 828.947 381.981 913.196 475.151Z" fill="#3F3D56"/>
<path d="M150.017 197.771C74.9496 194.465 16.7457 178.273 17.5103 160.906C17.9688 150.495 39.2136 142.122 75.7971 137.937C75.928 137.921 76.0608 137.931 76.1878 137.967C76.3148 138.002 76.4334 138.063 76.5369 138.145C76.6405 138.226 76.7268 138.328 76.791 138.443C76.8552 138.558 76.8959 138.685 76.9109 138.816C76.9259 138.947 76.9148 139.08 76.8783 139.206C76.8418 139.333 76.7806 139.451 76.6982 139.554C76.6158 139.657 76.5138 139.743 76.3982 139.806C76.2825 139.87 76.1555 139.91 76.0244 139.924C41.5627 143.867 19.907 151.941 19.5084 160.994C18.8169 176.699 78.6227 192.625 150.105 195.773C221.587 198.92 282.561 188.312 283.253 172.607C283.653 163.515 262.656 153.541 228.455 146.579C228.326 146.553 228.203 146.502 228.094 146.428C227.985 146.355 227.891 146.261 227.819 146.151C227.746 146.042 227.695 145.919 227.67 145.789C227.645 145.66 227.646 145.528 227.672 145.399C227.698 145.27 227.75 145.147 227.823 145.038C227.897 144.929 227.991 144.836 228.101 144.763C228.211 144.691 228.334 144.641 228.463 144.616C228.592 144.591 228.725 144.592 228.854 144.619C265.155 152.009 285.711 162.243 285.251 172.695C284.486 190.062 225.084 201.076 150.017 197.771Z" fill="#F9A826"/>
<path d="M83.346 200.679C89.6259 212.609 98.9284 222.68 110.323 229.885C121.718 237.091 134.804 241.177 148.274 241.736C161.744 242.295 175.125 239.307 187.077 233.071C199.03 226.835 209.135 217.569 216.382 206.201C171.969 206.799 127.557 204.956 83.346 200.679Z" fill="#F9A826"/>
<path d="M224.686 185.166C228.465 173.83 229.554 161.77 227.867 149.94C226.179 138.11 221.761 126.835 214.963 117.008C208.164 107.181 199.172 99.0708 188.697 93.3198C178.223 87.5689 166.553 84.3349 154.612 83.8738C142.672 83.4127 130.788 85.7371 119.901 90.6631C109.014 95.5891 99.4226 102.982 91.8865 112.255C84.3505 121.529 79.0764 132.429 76.4815 144.094C73.8867 155.758 74.0424 167.866 76.9363 179.46C125.732 187.744 175.396 189.662 224.686 185.166Z" fill="#F9A826"/>
<path d="M169.257 133.546C174.227 133.546 178.257 129.517 178.257 124.546C178.257 119.576 174.227 115.546 169.257 115.546C164.286 115.546 160.257 119.576 160.257 124.546C160.257 129.517 164.286 133.546 169.257 133.546Z" fill="white"/>
<path d="M122.937 168.537C131.221 168.537 137.937 161.821 137.937 153.537C137.937 145.252 131.221 138.537 122.937 138.537C114.652 138.537 107.937 145.252 107.937 153.537C107.937 161.821 114.652 168.537 122.937 168.537Z" fill="white"/>
<path d="M349.328 153.843C354.851 153.843 359.328 149.366 359.328 143.844C359.328 138.321 354.851 133.844 349.328 133.844C343.805 133.844 339.328 138.321 339.328 143.844C339.328 149.366 343.805 153.843 349.328 153.843Z" fill="#F9A826"/>
<path d="M123.328 459.844C126.642 459.844 129.328 457.157 129.328 453.844C129.328 450.53 126.642 447.843 123.328 447.843C120.014 447.843 117.328 450.53 117.328 453.844C117.328 457.157 120.014 459.844 123.328 459.844Z" fill="#E6E6E6"/>
<path d="M543.328 665.844C546.642 665.844 549.328 663.157 549.328 659.844C549.328 656.53 546.642 653.843 543.328 653.843C540.014 653.843 537.328 656.53 537.328 659.844C537.328 663.157 540.014 665.844 543.328 665.844Z" fill="#E6E6E6"/>
<path d="M152.328 343.844C153.985 343.844 155.328 342.5 155.328 340.844C155.328 339.187 153.985 337.843 152.328 337.843C150.671 337.843 149.328 339.187 149.328 340.844C149.328 342.5 150.671 343.844 152.328 343.844Z" fill="#E6E6E6"/>
<path d="M400.328 567.844C401.985 567.844 403.328 566.5 403.328 564.844C403.328 563.187 401.985 561.843 400.328 561.843C398.671 561.843 397.328 563.187 397.328 564.844C397.328 566.5 398.671 567.844 400.328 567.844Z" fill="#E6E6E6"/>
<path d="M851.328 538.844C852.985 538.844 854.328 537.5 854.328 535.844C854.328 534.187 852.985 532.843 851.328 532.843C849.671 532.843 848.328 534.187 848.328 535.844C848.328 537.5 849.671 538.844 851.328 538.844Z" fill="#E6E6E6"/>
<path d="M710.328 627.844C711.985 627.844 713.328 626.5 713.328 624.844C713.328 623.187 711.985 621.843 710.328 621.843C708.671 621.843 707.328 623.187 707.328 624.844C707.328 626.5 708.671 627.844 710.328 627.844Z" fill="#E6E6E6"/>
<path d="M563.328 519.844C564.985 519.844 566.328 518.5 566.328 516.844C566.328 515.187 564.985 513.843 563.328 513.843C561.671 513.843 560.328 515.187 560.328 516.844C560.328 518.5 561.671 519.844 563.328 519.844Z" fill="#E6E6E6"/>
<path d="M373.328 223.844C374.985 223.844 376.328 222.5 376.328 220.844C376.328 219.187 374.985 217.843 373.328 217.843C371.671 217.843 370.328 219.187 370.328 220.844C370.328 222.5 371.671 223.844 373.328 223.844Z" fill="#E6E6E6"/>
<path d="M397.328 75.8436C398.985 75.8436 400.328 74.5004 400.328 72.8435C400.328 71.1866 398.985 69.8434 397.328 69.8434C395.671 69.8434 394.328 71.1866 394.328 72.8435C394.328 74.5004 395.671 75.8436 397.328 75.8436Z" fill="#E6E6E6"/>
<path d="M383.328 698.844C384.985 698.844 386.328 697.5 386.328 695.844C386.328 694.187 384.985 692.843 383.328 692.843C381.671 692.843 380.328 694.187 380.328 695.844C380.328 697.5 381.671 698.844 383.328 698.844Z" fill="#E6E6E6"/>
<path d="M235.328 635.844C236.985 635.844 238.328 634.5 238.328 632.844C238.328 631.187 236.985 629.843 235.328 629.843C233.671 629.843 232.328 631.187 232.328 632.844C232.328 634.5 233.671 635.844 235.328 635.844Z" fill="#E6E6E6"/>
<path d="M704.328 527.844C705.985 527.844 707.328 526.5 707.328 524.844C707.328 523.187 705.985 521.843 704.328 521.843C702.671 521.843 701.328 523.187 701.328 524.844C701.328 526.5 702.671 527.844 704.328 527.844Z" fill="#E6E6E6"/>
<path d="M148.797 234.744C153.767 234.744 157.797 230.715 157.797 225.744C157.797 220.774 153.767 216.744 148.797 216.744C143.826 216.744 139.797 220.774 139.797 225.744C139.797 230.715 143.826 234.744 148.797 234.744Z" fill="white"/>
<path d="M352.328 363.844C352.328 390.724 310.769 453.36 298.623 471.09C298.257 471.626 297.765 472.065 297.191 472.368C296.617 472.671 295.977 472.829 295.328 472.829C294.679 472.829 294.039 472.671 293.465 472.368C292.891 472.065 292.399 471.626 292.033 471.09C279.887 453.36 238.328 390.724 238.328 363.844C238.328 356.358 239.802 348.946 242.667 342.031C245.531 335.115 249.73 328.831 255.023 323.539C260.316 318.246 266.599 314.047 273.515 311.182C280.431 308.318 287.843 306.844 295.328 306.844C302.813 306.844 310.225 308.318 317.141 311.182C324.056 314.047 330.34 318.246 335.633 323.539C340.926 328.831 345.125 335.115 347.989 342.031C350.854 348.946 352.328 356.358 352.328 363.844Z" fill="white"/>
<path d="M295.328 388.844C311.344 388.844 324.328 375.86 324.328 359.844C324.328 343.827 311.344 330.844 295.328 330.844C279.312 330.844 266.328 343.827 266.328 359.844C266.328 375.86 279.312 388.844 295.328 388.844Z" fill="#F9A826"/>
<path d="M294.828 503.844C313.329 503.844 328.328 500.933 328.328 497.344C328.328 493.754 313.329 490.844 294.828 490.844C276.326 490.844 261.328 493.754 261.328 497.344C261.328 500.933 276.326 503.844 294.828 503.844Z" fill="white"/>
<path d="M817.276 318.865C817.023 319.357 816.808 319.868 816.635 320.393L768.852 333.67L760.241 325.244L745.826 336.577L759.62 352.976C760.734 354.301 762.248 355.228 763.935 355.619C765.621 356.01 767.389 355.844 768.973 355.145L820.589 332.36C822.34 333.575 824.42 334.229 826.551 334.234C828.683 334.238 830.766 333.594 832.522 332.386C834.279 331.178 835.626 329.464 836.384 327.472C837.143 325.48 837.277 323.304 836.769 321.234C836.261 319.164 835.134 317.298 833.54 315.883C831.945 314.469 829.957 313.573 827.841 313.316C825.725 313.059 823.581 313.452 821.694 314.443C819.806 315.434 818.266 316.977 817.276 318.865Z" fill="#FFB8B8"/>
<path d="M767.169 334.448L749.233 348.408C748.723 348.805 748.133 349.088 747.504 349.236C746.875 349.385 746.221 349.396 745.586 349.269C744.952 349.142 744.353 348.88 743.829 348.501C743.306 348.122 742.87 347.634 742.552 347.071L731.405 327.343C729.387 324.721 728.492 321.405 728.915 318.124C729.338 314.842 731.045 311.862 733.662 309.837C736.28 307.813 739.593 306.908 742.876 307.323C746.159 307.738 749.143 309.437 751.174 312.049L767.513 327.643C767.98 328.09 768.346 328.632 768.585 329.233C768.825 329.833 768.932 330.479 768.899 331.124C768.866 331.77 768.695 332.401 768.396 332.975C768.098 333.549 767.679 334.051 767.169 334.448Z" fill="#F9A826"/>
<path d="M821.858 312.262L840.046 320.445C840.808 320.788 841.402 321.419 841.699 322.2C841.995 322.981 841.969 323.847 841.626 324.609L839.473 329.395C839.726 329.51 839.924 329.721 840.022 329.981C840.121 330.241 840.113 330.529 839.999 330.783L839.138 332.698C839.023 332.951 838.813 333.149 838.553 333.247C838.293 333.346 838.004 333.338 837.75 333.224L836.889 335.139C837.142 335.254 837.34 335.464 837.438 335.724C837.537 335.984 837.529 336.273 837.415 336.527L836.554 338.441C836.439 338.695 836.229 338.892 835.969 338.991C835.708 339.089 835.42 339.081 835.166 338.968L823.538 364.814C823.195 365.576 822.564 366.17 821.783 366.466C821.002 366.763 820.135 366.736 819.374 366.394L801.186 358.211C800.424 357.868 799.83 357.237 799.534 356.456C799.237 355.675 799.263 354.809 799.606 354.047L817.694 313.842C818.037 313.08 818.668 312.486 819.449 312.19C820.23 311.893 821.097 311.919 821.858 312.262Z" fill="#3F3D56"/>
<path d="M804.488 355.664L819.079 362.235C819.81 362.562 820.641 362.587 821.39 362.304C822.139 362.02 822.746 361.453 823.078 360.724L829.817 345.734L832.158 340.538L838.256 326.976C838.582 326.247 838.606 325.418 838.323 324.67C838.04 323.923 837.473 323.318 836.745 322.987L832.158 320.92L822.144 316.416C821.413 316.09 820.582 316.067 819.835 316.352C819.087 316.638 818.483 317.208 818.155 317.938L812.256 331.049L805.538 345.976L802.977 351.675C802.65 352.405 802.625 353.234 802.909 353.982C803.192 354.73 803.76 355.335 804.488 355.664Z" fill="#F2F2F2"/>
<path d="M774 541.388L786.26 541.387L792.093 494.099L773.998 494.1L774 541.388Z" fill="#FFB8B8"/>
<path d="M770.873 537.386L795.017 537.385C797.038 537.385 799.04 537.783 800.906 538.556C802.773 539.329 804.469 540.462 805.898 541.891C807.327 543.32 808.46 545.016 809.233 546.883C810.007 548.75 810.405 550.75 810.405 552.771V553.271L770.874 553.272L770.873 537.386Z" fill="#2F2E41"/>
<path d="M806 538.388L818.26 538.387L824.093 491.099L805.998 491.1L806 538.388Z" fill="#FFB8B8"/>
<path d="M802.873 534.386L827.017 534.385C829.038 534.385 831.04 534.783 832.906 535.556C834.773 536.329 836.469 537.462 837.898 538.891C839.327 540.32 840.46 542.016 841.233 543.883C842.007 545.75 842.405 547.75 842.405 549.771V550.271L802.874 550.272L802.873 534.386Z" fill="#2F2E41"/>
<path d="M719.008 430.424C721.62 438.166 726.575 444.906 733.186 449.709C739.796 454.512 747.737 457.142 755.908 457.234L756.528 457.244C762.858 457.424 770.288 455.384 777.578 452.454C791.978 446.664 805.808 437.394 809.478 434.844L803.258 494.634L800.738 518.874C800.674 519.501 800.743 520.134 800.939 520.733C801.135 521.332 801.454 521.884 801.876 522.352C802.298 522.82 802.814 523.195 803.389 523.452C803.965 523.709 804.588 523.842 805.218 523.844H820.748C821.744 523.844 822.712 523.515 823.501 522.907C824.289 522.299 824.855 521.447 825.108 520.484L850.748 422.834C851.517 419.911 851.579 416.847 850.928 413.895C850.278 410.944 848.934 408.19 847.008 405.861C845.082 403.532 842.629 401.695 839.851 400.503C837.074 399.31 834.053 398.796 831.038 399.004L777.778 402.654L781.498 387.774L733.958 384.614L733.818 384.714C732.678 385.544 731.568 386.414 730.508 387.324C727.858 389.565 725.508 392.14 723.518 394.984C719.958 400.086 717.687 405.976 716.902 412.149C716.116 418.321 716.839 424.592 719.008 430.424Z" fill="#2F2E41"/>
<path d="M719.008 430.424C721.62 438.166 726.575 444.906 733.186 449.709C739.796 454.512 747.737 457.142 755.908 457.234C763.722 453.279 771.262 448.806 778.478 443.844L777.578 452.454L769.738 527.874C769.674 528.501 769.743 529.134 769.939 529.733C770.135 530.332 770.454 530.884 770.876 531.352C771.298 531.82 771.814 532.195 772.389 532.452C772.965 532.709 773.588 532.842 774.218 532.844H789.748C790.744 532.844 791.712 532.515 792.501 531.907C793.289 531.299 793.855 530.447 794.108 529.484L803.258 494.634L819.748 431.834C820.517 428.911 820.579 425.847 819.928 422.895C819.278 419.944 817.934 417.19 816.008 414.861C814.082 412.532 811.628 410.695 808.851 409.503C806.074 408.31 803.053 407.796 800.038 408.004L746.778 411.654L750.498 396.774L723.518 394.984C719.957 400.086 717.687 405.976 716.902 412.149C716.116 418.321 716.839 424.592 719.008 430.424Z" fill="#2F2E41"/>
<path d="M730.44 390.773L730.083 390.73L721.787 349.945C721.716 349.591 714.935 314.412 735.724 296.021L736.086 293.504C736.179 292.86 736.41 292.243 736.764 291.697C737.118 291.151 737.586 290.688 738.136 290.34C738.686 289.993 739.305 289.768 739.95 289.683C740.595 289.598 741.251 289.653 741.873 289.846L761.458 295.921C762.566 296.262 763.5 297.02 764.063 298.034C764.625 299.048 764.774 300.241 764.477 301.363L762.573 308.604C765.213 311.704 796.288 349.117 785.463 377.94L780.616 396.891L730.44 390.773Z" fill="#F9A826"/>
<path d="M811.761 358.942C811.292 359.237 810.848 359.568 810.432 359.933L762.534 347.075L759.403 335.441L741.227 337.872L744.769 359.006C745.055 360.713 745.888 362.282 747.141 363.476C748.395 364.67 750.002 365.425 751.721 365.628L807.753 372.247C808.643 374.184 810.102 375.804 811.935 376.892C813.768 377.98 815.889 378.484 818.016 378.336C820.142 378.189 822.174 377.398 823.84 376.068C825.506 374.739 826.727 372.933 827.342 370.892C827.957 368.851 827.936 366.671 827.281 364.642C826.627 362.614 825.371 360.832 823.679 359.535C821.988 358.238 819.941 357.486 817.812 357.38C815.683 357.274 813.572 357.819 811.761 358.942Z" fill="#FFB8B8"/>
<path d="M760.689 346.889L738.147 349.792C737.506 349.875 736.854 349.818 736.237 349.627C735.619 349.435 735.051 349.112 734.569 348.68C734.087 348.249 733.705 347.718 733.446 347.125C733.188 346.532 733.061 345.891 733.073 345.244L733.503 322.59C733.099 319.306 734.014 315.996 736.046 313.385C738.079 310.774 741.064 309.076 744.347 308.663C747.63 308.25 750.942 309.156 753.558 311.181C756.174 313.207 757.881 316.187 758.302 319.469L764.445 341.203C764.62 341.826 764.66 342.479 764.56 343.118C764.461 343.757 764.225 344.367 763.869 344.906C763.512 345.446 763.044 345.902 762.495 346.244C761.946 346.586 761.33 346.806 760.689 346.889Z" fill="#F9A826"/>
<path d="M754.344 284.31C767.908 284.31 778.905 273.314 778.905 259.749C778.905 246.184 767.908 235.188 754.344 235.188C740.779 235.188 729.783 246.184 729.783 259.749C729.783 273.314 740.779 284.31 754.344 284.31Z" fill="#FFB8B8"/>
<path d="M753.052 261.8L749.977 256.201C744.152 279.933 754.44 299.574 754.44 299.574L714.508 280.973L714.888 274.373L710.937 278.857L705.259 275.728L704.51 271.448L700.224 272.509L715.867 244.122C731.05 217.109 753.123 227.422 753.123 227.422C788.238 225.753 783.949 260.397 783.949 260.397L753.052 261.8Z" fill="#2F2E41"/>
<path d="M473.463 444.832C479.126 441.202 472.239 420.356 458.081 398.27C443.924 376.185 427.856 361.225 422.193 364.855C416.53 368.485 423.417 389.332 437.574 411.417C451.732 433.502 467.8 448.462 473.463 444.832Z" fill="#3F3D56"/>
</g>
<defs>
<clipPath id="clip0_27_10241">
<rect width="982.487" height="763.014" fill="white" transform="translate(0.423096 0.945374)"/>
</clipPath>
</defs>
</svg>
