<svg viewBox="0 0 573 363" fill="none" xmlns="http://www.w3.org/2000/svg">
<g clip-path="url(#clip0_27_9565)">
<path d="M418.012 88.9595C418.012 123.628 363.822 225.866 332.752 281.637C330.644 285.421 327.564 288.573 323.83 290.768C320.096 292.963 315.843 294.12 311.512 294.12C307.181 294.12 302.928 292.963 299.194 290.768C295.46 288.573 292.38 285.421 290.272 281.637C259.202 225.866 205.012 123.628 205.012 88.9595C205.012 40.3584 252.694 0.959473 311.512 0.959473C370.33 0.959473 418.012 40.3584 418.012 88.9595Z" fill="#F9A826"/>
<path d="M312.012 145.959C344.044 145.959 370.012 119.992 370.012 87.9595C370.012 55.927 344.044 29.9595 312.012 29.9595C279.979 29.9595 254.012 55.927 254.012 87.9595C254.012 119.992 279.979 145.959 312.012 145.959Z" fill="white"/>
<path d="M69.9818 140.439C89.168 140.439 104.721 124.885 104.721 105.699C104.721 86.5129 89.168 70.9595 69.9818 70.9595C50.7957 70.9595 35.2422 86.5129 35.2422 105.699C35.2422 124.885 50.7957 140.439 69.9818 140.439Z" fill="#FF6584"/>
<path d="M311.512 362.307C357.955 362.307 395.604 359.4 395.604 355.815C395.604 352.23 357.955 349.324 311.512 349.324C265.069 349.324 227.42 352.23 227.42 355.815C227.42 359.4 265.069 362.307 311.512 362.307Z" fill="#F9A826"/>
<path opacity="0.4" d="M62.9084 136.593C64.6765 125.697 57.2773 115.431 46.3819 113.663C35.4865 111.895 25.2207 119.294 23.4526 130.19C21.6845 141.085 29.0837 151.351 39.9791 153.119C50.8745 154.887 61.1403 147.488 62.9084 136.593Z" fill="#F9A826"/>
<path d="M510.77 236.489C353.38 177.489 161.42 235.009 50.5903 352.669C49.9603 353.329 49.3303 353.999 48.7203 354.669H47.0303C47.6103 353.999 48.2103 353.329 48.8003 352.669C161.93 226.059 351.34 175.599 510.77 236.489Z" fill="#3F3D56"/>
<path d="M553.78 256.059C539.868 248.64 525.503 242.104 510.77 236.489C525.542 242.011 539.913 248.55 553.78 256.059Z" fill="#3F3D56"/>
<path opacity="0.4" d="M467.641 197.195C479.747 197.195 489.561 187.381 489.561 175.275C489.561 163.168 479.747 153.354 467.641 153.354C455.534 153.354 445.72 163.168 445.72 175.275C445.72 187.381 455.534 197.195 467.641 197.195Z" fill="#F9A826"/>
<path d="M470.081 343.881C471.775 350.142 477.578 354.021 477.578 354.021C477.578 354.021 480.633 347.746 478.939 341.484C477.245 335.223 471.443 331.344 471.443 331.344C471.443 331.344 468.388 337.619 470.081 343.881Z" fill="#3F3D56"/>
<path d="M472.571 342.535C477.219 347.06 477.787 354.015 477.787 354.015C477.787 354.015 470.818 353.635 466.17 349.11C461.522 344.585 460.954 337.629 460.954 337.629C460.954 337.629 467.922 338.01 472.571 342.535Z" fill="#F9A826"/>
<path d="M3.35989 256.815V266.475L2.87988 266.995V256.715C3.03988 256.745 3.19992 256.785 3.35989 256.815Z" fill="#3F3D56"/>
<path d="M34.1399 352.665C33.9999 352.895 33.8499 353.125 33.6999 353.355H2.87988V257.295L3.35989 256.815L7.44989 261.465V254.665H20.4499V276.245L33.5799 291.155L33.6999 291.295C33.8599 291.795 34.0099 292.295 34.1599 292.795C34.1609 292.802 34.1644 292.809 34.1699 292.815C36.139 299.117 37.7549 305.523 39.0099 312.005C41.8699 327.295 41.4399 341.315 34.1399 352.665Z" fill="#CCCCCC"/>
<path d="M13.7015 309.912H5.427V316.808H13.7015V309.912Z" fill="#3F3D56"/>
<path d="M13.7015 322.324H5.427V329.219H13.7015V322.324Z" fill="#3F3D56"/>
<path d="M268.588 296.811L264.451 289.916L303.065 256.818C331.612 243.077 366.023 247.042 402.359 256.818V266.471L366.503 305.086L325.13 313.36L268.588 296.811Z" fill="#3F3D56"/>
<path d="M419.451 276.241C426.308 268.614 427.261 261.361 419.451 254.664H406.451V261.468L402.359 256.818L369.261 289.916L363.744 295.432L356.849 323.014L369.261 353.353H432.698V291.295L419.451 276.241Z" fill="#CCCCCC"/>
<path d="M264.451 289.916H369.261V353.353H264.451C251.771 339.635 258.358 314.63 264.451 289.916Z" fill="#F2F2F2"/>
<path d="M354.78 309.912H332.715V329.22H354.78V309.912Z" fill="#3F3D56"/>
<path d="M323.751 309.223H304.444V353.353H323.751V309.223Z" fill="#CCCCCC"/>
<path d="M282.379 316.118V309.224H274.105V316.118H281.689H282.379Z" fill="#3F3D56"/>
<path d="M281.689 321.634H274.105V328.53H282.379V321.634H281.689Z" fill="#3F3D56"/>
<path d="M296.17 309.223H287.895V316.118H296.17V309.223Z" fill="#3F3D56"/>
<path d="M296.17 321.635H287.895V328.53H296.17V321.635Z" fill="#3F3D56"/>
<path d="M398.911 316.808V309.912H390.636V316.808H398.221H398.911Z" fill="#3F3D56"/>
<path d="M398.221 322.324H390.636V329.219H398.911V322.324H398.221Z" fill="#3F3D56"/>
<path d="M412.701 309.912H404.427V316.808H412.701V309.912Z" fill="#3F3D56"/>
<path d="M412.701 322.324H404.427V329.219H412.701V322.324Z" fill="#3F3D56"/>
<path d="M81.966 180.969L75.071 175.452L113.685 140.975H211.599V171.315L148.162 214.067L81.966 180.969Z" fill="#3F3D56"/>
<path d="M229.451 160.315V141.664H216.451V146.232L211.599 140.975L179.88 175.452L167.469 183.727L148.224 324.33L177.247 353.353H244.697C255.032 301.365 263.227 247.959 244.697 176.831L229.451 160.315Z" fill="#CCCCCC"/>
<path d="M75.0704 175.453H179.88V353.353H75.0704C63.6012 284.24 57.9999 220.148 75.0704 175.453Z" fill="#F2F2F2"/>
<path d="M135.06 309.912H115.753V353.353H135.06V309.912Z" fill="#CCCCCC"/>
<path d="M95.067 322.324V315.429H86.793V322.324H94.378H95.067Z" fill="#3F3D56"/>
<path d="M94.378 327.84H86.793V334.736H95.067V327.84H94.378Z" fill="#3F3D56"/>
<path d="M108.858 315.429H100.583V322.324H108.858V315.429Z" fill="#3F3D56"/>
<path d="M150.92 327.84H143.335V334.736H151.609V327.84H150.92Z" fill="#3F3D56"/>
<path d="M165.4 315.429H157.125V322.324H165.4V315.429Z" fill="#3F3D56"/>
<path d="M165.4 327.84H157.125V334.736H165.4V327.84Z" fill="#3F3D56"/>
<path d="M209.53 184.416V177.521H201.256V184.416H208.841H209.53Z" fill="#3F3D56"/>
<path d="M208.841 189.933H201.256V196.828H209.53V189.933H208.841Z" fill="#3F3D56"/>
<path d="M223.321 177.521H215.047V184.417H223.321V177.521Z" fill="#3F3D56"/>
<path d="M223.321 189.933H215.047V196.828H223.321V189.933Z" fill="#3F3D56"/>
<path d="M209.53 223.031V216.135H201.256V223.031H208.841H209.53Z" fill="#3F3D56"/>
<path d="M208.841 228.547H201.256V235.442H209.53V228.547H208.841Z" fill="#3F3D56"/>
<path d="M223.321 216.135H215.047V223.031H223.321V216.135Z" fill="#3F3D56"/>
<path d="M223.321 228.547H215.047V235.442H223.321V228.547Z" fill="#3F3D56"/>
<path d="M209.53 261.645V254.749H201.256V261.645H208.841H209.53Z" fill="#3F3D56"/>
<path d="M208.841 267.161H201.256V274.056H209.53V267.161H208.841Z" fill="#3F3D56"/>
<path d="M223.321 254.749H215.047V261.645H223.321V254.749Z" fill="#3F3D56"/>
<path d="M223.321 267.161H215.047V274.056H223.321V267.161Z" fill="#3F3D56"/>
<path d="M209.53 300.259V293.363H201.256V300.259H208.841H209.53Z" fill="#3F3D56"/>
<path d="M208.841 305.776H201.256V312.671H209.53V305.776H208.841Z" fill="#3F3D56"/>
<path d="M223.321 293.364H215.047V300.259H223.321V293.364Z" fill="#3F3D56"/>
<path d="M223.321 305.775H215.047V312.671H223.321V305.775Z" fill="#3F3D56"/>
<path d="M86.7926 184.417H166.779V200.965C141.141 193.89 114.405 194.397 86.7926 200.965V184.417Z" fill="#3F3D56"/>
<path d="M86.7926 217.514C111.757 224.87 138.419 224.87 166.779 217.514V234.063H86.7926V217.514Z" fill="#3F3D56"/>
<path d="M86.7926 250.612H166.779V267.161C139.52 258.457 112.83 258.047 86.7926 267.161V250.612Z" fill="#3F3D56"/>
<path d="M86.7926 283.71C112.879 293.764 139.565 293.345 166.779 283.71V300.259H86.7926V283.71Z" fill="#3F3D56"/>
<path d="M516.68 254.959H572.88V282.039L567.86 283.61L551.16 288.822L524.96 282.753L498.79 276.688L484.97 273.487L478.07 270.934C483.81 263.058 494.25 256.864 516.68 254.959Z" fill="#3F3D56"/>
<path d="M572.88 270.934V353.355H478.07C478.04 353.304 478.02 353.258 477.99 353.207V353.202C477.967 353.144 477.941 353.089 477.91 353.035C476.43 350.056 475.103 347.085 473.93 344.121C463.98 319.043 465.06 294.627 478.07 270.934H572.88Z" fill="#F2F2F2"/>
<path d="M538.06 309.912H518.753V353.353H538.06V309.912Z" fill="#CCCCCC"/>
<path d="M498.067 322.324V315.429H489.793V322.324H497.378H498.067Z" fill="#3F3D56"/>
<path d="M497.378 327.84H489.793V334.736H498.067V327.84H497.378Z" fill="#3F3D56"/>
<path d="M511.858 315.429H503.583V322.324H511.858V315.429Z" fill="#3F3D56"/>
<path d="M511.858 327.84H503.583V334.736H511.858V327.84Z" fill="#3F3D56"/>
<path d="M554.609 322.324V315.429H546.335V322.324H553.92H554.609Z" fill="#3F3D56"/>
<path d="M553.92 327.84H546.335V334.736H554.609V327.84H553.92Z" fill="#3F3D56"/>
<path d="M568.4 315.429H560.125V322.324H568.4V315.429Z" fill="#3F3D56"/>
<path d="M568.4 327.84H560.125V334.736H568.4V327.84Z" fill="#3F3D56"/>
<path d="M498.793 222.959H510.678C522.401 222.959 533.644 227.616 541.934 235.906C550.223 244.195 554.88 255.438 554.88 267.161H498.793V222.959Z" fill="#3F3D56"/>
<path d="M138.793 102.959H150.678C162.401 102.959 173.644 107.616 181.934 115.906C190.223 124.195 194.88 135.438 194.88 147.161H138.793V102.959Z" fill="#3F3D56"/>
<path d="M328.793 213.959H340.678C352.401 213.959 363.644 218.616 371.934 226.906C380.223 235.195 384.88 246.438 384.88 258.161H328.793V213.959Z" fill="#3F3D56"/>
<path d="M554.88 283.71H498.793V300.259H554.88V283.71Z" fill="#3F3D56"/>
<path d="M572.88 352.669H2.88013V354.669H572.88V352.669Z" fill="#3F3D56"/>
<path d="M55.4509 273.665H53.4509V352.665H55.4509V273.665Z" fill="#3F3D56"/>
<path d="M73.9086 283.732C74.0359 311.357 54.6007 333.841 54.6007 333.841C54.6007 333.841 29.7114 311.058 34.8318 283.913C39.9814 256.612 56.0308 233.92 54.1396 233.804C54.1396 233.804 73.7812 256.108 73.9086 283.732Z" fill="#F9A826"/>
<path d="M255.451 273.665H253.451V352.665H255.451V273.665Z" fill="#3F3D56"/>
<path d="M273.909 283.732C275.711 311.298 254.601 333.841 254.601 333.841C254.601 333.841 234.959 311.537 234.832 283.913C234.704 256.288 254.14 233.804 254.14 233.804C252.245 241.377 272.45 261.429 273.909 283.732Z" fill="#F9A826"/>
<path d="M125.513 145.248L212.387 140.998L248.83 171.417L242.387 177.234L184.678 175.935L125.513 145.248Z" fill="#3F3D56"/>
<path d="M38.83 286.415L34.15 290.645L33.58 291.155L32.39 292.235L2.88 291.575V256.715C1.92 256.505 0.96 256.305 0 256.115L2.39001 255.995L2.88 256.405L7.45001 260.215L20.45 271.075L34.97 283.195L38.83 286.415Z" fill="#3F3D56"/>
<path d="M315.513 260.248L402.387 255.998L438.83 286.417L432.387 292.234L374.678 290.935L315.513 260.248Z" fill="#3F3D56"/>
</g>
<defs>
<clipPath id="clip0_27_9565">
<rect width="572.88" height="361.347" fill="white" transform="translate(0 0.959473)"/>
</clipPath>
</defs>
</svg>
