<svg width="648" height="494" viewBox="0 0 648 494" fill="none" xmlns="http://www.w3.org/2000/svg">
<g clip-path="url(#clip0_31_11032)">
<path d="M583.781 475.644C584.246 475.666 584.706 475.544 585.099 475.295C585.492 475.046 585.8 474.682 585.979 474.253C586.159 473.824 586.202 473.35 586.103 472.895C586.004 472.44 585.768 472.027 585.426 471.711L585.27 471.093C585.291 471.043 585.311 470.994 585.332 470.945C585.8 469.838 586.585 468.895 587.588 468.234C588.59 467.572 589.766 467.222 590.967 467.226C592.168 467.231 593.341 467.59 594.338 468.259C595.336 468.928 596.114 469.877 596.574 470.986C598.412 475.414 600.753 479.85 601.329 484.532C601.583 486.602 601.476 488.7 601.013 490.733C605.331 481.313 607.574 471.074 607.588 460.712C607.589 458.112 607.444 455.513 607.155 452.929C606.916 450.81 606.585 448.707 606.161 446.619C603.846 435.287 598.877 424.667 591.66 415.629C588.168 413.723 585.343 410.793 583.568 407.233C582.924 405.953 582.469 404.586 582.218 403.176C582.612 403.228 583.703 397.228 583.406 396.86C583.955 396.026 584.938 395.612 585.537 394.799C588.52 390.756 592.629 391.462 594.774 396.956C599.356 399.269 599.4 403.105 596.589 406.793C594.8 409.14 594.554 412.316 592.984 414.828C593.146 415.035 593.314 415.235 593.475 415.442C596.427 419.237 599 423.313 601.156 427.61C600.632 422.796 601.258 417.926 602.983 413.401C604.731 409.183 608.008 405.632 610.893 401.986C611.656 401.006 612.693 400.275 613.871 399.885C615.05 399.494 616.318 399.462 617.515 399.792C618.712 400.122 619.784 400.799 620.596 401.739C621.408 402.678 621.924 403.837 622.077 405.069C622.083 405.123 622.089 405.177 622.095 405.23C621.666 405.472 621.246 405.729 620.836 406C620.32 406.345 619.921 406.837 619.69 407.413C619.458 407.988 619.406 408.62 619.541 409.225C619.675 409.831 619.989 410.382 620.441 410.806C620.894 411.23 621.464 411.507 622.077 411.602L622.14 411.612C621.987 413.156 621.717 414.687 621.332 416.191C625.034 430.507 617.042 435.721 605.631 435.955C605.379 436.084 605.134 436.213 604.882 436.336C607.048 442.477 608.408 448.873 608.925 455.364C609.218 459.194 609.2 463.04 608.873 466.867L608.893 466.732C609.719 462.476 611.989 458.637 615.319 455.861C620.265 451.799 627.252 450.303 632.587 447.037C633.154 446.673 633.814 446.479 634.488 446.477C635.162 446.475 635.822 446.666 636.391 447.028C636.959 447.389 637.413 447.905 637.698 448.516C637.983 449.127 638.087 449.806 637.999 450.474L637.977 450.617C637.182 450.941 636.407 451.314 635.658 451.734C635.23 451.976 634.81 452.233 634.4 452.504C633.884 452.849 633.484 453.341 633.253 453.916C633.022 454.492 632.97 455.124 633.104 455.729C633.238 456.335 633.552 456.886 634.005 457.31C634.458 457.734 635.028 458.011 635.641 458.106L635.703 458.115C635.749 458.122 635.787 458.128 635.833 458.135C634.474 461.38 632.566 464.366 630.194 466.964C627.879 479.461 617.938 480.647 607.304 477.008H607.297C606.131 482.078 604.44 487.013 602.253 491.734H584.233C584.168 491.534 584.11 491.327 584.052 491.127C585.72 491.232 587.394 491.132 589.038 490.83C587.701 489.189 586.364 487.536 585.027 485.895C584.997 485.864 584.969 485.832 584.943 485.798C584.265 484.959 583.58 484.125 582.902 483.286L582.902 483.285C582.866 480.711 583.162 478.143 583.781 475.644Z" fill="#CFCFD6"/>
<path d="M567.73 54.5231H1C0.734784 54.5231 0.480444 54.4177 0.292908 54.2302C0.105371 54.0426 0 53.7883 0 53.5231C0 53.2579 0.105371 53.0035 0.292908 52.816C0.480444 52.6284 0.734784 52.5231 1 52.5231H567.73C567.996 52.5231 568.25 52.6284 568.438 52.816C568.625 53.0035 568.73 53.2579 568.73 53.5231C568.73 53.7883 568.625 54.0426 568.438 54.2302C568.25 54.4177 567.996 54.5231 567.73 54.5231Z" fill="#CFCFD6"/>
<path d="M29.3548 24.5027C34.0253 24.5027 37.8114 20.6321 37.8114 15.8576C37.8114 11.0831 34.0253 7.21252 29.3548 7.21252C24.6843 7.21252 20.8982 11.0831 20.8982 15.8576C20.8982 20.6321 24.6843 24.5027 29.3548 24.5027Z" fill="#CFCFD6"/>
<path d="M58.5685 24.5027C63.239 24.5027 67.0252 20.6321 67.0252 15.8576C67.0252 11.0831 63.239 7.21252 58.5685 7.21252C53.8981 7.21252 50.1119 11.0831 50.1119 15.8576C50.1119 20.6321 53.8981 24.5027 58.5685 24.5027Z" fill="#CFCFD6"/>
<path d="M87.7823 24.5027C92.4528 24.5027 96.2389 20.6321 96.2389 15.8576C96.2389 11.0831 92.4528 7.21252 87.7823 7.21252C83.1118 7.21252 79.3257 11.0831 79.3257 15.8576C79.3257 20.6321 83.1118 24.5027 87.7823 24.5027Z" fill="#CFCFD6"/>
<path d="M121.094 22.6903C120.961 22.6905 120.829 22.6639 120.706 22.6123C120.583 22.5606 120.472 22.4849 120.379 22.3895L114.673 16.5565C114.49 16.3697 114.388 16.1187 114.388 15.8573C114.388 15.5959 114.49 15.3449 114.673 15.1581L120.379 9.32555C120.565 9.13896 120.817 9.03339 121.081 9.03176C121.344 9.03013 121.598 9.1326 121.786 9.31687C121.975 9.50114 122.083 9.75232 122.087 10.0158C122.091 10.2793 121.991 10.5338 121.809 10.724L116.787 15.8573L121.809 20.9911C121.946 21.1318 122.039 21.31 122.076 21.5034C122.113 21.6967 122.092 21.8966 122.015 22.0781C121.939 22.2595 121.811 22.4144 121.647 22.5233C121.483 22.6322 121.291 22.6903 121.094 22.6903Z" fill="#CFCFD6"/>
<path d="M130.682 22.6903C130.485 22.6903 130.293 22.6322 130.129 22.5233C129.965 22.4144 129.837 22.2595 129.76 22.0781C129.684 21.8967 129.663 21.6967 129.7 21.5034C129.737 21.31 129.83 21.1318 129.967 20.9911L134.989 15.8573L129.967 10.724C129.874 10.6304 129.8 10.5193 129.75 10.3971C129.7 10.2748 129.674 10.1438 129.675 10.0116C129.676 9.87951 129.703 9.74885 129.755 9.6272C129.806 9.50556 129.882 9.39535 129.976 9.30295C130.071 9.21055 130.182 9.13779 130.305 9.08887C130.428 9.03995 130.559 9.01584 130.691 9.01795C130.823 9.02005 130.954 9.04832 131.075 9.10112C131.196 9.15393 131.305 9.23022 131.397 9.32558L137.103 15.1581C137.285 15.3449 137.388 15.5959 137.388 15.8573C137.388 16.1187 137.285 16.3697 137.103 16.5565L131.397 22.3895C131.304 22.4849 131.193 22.5606 131.07 22.6123C130.947 22.664 130.815 22.6905 130.682 22.6903Z" fill="#CFCFD6"/>
<path d="M517.192 8.21338H506.582C506.294 8.21329 506.01 8.26989 505.744 8.37991C505.478 8.48994 505.237 8.65125 505.033 8.85463C504.83 9.05801 504.669 9.29946 504.559 9.5652C504.449 9.83094 504.392 10.1158 504.392 10.4034V21.0234C504.392 21.311 504.449 21.5958 504.559 21.8616C504.669 22.1273 504.83 22.3688 505.033 22.5721C505.237 22.7755 505.478 22.9368 505.744 23.0469C506.01 23.1569 506.294 23.2135 506.582 23.2134H517.192C517.774 23.2139 518.332 22.9837 518.745 22.5732C519.157 22.1626 519.39 21.6053 519.392 21.0234V10.4034C519.39 9.82147 519.157 9.26413 518.745 8.85359C518.332 8.44305 517.774 8.21282 517.192 8.21338Z" fill="#CFCFD6"/>
<path d="M491.192 8.21338H480.582C480.294 8.21329 480.01 8.26989 479.744 8.37991C479.478 8.48994 479.237 8.65125 479.033 8.85463C478.83 9.05801 478.669 9.29946 478.559 9.5652C478.449 9.83094 478.392 10.1158 478.392 10.4034V21.0234C478.392 21.311 478.449 21.5958 478.559 21.8616C478.669 22.1273 478.83 22.3688 479.033 22.5721C479.237 22.7755 479.478 22.9368 479.744 23.0469C480.01 23.1569 480.294 23.2135 480.582 23.2134H491.192C491.774 23.2139 492.332 22.9837 492.745 22.5732C493.157 22.1626 493.39 21.6053 493.392 21.0234V10.4034C493.39 9.82147 493.157 9.26413 492.745 8.85359C492.332 8.44305 491.774 8.21282 491.192 8.21338Z" fill="#CFCFD6"/>
<path d="M541.692 8.71338H531.082C530.794 8.71329 530.51 8.76989 530.244 8.87991C529.978 8.98994 529.737 9.15125 529.533 9.35463C529.33 9.55801 529.169 9.79946 529.059 10.0652C528.949 10.3309 528.892 10.6158 528.892 10.9034V21.5234C528.892 21.811 528.949 22.0958 529.059 22.3616C529.169 22.6273 529.33 22.8688 529.533 23.0721C529.737 23.2755 529.978 23.4368 530.244 23.5469C530.51 23.6569 530.794 23.7135 531.082 23.7134H541.692C542.274 23.7139 542.832 23.4837 543.245 23.0732C543.657 22.6626 543.89 22.1053 543.892 21.5234V10.9034C543.89 10.3215 543.657 9.76413 543.245 9.35359C542.832 8.94305 542.274 8.71282 541.692 8.71338Z" fill="#CFCFD6"/>
<path d="M235.916 24.293H166.916C164.529 24.293 162.24 23.3448 160.552 21.6569C158.865 19.9691 157.916 17.6799 157.916 15.293C157.916 12.906 158.865 10.6168 160.552 8.92902C162.24 7.24119 164.529 6.29297 166.916 6.29297H235.916C238.303 6.29297 240.593 7.24119 242.28 8.92902C243.968 10.6168 244.916 12.906 244.916 15.293C244.916 17.6799 243.968 19.9691 242.28 21.6569C240.593 23.3448 238.303 24.293 235.916 24.293Z" fill="#CFCFD6"/>
<path d="M328.917 24.293H259.917C257.53 24.293 255.24 23.3448 253.553 21.6569C251.865 19.9691 250.917 17.6799 250.917 15.293C250.917 12.906 251.865 10.6168 253.553 8.92902C255.24 7.24119 257.53 6.29297 259.917 6.29297H328.917C331.303 6.29297 333.593 7.24119 335.28 8.92902C336.968 10.6168 337.917 12.906 337.917 15.293C337.917 17.6799 336.968 19.9691 335.28 21.6569C333.593 23.3448 331.303 24.293 328.917 24.293Z" fill="#CFCFD6"/>
<path d="M450.905 23.793H355.928C352.875 23.793 349.947 22.5801 347.788 20.4213C345.629 18.2624 344.417 15.3343 344.417 12.2812C344.417 9.22815 345.629 6.3001 347.788 4.14124C349.947 1.98237 352.875 0.769531 355.928 0.769531H450.905C453.958 0.769531 456.886 1.98237 459.045 4.14124C461.204 6.3001 462.417 9.22815 462.417 12.2812C462.417 15.3343 461.204 18.2624 459.045 20.4213C456.886 22.5801 453.958 23.793 450.905 23.793Z" fill="#F9A826"/>
<path d="M452.249 19.1313C452.068 19.1316 451.889 19.096 451.722 19.0268C451.555 18.9576 451.403 18.8561 451.276 18.7281L440.296 7.74858C440.168 7.62078 440.067 7.46905 439.998 7.30206C439.929 7.13508 439.893 6.95612 439.893 6.77538C439.893 6.59463 439.929 6.41566 439.998 6.24867C440.067 6.08169 440.168 5.92997 440.296 5.80217C440.424 5.67437 440.576 5.57298 440.743 5.50381C440.91 5.43465 441.089 5.39905 441.269 5.39905C441.45 5.39905 441.629 5.43465 441.796 5.50381C441.963 5.57298 442.115 5.67435 442.243 5.80215L453.222 16.7817C453.415 16.9742 453.546 17.2195 453.599 17.4865C453.652 17.7534 453.624 18.0302 453.52 18.2816C453.416 18.5331 453.24 18.7481 453.013 18.8994C452.787 19.0506 452.521 19.1313 452.249 19.1313Z" fill="white"/>
<path d="M441.302 19.1313C441.482 19.1315 441.661 19.096 441.828 19.0268C441.996 18.9576 442.147 18.8561 442.275 18.7281L453.254 7.74857C453.512 7.49026 453.656 7.14048 453.655 6.77597C453.655 6.41146 453.51 6.06199 453.252 5.80425C452.995 5.5465 452.645 5.40152 452.281 5.40112C451.916 5.40073 451.566 5.54495 451.308 5.80214L440.328 16.7817C440.136 16.9742 440.005 17.2195 439.952 17.4864C439.899 17.7534 439.926 18.0301 440.03 18.2816C440.134 18.5331 440.311 18.7481 440.537 18.8993C440.763 19.0506 441.029 19.1313 441.302 19.1313Z" fill="white"/>
<path d="M336.998 98.6926H231.121C230.821 98.6932 230.524 98.6346 230.246 98.5201C229.969 98.4057 229.716 98.2376 229.504 98.0255C229.291 97.8134 229.123 97.5615 229.008 97.2842C228.893 97.0069 228.833 96.7096 228.833 96.4093C228.833 96.1091 228.893 95.8118 229.008 95.5345C229.123 95.2572 229.291 95.0052 229.504 94.7932C229.716 94.5811 229.969 94.413 230.246 94.2985C230.524 94.1841 230.821 94.1255 231.121 94.1261H336.998C337.603 94.1274 338.182 94.3685 338.609 94.7965C339.037 95.2246 339.277 95.8046 339.277 96.4093C339.277 97.0141 339.037 97.5941 338.609 98.0221C338.182 98.4502 337.603 98.6913 336.998 98.6926Z" fill="#F9A826"/>
<path d="M363.796 119.567H204.323C204.023 119.567 203.725 119.509 203.448 119.394C203.17 119.28 202.918 119.112 202.705 118.9C202.493 118.688 202.324 118.436 202.209 118.158C202.094 117.881 202.035 117.584 202.035 117.283C202.035 116.983 202.094 116.686 202.209 116.409C202.324 116.131 202.493 115.879 202.705 115.667C202.918 115.455 203.17 115.287 203.448 115.173C203.725 115.058 204.023 115 204.323 115H363.796C364.401 115.002 364.981 115.243 365.408 115.671C365.835 116.099 366.075 116.679 366.075 117.283C366.075 117.888 365.835 118.468 365.408 118.896C364.981 119.324 364.401 119.565 363.796 119.567Z" fill="#CFCFD6"/>
<path d="M363.8 135.871H204.32C203.714 135.871 203.132 136.112 202.704 136.54C202.275 136.969 202.035 137.55 202.035 138.156C202.035 138.762 202.275 139.343 202.704 139.772C203.132 140.2 203.714 140.441 204.32 140.441H363.8C364.406 140.441 364.987 140.2 365.415 139.772C365.844 139.343 366.085 138.762 366.085 138.156C366.085 137.55 365.844 136.969 365.415 136.54C364.987 136.112 364.406 135.871 363.8 135.871Z" fill="#CFCFD6"/>
<path d="M363.796 161.315H204.323C204.023 161.316 203.725 161.257 203.448 161.142C203.17 161.028 202.918 160.86 202.705 160.648C202.493 160.436 202.324 160.184 202.209 159.906C202.094 159.629 202.035 159.332 202.035 159.032C202.035 158.731 202.094 158.434 202.209 158.157C202.324 157.879 202.493 157.628 202.705 157.415C202.918 157.203 203.17 157.035 203.448 156.921C203.725 156.806 204.023 156.748 204.323 156.748H363.796C364.401 156.75 364.981 156.991 365.408 157.419C365.835 157.847 366.075 158.427 366.075 159.032C366.075 159.636 365.835 160.216 365.408 160.644C364.981 161.072 364.401 161.314 363.796 161.315Z" fill="#CFCFD6"/>
<path d="M363.796 182.189H204.323C203.717 182.189 203.137 181.948 202.709 181.52C202.28 181.092 202.04 180.511 202.04 179.906C202.04 179.3 202.28 178.719 202.709 178.291C203.137 177.863 203.717 177.623 204.323 177.623H363.796C364.402 177.623 364.983 177.863 365.411 178.291C365.839 178.719 366.08 179.3 366.08 179.906C366.08 180.511 365.839 181.092 365.411 181.52C364.983 181.948 364.402 182.189 363.796 182.189Z" fill="#CFCFD6"/>
<path d="M363.796 203.189H204.323C203.717 203.189 203.137 202.948 202.709 202.52C202.28 202.092 202.04 201.511 202.04 200.906C202.04 200.3 202.28 199.719 202.709 199.291C203.137 198.863 203.717 198.623 204.323 198.623H363.796C364.402 198.623 364.983 198.863 365.411 199.291C365.839 199.719 366.08 200.3 366.08 200.906C366.08 201.511 365.839 202.092 365.411 202.52C364.983 202.948 364.402 203.189 363.796 203.189Z" fill="#CFCFD6"/>
<path d="M363.796 224.189H204.323C203.717 224.189 203.137 223.948 202.709 223.52C202.28 223.092 202.04 222.511 202.04 221.906C202.04 221.3 202.28 220.719 202.709 220.291C203.137 219.863 203.717 219.623 204.323 219.623H363.796C364.402 219.623 364.983 219.863 365.411 220.291C365.839 220.719 366.08 221.3 366.08 221.906C366.08 222.511 365.839 223.092 365.411 223.52C364.983 223.948 364.402 224.189 363.796 224.189Z" fill="#CFCFD6"/>
<path d="M363.796 245.189H204.323C203.717 245.189 203.137 244.948 202.709 244.52C202.28 244.092 202.04 243.511 202.04 242.906C202.04 242.3 202.28 241.719 202.709 241.291C203.137 240.863 203.717 240.623 204.323 240.623H363.796C364.402 240.623 364.983 240.863 365.411 241.291C365.839 241.719 366.08 242.3 366.08 242.906C366.08 243.511 365.839 244.092 365.411 244.52C364.983 244.948 364.402 245.189 363.796 245.189Z" fill="#CFCFD6"/>
<path d="M363.796 266.189H204.323C203.717 266.189 203.137 265.948 202.709 265.52C202.28 265.092 202.04 264.511 202.04 263.906C202.04 263.3 202.28 262.719 202.709 262.291C203.137 261.863 203.717 261.623 204.323 261.623H363.796C364.402 261.623 364.983 261.863 365.411 262.291C365.839 262.719 366.08 263.3 366.08 263.906C366.08 264.511 365.839 265.092 365.411 265.52C364.983 265.948 364.402 266.189 363.796 266.189Z" fill="#CFCFD6"/>
<path d="M449.372 21.0563C449.634 23.2704 450.75 25.2949 452.482 26.6989C454.214 28.103 456.425 28.7759 458.646 28.5743C459.097 28.5263 459.543 28.441 459.979 28.3193L477.199 52.7143L492.652 48.3319L465.45 17.4641C464.805 15.6927 463.592 14.1845 462 13.1749C460.408 12.1652 458.527 11.711 456.65 11.883C455.583 11.9912 454.547 12.3085 453.602 12.8168C452.658 13.3252 451.823 14.0146 451.145 14.8457C450.466 15.6768 449.959 16.6334 449.65 17.6607C449.342 18.6881 449.238 19.7662 449.347 20.8334C449.354 20.9078 449.363 20.9821 449.372 21.0563Z" fill="#A0616A"/>
<path d="M552.947 481.792L543.252 481.791L538.64 444.397L552.949 444.398L552.947 481.792Z" fill="#A0616A"/>
<path d="M553.288 491.906L523.476 491.905V491.528C523.476 488.45 524.698 485.499 526.874 483.323C529.051 481.147 532.002 479.924 535.079 479.924L540.526 475.793L550.686 479.925L553.288 479.925L553.288 491.906Z" fill="#2F2E41"/>
<path d="M520.794 458.814L511.418 461.279L497.449 426.287L511.287 422.649L520.794 458.814Z" fill="#A0616A"/>
<path d="M523.696 468.508L494.863 476.088L494.767 475.723C493.985 472.747 494.417 469.582 495.968 466.924C497.519 464.266 500.063 462.333 503.039 461.551L507.256 456.17L518.133 457.583L520.65 456.921L523.696 468.508Z" fill="#2F2E41"/>
<path d="M505.916 234.293C505.916 234.293 486.527 252.118 488.844 254.886C491.162 257.654 496.809 255.381 491.162 261.224C485.514 267.067 483.004 254.823 485.514 269.103C488.024 283.384 475.21 357.021 475.21 357.021C475.21 357.021 472.251 370.973 474.176 372.989C476.101 375.005 478.988 372.097 476.917 377.944C474.846 383.79 469.113 381.28 474.176 386.301C479.238 391.321 499.416 445.002 499.416 445.002L517.593 435.075C517.593 435.075 513.753 380.025 508.105 374.377C502.457 368.729 527.939 311.271 527.939 311.271C527.939 311.271 530.094 429.252 532.592 435.075C535.09 440.897 539.482 438.89 535.09 443.345C530.697 447.8 527.916 443.562 531.816 450.074C535.717 456.585 534.383 461.448 534.383 461.448H556.63L576.404 286.892L570.588 238.379L505.916 234.293Z" fill="#2F2E41"/>
<path d="M490.396 250.756C508.876 229.125 502.634 201.611 495.299 173.838L496.695 132.808C496.763 130.796 497.315 128.829 498.303 127.074C499.292 125.32 500.688 123.829 502.374 122.728L521.24 110.402L525.541 94.1183L548.268 96.8452L560.048 113.68L572.472 123.165C575.592 125.546 577.965 128.77 579.313 132.456C580.661 136.142 580.927 140.136 580.079 143.968L568.19 197.736C568.19 197.736 573.163 225.61 570.129 228.688C567.094 231.767 559.276 228.69 565.476 232.146C572.917 236.293 579.682 235.528 575.917 239.293C572.151 243.058 576.917 248.293 576.917 248.293L490.396 250.756Z" fill="#CFCFD6"/>
<path d="M565.661 143.013C565.661 143.013 584.502 140.441 579.709 133.574C574.917 126.706 568.069 109.83 547.896 103.95L489.259 35.9072C489.259 35.9072 468.184 47.3715 473.507 49.8806C478.83 52.3897 479.838 54.8539 479.838 54.8539C479.838 54.8539 477.313 59.6355 482.374 63.6011C487.436 67.5668 502.992 95.3939 502.992 95.3939L536.46 140.522L565.661 143.013Z" fill="#CFCFD6"/>
<path d="M528.219 98.2477C540.976 98.2477 551.317 87.9064 551.317 75.1498C551.317 62.3932 540.976 52.0519 528.219 52.0519C515.462 52.0519 505.121 62.3932 505.121 75.1498C505.121 87.9064 515.462 98.2477 528.219 98.2477Z" fill="#A0616A"/>
<path d="M537.186 95.771L538.699 96.254C533.967 96.651 525.532 99.2911 526.358 97.8316C527.184 96.3721 524.061 90.8667 525.585 90.1691C527.17 89.6133 528.582 88.6556 529.685 87.3896C530.651 86.0375 530.629 83.8053 529.181 82.979C527.775 82.1633 526.036 83.0433 524.641 83.8697C523.235 84.6853 520.638 72.6873 521.303 68.9419C517.386 66.7956 512.643 70.9059 508.243 70.101C505.549 69.6074 503.607 67.3966 502.384 64.8854C504.382 62.9895 505.87 60.6197 506.708 57.9957C504.841 58.9367 502.845 59.5984 500.785 59.9596C500.415 58.0109 500.466 56.0058 500.935 54.0786C501.294 52.5401 502.028 51.1142 503.071 49.9273C504.113 48.7404 505.433 47.8293 506.912 47.2748C509.917 46.3089 513.62 47.5001 515.068 50.3011C515.159 48.8402 514.784 47.3882 513.998 46.154C513.211 44.9198 512.053 43.9671 510.69 43.4329C511.684 42.9169 512.785 42.6377 513.905 42.617C515.025 42.5963 516.135 42.8347 517.148 43.3136C518.16 43.7925 519.049 44.4989 519.744 45.3778C520.439 46.2566 520.921 47.2841 521.153 48.3801C525.999 45.9514 531.56 45.3568 536.811 46.706C542.005 48.069 548.895 53.8318 548.895 53.8318C560.613 56.4182 560.055 100.976 537.186 95.771Z" fill="#2F2E41"/>
<path d="M474.732 289.227C476.296 287.638 477.178 285.501 477.191 283.272C477.204 281.042 476.346 278.896 474.8 277.289C474.481 276.967 474.135 276.673 473.767 276.408L482.038 247.716L468.956 238.397L461.875 278.926C460.896 280.537 460.478 282.427 460.685 284.3C460.892 286.174 461.714 287.926 463.022 289.284C463.774 290.049 464.669 290.658 465.657 291.078C466.644 291.497 467.704 291.718 468.777 291.727C469.85 291.737 470.913 291.535 471.908 291.133C472.903 290.732 473.809 290.138 474.574 289.386C474.627 289.334 474.68 289.281 474.732 289.227Z" fill="#A0616A"/>
<path d="M524.01 127.482C524.01 127.482 500.276 120.429 497.548 128.347C494.82 136.265 493.916 141.293 482.655 172.895L462.19 260.355C462.19 260.355 483.867 270.638 482.76 264.858C481.653 259.078 483.051 256.813 483.051 256.813C483.051 256.813 488.403 256.037 488.627 249.611C488.852 243.185 502.182 214.226 502.182 214.226L518.947 160.602L524.01 127.482Z" fill="#CFCFD6"/>
<path d="M391.46 492.142C391.46 492.298 391.49 492.453 391.55 492.598C391.61 492.742 391.697 492.874 391.808 492.984C391.918 493.095 392.05 493.183 392.194 493.242C392.339 493.302 392.494 493.332 392.65 493.332H645.94C646.256 493.332 646.559 493.206 646.782 492.983C647.005 492.76 647.13 492.457 647.13 492.142C647.13 491.826 647.005 491.524 646.782 491.3C646.559 491.077 646.256 490.952 645.94 490.952H392.65C392.494 490.951 392.339 490.982 392.194 491.041C392.05 491.101 391.918 491.189 391.808 491.299C391.697 491.41 391.61 491.541 391.55 491.686C391.49 491.83 391.46 491.985 391.46 492.142Z" fill="#CCCCCC"/>
</g>
<defs>
<clipPath id="clip0_31_11032">
<rect width="647.13" height="492.562" fill="white" transform="translate(0 0.769531)"/>
</clipPath>
</defs>
</svg>
