<svg width="704" height="554" viewBox="0 0 704 554" fill="none" xmlns="http://www.w3.org/2000/svg">
<g clip-path="url(#clip0_27_9717)">
<path d="M352.809 15.4883C352.777 17.295 352.39 19.0776 351.668 20.7344C350.947 22.3912 349.906 23.8896 348.606 25.1442C347.305 26.3987 345.771 27.3847 344.089 28.0459C342.407 28.7071 340.612 29.0305 338.805 28.9977H273.836C273.6 28.9917 273.365 28.9856 273.13 28.9675C272.521 28.9282 271.916 28.8455 271.319 28.72V5.72148C271.318 4.80127 271.599 3.90289 272.123 3.14665C272.648 2.39041 273.39 1.8124 274.252 1.48999H339.3C342.946 1.55893 346.417 3.07146 348.949 5.69574C351.482 8.32002 352.87 11.8417 352.809 15.4883Z" fill="#E6E6E6"/>
<path d="M695.819 3.15941e-05H276.819C275.916 -0.00263532 275.02 0.16356 274.179 0.490037C272.751 1.02415 271.52 1.9817 270.652 3.23451C269.783 4.48732 269.318 5.97558 269.319 7.50003V464.5C269.319 466.489 270.11 468.396 271.516 469.803C272.923 471.209 274.83 471.999 276.819 472H695.819C697.808 471.999 699.715 471.209 701.121 469.803C702.528 468.396 703.318 466.489 703.319 464.5V7.50003C703.318 5.51113 702.528 3.60389 701.121 2.19753C699.715 0.79116 697.808 0.000752511 695.819 3.15941e-05ZM700.319 464.5C700.317 465.693 699.842 466.836 698.999 467.68C698.155 468.524 697.012 468.998 695.819 469H276.819C275.626 468.998 274.482 468.524 273.639 467.68C272.795 466.836 272.32 465.693 272.319 464.5V7.50003C272.32 6.30711 272.795 5.16356 273.639 4.32004C274.482 3.47651 275.626 3.00182 276.819 3.00003H695.819C697.012 3.00182 698.155 3.47651 698.999 4.32004C699.842 5.16356 700.317 6.30711 700.319 7.50003V464.5Z" fill="#E6E6E6"/>
<path d="M473.436 157.021C478.873 157.021 483.28 152.615 483.28 147.178C483.28 141.742 478.873 137.335 473.436 137.335C468 137.335 463.593 141.742 463.593 147.178C463.593 152.615 468 157.021 473.436 157.021Z" fill="#F9A826"/>
<path d="M514.449 157.021C519.885 157.021 524.292 152.615 524.292 147.178C524.292 141.742 519.885 137.335 514.449 137.335C509.013 137.335 504.606 141.742 504.606 147.178C504.606 152.615 509.013 157.021 514.449 157.021Z" fill="#F9A826"/>
<path d="M391.411 238.361C396.847 238.361 401.254 233.954 401.254 228.518C401.254 223.081 396.847 218.675 391.411 218.675C385.975 218.675 381.568 223.081 381.568 228.518C381.568 233.954 385.975 238.361 391.411 238.361Z" fill="#F9A826"/>
<path d="M432.424 238.361C437.86 238.361 442.267 233.954 442.267 228.518C442.267 223.081 437.86 218.675 432.424 218.675C426.988 218.675 422.581 223.081 422.581 228.518C422.581 233.954 426.988 238.361 432.424 238.361Z" fill="#F9A826"/>
<path d="M473.436 279.03C478.873 279.03 483.28 274.623 483.28 269.187C483.28 263.751 478.873 259.344 473.436 259.344C468 259.344 463.593 263.751 463.593 269.187C463.593 274.623 468 279.03 473.436 279.03Z" fill="#F9A826"/>
<path d="M514.449 279.03C519.885 279.03 524.292 274.623 524.292 269.187C524.292 263.751 519.885 259.344 514.449 259.344C509.013 259.344 504.606 263.751 504.606 269.187C504.606 274.623 509.013 279.03 514.449 279.03Z" fill="#F9A826"/>
<path d="M555.462 279.03C560.898 279.03 565.305 274.623 565.305 269.187C565.305 263.751 560.898 259.344 555.462 259.344C550.026 259.344 545.619 263.751 545.619 269.187C545.619 274.623 550.026 279.03 555.462 279.03Z" fill="#F9A826"/>
<path d="M308.82 7.27235C308.6 7.49176 308.477 7.78934 308.477 8.09964C308.477 8.40994 308.6 8.70755 308.82 8.92699L313.843 13.95H301.457C301.147 13.9509 300.85 14.0745 300.632 14.2939C300.413 14.5132 300.29 14.8103 300.29 15.12C300.29 15.4297 300.413 15.7268 300.632 15.9462C300.85 16.1655 301.147 16.2892 301.457 16.2901H313.843L308.82 21.3129C308.6 21.5324 308.477 21.83 308.477 22.1403C308.477 22.4506 308.6 22.7482 308.82 22.9676C309.039 23.1871 309.337 23.3103 309.647 23.3103C309.958 23.3104 310.255 23.1871 310.475 22.9677L317.495 15.9474C317.714 15.7279 317.838 15.4303 317.838 15.12C317.838 14.8097 317.714 14.5121 317.495 14.2926L310.475 7.27235C310.255 7.05295 309.957 6.92969 309.647 6.92969C309.337 6.92969 309.039 7.05295 308.82 7.27235Z" fill="white"/>
<path d="M605.465 168.178H341.17C340.148 168.178 339.319 167.73 339.319 167.178C339.319 166.626 340.148 166.178 341.17 166.178H605.465C606.488 166.178 607.317 166.626 607.317 167.178C607.317 167.73 606.488 168.178 605.465 168.178Z" fill="#E6E6E6"/>
<path d="M605.465 124H341.17C340.148 124 339.319 123.552 339.319 123C339.319 122.448 340.148 122 341.17 122H605.465C606.488 122 607.317 122.448 607.317 123C607.317 123.552 606.488 124 605.465 124Z" fill="#E6E6E6"/>
<path d="M606.317 209.441H340.556C340.291 209.441 340.036 209.336 339.849 209.148C339.661 208.961 339.556 208.706 339.556 208.441C339.556 208.176 339.661 207.921 339.849 207.734C340.036 207.546 340.291 207.441 340.556 207.441H606.317C606.582 207.441 606.837 207.546 607.024 207.734C607.212 207.921 607.317 208.176 607.317 208.441C607.317 208.706 607.212 208.961 607.024 209.148C606.837 209.336 606.582 209.441 606.317 209.441Z" fill="#E6E6E6"/>
<path d="M606.317 249.441H340.556C340.291 249.441 340.036 249.336 339.849 249.148C339.661 248.961 339.556 248.706 339.556 248.441C339.556 248.176 339.661 247.921 339.849 247.734C340.036 247.546 340.291 247.441 340.556 247.441H606.317C606.582 247.441 606.837 247.546 607.024 247.734C607.212 247.921 607.317 248.176 607.317 248.441C607.317 248.706 607.212 248.961 607.024 249.148C606.837 249.336 606.582 249.441 606.317 249.441Z" fill="#E6E6E6"/>
<path d="M606.317 290.441H340.556C340.291 290.441 340.036 290.336 339.849 290.148C339.661 289.961 339.556 289.706 339.556 289.441C339.556 289.176 339.661 288.921 339.849 288.734C340.036 288.546 340.291 288.441 340.556 288.441H606.317C606.582 288.441 606.837 288.546 607.024 288.734C607.212 288.921 607.317 289.176 607.317 289.441C607.317 289.706 607.212 289.961 607.024 290.148C606.837 290.336 606.582 290.441 606.317 290.441Z" fill="#E6E6E6"/>
<path d="M575.319 288.38V123.62C575.319 123.278 575.766 123 576.319 123C576.871 123 577.319 123.277 577.319 123.62V288.38C577.319 288.722 576.871 289 576.319 289C575.766 289 575.319 288.722 575.319 288.38Z" fill="#E6E6E6"/>
<path d="M534.319 288.38V123.62C534.319 123.278 534.766 123 535.319 123C535.871 123 536.319 123.277 536.319 123.62V288.38C536.319 288.722 535.871 289 535.319 289C534.766 289 534.319 288.722 534.319 288.38Z" fill="#E6E6E6"/>
<path d="M493.319 288.38V123.62C493.319 123.278 493.766 123 494.319 123C494.871 123 495.319 123.277 495.319 123.62V288.38C495.319 288.722 494.871 289 494.319 289C493.766 289 493.319 288.722 493.319 288.38Z" fill="#E6E6E6"/>
<path d="M453.319 288.38V123.62C453.319 123.278 453.766 123 454.319 123C454.871 123 455.319 123.277 455.319 123.62V288.38C455.319 288.722 454.871 289 454.319 289C453.766 289 453.319 288.722 453.319 288.38Z" fill="#E6E6E6"/>
<path d="M411.319 330.223V123.777C411.375 123.555 411.504 123.358 411.686 123.217C411.867 123.076 412.089 123 412.319 123C412.548 123 412.771 123.076 412.952 123.217C413.133 123.358 413.262 123.555 413.319 123.777V330.223C413.262 330.445 413.133 330.642 412.952 330.783C412.771 330.924 412.548 331 412.319 331C412.089 331 411.867 330.924 411.686 330.783C411.504 330.642 411.375 330.445 411.319 330.223Z" fill="#E6E6E6"/>
<path d="M369.319 330.223V123.777C369.375 123.555 369.504 123.358 369.686 123.217C369.867 123.076 370.089 123 370.319 123C370.548 123 370.771 123.076 370.952 123.217C371.133 123.358 371.262 123.555 371.319 123.777V330.223C371.262 330.445 371.133 330.642 370.952 330.783C370.771 330.924 370.548 331 370.319 331C370.089 331 369.867 330.924 369.686 330.783C369.504 330.642 369.375 330.445 369.319 330.223Z" fill="#E6E6E6"/>
<path d="M340.556 331.441C340.291 331.442 340.036 331.337 339.848 331.15C339.66 330.963 339.554 330.709 339.554 330.444C339.553 330.178 339.658 329.924 339.845 329.736C340.032 329.548 340.286 329.442 340.552 329.441L442.314 329C442.578 329.005 442.829 329.112 443.016 329.297C443.203 329.483 443.311 329.733 443.319 329.996C443.319 330.127 443.294 330.258 443.244 330.379C443.194 330.501 443.121 330.611 443.029 330.704C442.936 330.798 442.826 330.872 442.705 330.922C442.584 330.973 442.454 330.999 442.323 331L340.56 331.441H340.556Z" fill="#E6E6E6"/>
<path d="M414.956 80.1782C414.691 80.1784 414.436 80.0732 414.249 79.8858C414.061 79.6984 413.955 79.4442 413.955 79.179C413.955 78.9137 414.06 78.6593 414.248 78.4716C414.435 78.284 414.689 78.1784 414.954 78.1782L557.68 78H557.681C557.947 77.9998 558.201 78.105 558.389 78.2924C558.576 78.4798 558.682 78.7341 558.682 78.9993C558.682 79.2645 558.577 79.5189 558.39 79.7066C558.202 79.8943 557.948 79.9998 557.683 80L414.957 80.1782H414.956Z" fill="#E6E6E6"/>
<path d="M463.283 406.203C459.321 406.203 455.447 405.028 452.152 402.826C448.857 400.625 446.289 397.496 444.773 393.835C443.256 390.174 442.86 386.145 443.633 382.259C444.406 378.372 446.314 374.802 449.116 372C451.918 369.198 455.488 367.29 459.375 366.517C463.261 365.744 467.289 366.141 470.95 367.657C474.611 369.174 477.741 371.742 479.942 375.037C482.144 378.331 483.319 382.205 483.319 386.168C483.319 388.799 482.8 391.404 481.794 393.835C480.787 396.266 479.311 398.474 477.45 400.335C475.59 402.195 473.381 403.671 470.95 404.678C468.52 405.685 465.914 406.203 463.283 406.203Z" fill="#E6E6E6"/>
<path d="M471.189 384.191H465.26V378.262C465.26 377.738 465.051 377.235 464.681 376.865C464.31 376.494 463.807 376.286 463.283 376.286C462.759 376.286 462.256 376.494 461.886 376.865C461.515 377.235 461.307 377.738 461.307 378.262V384.191H455.378C454.854 384.191 454.351 384.4 453.98 384.77C453.61 385.141 453.401 385.644 453.401 386.168C453.401 386.692 453.61 387.194 453.98 387.565C454.351 387.936 454.854 388.144 455.378 388.144H461.307V394.073C461.306 394.333 461.357 394.591 461.456 394.831C461.555 395.071 461.701 395.29 461.884 395.474C462.068 395.658 462.286 395.804 462.526 395.903C462.766 396.003 463.023 396.054 463.283 396.054C463.543 396.054 463.801 396.003 464.041 395.903C464.281 395.804 464.499 395.658 464.682 395.474C464.866 395.29 465.011 395.071 465.111 394.831C465.21 394.591 465.26 394.333 465.26 394.073V388.144H471.189C471.713 388.144 472.216 387.936 472.586 387.565C472.957 387.194 473.165 386.692 473.165 386.168C473.165 385.644 472.957 385.141 472.586 384.77C472.216 384.4 471.713 384.191 471.189 384.191Z" fill="white"/>
<path d="M509.283 406.203C505.321 406.203 501.447 405.028 498.152 402.826C494.857 400.625 492.289 397.496 490.773 393.835C489.256 390.174 488.86 386.145 489.633 382.259C490.406 378.372 492.314 374.802 495.116 372C497.918 369.198 501.488 367.29 505.375 366.517C509.261 365.744 513.289 366.141 516.95 367.657C520.611 369.174 523.741 371.742 525.942 375.037C528.144 378.331 529.319 382.205 529.319 386.168C529.319 388.799 528.8 391.404 527.794 393.835C526.787 396.266 525.311 398.474 523.45 400.335C521.59 402.195 519.381 403.671 516.95 404.678C514.52 405.685 511.914 406.203 509.283 406.203Z" fill="#E6E6E6"/>
<path d="M519.424 394.694L514.205 388.584C515.427 386.855 515.957 384.731 515.692 382.63C515.427 380.53 514.385 378.604 512.772 377.233C511.159 375.862 509.09 375.145 506.975 375.222C504.859 375.299 502.848 376.165 501.339 377.65C499.83 379.135 498.931 381.131 498.819 383.245C498.708 385.359 499.391 387.439 500.736 389.074C502.08 390.71 503.988 391.783 506.084 392.082C508.18 392.382 510.312 391.886 512.061 390.693L517.143 396.642C517.402 396.942 517.769 397.128 518.164 397.158C518.56 397.188 518.951 397.06 519.253 396.803C519.554 396.545 519.741 396.179 519.773 395.783C519.806 395.388 519.68 394.996 519.424 394.694ZM501.783 383.668C501.783 382.58 502.106 381.517 502.71 380.612C503.315 379.708 504.174 379.003 505.179 378.586C506.184 378.17 507.289 378.061 508.356 378.273C509.423 378.486 510.403 379.009 511.172 379.779C511.942 380.548 512.465 381.528 512.678 382.595C512.89 383.662 512.781 384.767 512.365 385.772C511.948 386.777 511.243 387.636 510.339 388.241C509.434 388.845 508.371 389.168 507.283 389.168C505.825 389.166 504.427 388.586 503.396 387.555C502.365 386.524 501.785 385.126 501.783 383.668Z" fill="white"/>
<path d="M414.956 408.179C414.691 408.179 414.436 408.074 414.249 407.886C414.061 407.699 413.955 407.445 413.955 407.179C413.955 406.914 414.06 406.66 414.248 406.472C414.435 406.284 414.689 406.179 414.954 406.179L557.68 406H557.681C557.947 406 558.201 406.105 558.389 406.292C558.576 406.48 558.682 406.734 558.682 406.999C558.682 407.264 558.577 407.519 558.39 407.707C558.202 407.894 557.948 408 557.683 408L414.957 408.179H414.956Z" fill="#E6E6E6"/>
<path d="M232.309 539.012L245.066 539.011L251.135 489.808L232.307 489.809L232.309 539.012Z" fill="#FFB6B6"/>
<path d="M229.06 534.845V551.375H270.19V550.855C270.19 546.61 268.503 542.538 265.5 539.535C262.498 536.533 258.426 534.846 254.18 534.845L246.66 529.145L246.27 529.305L232.65 534.845H229.06Z" fill="#2F2E41"/>
<path d="M117.046 522.427L128.463 528.117L155.844 486.788L138.993 478.39L117.046 522.427Z" fill="#FFB6B6"/>
<path d="M108.62 532.045L145.43 550.385L145.66 549.925C146.599 548.044 147.159 545.997 147.306 543.9C147.453 541.802 147.186 539.696 146.519 537.703C145.852 535.709 144.799 533.866 143.42 532.279C142.04 530.692 140.362 529.393 138.48 528.455L134.29 520.005L133.85 519.975L119.21 518.845L118.91 518.695L115.99 517.245L108.62 532.045Z" fill="#2F2E41"/>
<path d="M240.962 274.546L170.62 277.008L170.13 276.296C170.13 276.296 164.13 290.296 164.13 302.296C164.13 306.285 166.905 332.38 165.494 337.318C165.319 337.932 166.526 339.436 166.13 342.296C165.873 344.151 164.456 342.724 164.13 345.296C163.896 347.141 166.391 348.16 166.13 350.296C165.845 352.628 162.413 360.184 162.105 362.779C158.816 390.405 154.437 430.427 154.437 430.427C154.437 430.427 136.851 477.53 133.13 478.296C126.886 479.58 122.67 490.934 126.13 493.296C127.778 494.42 149.075 501.984 149.075 501.984C150.245 502.196 153.906 500.36 151.574 496.018C151.144 495.218 153.705 497.253 154.13 496.296C154.583 495.278 153.694 491.229 154.213 490.099C158.867 479.956 166.013 465.899 172.785 458.681C182.79 448.018 189.127 434.435 190.869 419.916L206.402 333.791L211.725 357.943L216.13 362.296L214.922 372.445L215.13 382.296L226.13 423.296C226.13 423.296 227.78 499.864 225.13 502.296C223.695 503.613 217.606 519.834 229.13 521.296L250.069 519.68C250.069 519.68 252.89 513.735 251.479 511.619C250.069 509.503 250.153 510.081 251.874 506.618C253.595 503.156 252.89 497.288 252.89 497.288C255.633 469.714 256.715 442 256.13 414.296C255.081 368.793 248.72 316.519 248.72 315.453C248.667 314.364 248.867 313.278 249.306 312.28V309.408L246.604 299.231L240.962 274.546Z" fill="#2F2E41"/>
<path d="M149.894 300.131C149.305 299.123 148.943 297.998 148.835 296.835C148.727 295.673 148.875 294.5 149.269 293.401C149.663 292.302 150.294 291.302 151.116 290.473C151.938 289.643 152.932 289.004 154.028 288.601L153.522 238.059L165.989 245.946L164.556 293.848C165.112 295.734 164.957 297.758 164.12 299.537C163.283 301.317 161.823 302.727 160.016 303.502C158.209 304.276 156.18 304.361 154.315 303.739C152.449 303.118 150.877 301.834 149.894 300.131Z" fill="#FFB8B8"/>
<path d="M152.74 278.944L153.801 278.893L153.928 278.896L157.854 278.882L164.32 278.869L164.789 278.862L164.999 278.902L167.207 279.286L167.298 278.694L171.601 270.474L174.91 265.924L173.706 260.562L171.332 257.605L175.364 252.719L175.874 250.306L179.248 234.436L190.434 181.797L190.435 181.765L190.67 180.649L194.308 163.548L193.187 159.248L191.939 154.527C191.14 151.53 189.288 148.921 186.722 147.178C185.609 146.424 184.383 145.852 183.091 145.482C181.444 144.994 179.714 144.851 178.009 145.063L177.99 145.069C177.022 145.189 176.072 145.419 175.156 145.754L174.792 145.896C174.285 146.102 173.792 146.339 173.315 146.607C171.837 147.429 170.538 148.536 169.493 149.865C168.447 151.193 167.676 152.717 167.225 154.346L155.372 167.549L153.287 175.02L152.617 177.419L150.468 190.209L150.5 240.542L150.118 242.822L149.574 255.458L151.7 258.355L149.298 261.866L149.216 263.794L149.2 264.29L152.407 267.547L152.612 274.572L152.74 278.944Z" fill="#3F3D56"/>
<path d="M164.319 291C182.079 294.072 193.989 292.902 201.319 282C210.881 269.824 228.27 284.201 242.941 289.547L244.681 287.667L247.641 284.477L244.921 281.397L247.641 275.457L245.371 268.127L242.471 267.597L243.251 261.287L244.471 257.597L240.891 253.667L237.851 243.857L240.041 223.327C243.038 195.186 237.231 166.808 223.421 142.107L215.111 134.647L211.661 131.547L207.031 122.907L202.141 123.477L188.901 125.007L188.451 126.087L185.201 133.927L173.395 146.609C171.725 148.403 170.456 150.531 169.673 152.854C168.89 155.176 168.61 157.638 168.852 160.077L169.191 163.497L169.441 165.957L170.621 177.797L175.431 226.167L175.792 228.737L179.661 256.547C173.371 262.627 172.989 261.3 170.319 272C170.019 273.19 166.539 275.84 166.319 277C166.009 278.64 164.319 291 164.319 291Z" fill="#3F3D56"/>
<path d="M200.38 117.81C213.08 117.81 223.376 107.514 223.376 94.8135C223.376 82.113 213.08 71.8173 200.38 71.8173C187.679 71.8173 177.384 82.113 177.384 94.8135C177.384 107.514 187.679 117.81 200.38 117.81Z" fill="#FFB6B6"/>
<path d="M176.321 77.5025C179.407 74.2886 184.338 72.7035 188.525 74.2285C189.461 71.5493 191.115 69.1783 193.305 67.3737C195.496 65.5691 198.139 64.4001 200.948 63.9939C203.757 63.5877 206.624 63.96 209.236 65.0701C211.848 66.1802 214.105 67.9857 215.762 70.2899C216.519 69.9496 217.352 69.8108 218.179 69.8868C219.006 69.9628 219.8 70.2511 220.483 70.7237C221.838 71.6879 222.931 72.9768 223.66 74.4725C225.54 78.0443 226.416 82.059 226.195 86.0894C225.975 90.1197 224.665 94.0149 222.407 97.3601C223.307 95.5429 220.776 98.6726 218.31 97.8526C216.192 97.2974 207.49 91.7178 205.319 91.9999C203.147 92.282 202.443 90.5309 200.319 89.9999C198.238 89.3345 192.927 97.9354 191.863 103.626C191.661 104.705 191.171 106.045 190.074 106.069C188.723 106.1 188.319 104.165 187.179 103.438C186.642 103.165 186.02 103.111 185.444 103.288C184.868 103.464 184.383 103.858 184.091 104.385C183.825 104.927 183.692 105.524 183.703 106.128C183.714 106.731 183.869 107.324 184.156 107.855C184.738 108.912 185.487 109.867 186.374 110.685L185.784 111.009C185.203 111.425 184.495 111.626 183.782 111.578C183.069 111.529 182.394 111.234 181.875 110.743C179.679 111.734 173.705 106.146 174.498 102.765C172.83 98.6212 171.918 94.2118 171.805 89.746C171.713 85.2415 173.326 80.8684 176.321 77.5025Z" fill="#2F2E41"/>
<path d="M345.011 214.577C343.898 214.928 342.72 215.031 341.563 214.878C340.405 214.725 339.295 214.319 338.311 213.691C337.327 213.062 336.492 212.226 335.866 211.24C335.24 210.254 334.838 209.142 334.688 207.984L285.299 197.242L295.76 186.841L342.145 198.886C344.107 198.763 346.046 199.364 347.595 200.576C349.144 201.787 350.194 203.524 350.548 205.459C350.901 207.393 350.533 209.389 349.512 211.07C348.492 212.751 346.89 213.999 345.011 214.577Z" fill="#FFB8B8"/>
<path d="M211.54 143.279C208.677 143.383 205.931 144.438 203.735 146.278C202.52 147.285 201.507 148.513 200.749 149.898C199.915 151.4 199.395 153.055 199.22 154.764L199.22 154.774C198.964 157.291 199.459 159.827 200.643 162.062C201.827 164.298 203.646 166.133 205.872 167.335L222.141 176.152L224.202 177.267C238.065 191.396 261.44 198.782 288.331 203.681L303.791 207.91L308.988 205.981L310.246 210.923L315.422 211.092L318.236 210.507L324.124 208.198L325.248 205.937L325.247 205.927L327.664 195.207L327.68 195.136L327.68 195.126L328.243 192.673L324.922 191.137L322.034 187.278L316.811 187.383L312.048 187.798L310.652 184.533L250.294 156.603L237.797 150.815L237.766 150.796L237.17 150.517L220.866 142.974L216.428 143.114L211.54 143.279Z" fill="#3F3D56"/>
<path d="M343.436 227.021C348.873 227.021 353.28 222.615 353.28 217.178C353.28 211.742 348.873 207.335 343.436 207.335C338 207.335 333.593 211.742 333.593 217.178C333.593 222.615 338 227.021 343.436 227.021Z" fill="#F9A826"/>
<path d="M61.2712 546.31C54.0498 546.947 46.7773 545.962 39.985 543.428C33.1928 540.895 27.0523 536.876 22.012 531.665C15.4215 524.716 10.8988 515.773 6.52493 507.123C5.25173 504.606 3.93565 502.004 2.59673 499.509C1.10398 496.79 0.45973 493.685 0.746979 490.596C1.03423 487.507 2.23981 484.575 4.20842 482.177C6.09495 479.78 8.65606 478.003 11.5617 477.075C14.4674 476.146 17.5845 476.109 20.5114 476.969L21.1497 477.153L26.8938 499.567C27.7508 496.224 29.5901 488.691 30.7516 481.311L30.8492 480.693L31.4212 480.948C37.419 483.601 43.0588 487 48.2075 491.063C57.3283 498.379 64.7466 507.593 69.9467 518.066C75.1467 528.538 78.0039 540.018 78.3196 551.706L78.3348 552.403L61.2712 546.31Z" fill="#F2F2F2"/>
<path d="M280.519 552.901L1.76894 553.208C1.45315 553.208 1.15028 553.083 0.926987 552.859C0.703691 552.636 0.578247 552.333 0.578247 552.017C0.578247 551.702 0.703691 551.399 0.926987 551.175C1.15028 550.952 1.45315 550.827 1.76894 550.827L280.519 550.519C280.834 550.52 281.136 550.646 281.359 550.869C281.581 551.092 281.706 551.395 281.706 551.71C281.706 552.025 281.581 552.328 281.359 552.551C281.136 552.774 280.834 552.9 280.519 552.901Z" fill="#CACACA"/>
<path d="M512.819 66.8206H459.819C458.625 66.8206 457.481 66.3464 456.637 65.5025C455.793 64.6586 455.319 63.514 455.319 62.3206C455.319 61.1271 455.793 59.9825 456.637 59.1386C457.481 58.2947 458.625 57.8206 459.819 57.8206H512.819C514.012 57.8206 515.157 58.2947 516.001 59.1386C516.845 59.9825 517.319 61.1271 517.319 62.3206C517.319 63.514 516.845 64.6586 516.001 65.5025C515.157 66.3464 514.012 66.8206 512.819 66.8206Z" fill="#E6E6E6"/>
<path d="M679.752 28.6071C677.573 28.6071 675.443 27.9609 673.631 26.7502C671.82 25.5396 670.407 23.8189 669.573 21.8056C668.74 19.7924 668.521 17.5771 668.946 15.4399C669.372 13.3027 670.421 11.3395 671.962 9.79867C673.503 8.25781 675.466 7.20848 677.603 6.78336C679.74 6.35824 681.955 6.57643 683.969 7.41033C685.982 8.24423 687.703 9.6564 688.913 11.4683C690.124 13.2801 690.77 15.4103 690.77 17.5894C690.77 20.5114 689.609 23.3138 687.543 25.38C685.477 27.4463 682.675 28.6071 679.752 28.6071Z" fill="#E6E6E6"/>
</g>
<defs>
<clipPath id="clip0_27_9717">
<rect width="702.74" height="553.208" fill="white" transform="translate(0.578247)"/>
</clipPath>
</defs>
</svg>
