<svg width="834" height="684" viewBox="0 0 834 684" fill="none" xmlns="http://www.w3.org/2000/svg">
<g clip-path="url(#clip0_31_10959)">
<path d="M112.315 159.03C90.0387 159.039 80.4694 191.294 58.6696 195.877C48.9333 197.925 38.9993 193.849 29.0516 193.673C19.1039 193.497 7.20498 200.72 9.30703 210.444L198.956 207.585C179.354 205.55 161.018 196.937 146.936 183.149C136.657 172.926 126.811 159.024 112.315 159.03Z" fill="#F0F0F0"/>
<path d="M547.303 497.443C519.591 497.44 492.778 487.61 471.631 469.7C450.484 451.79 436.374 426.961 431.809 399.628L431.772 399.402L431.918 399.226C439.409 390.256 445.464 380.179 449.868 369.354C444.627 376.071 438.297 381.861 431.14 386.483L430.406 386.972L430.364 386.091C430.27 384.151 430.223 382.224 430.223 380.363C430.158 360.454 435.199 340.862 444.866 323.457C454.533 306.053 468.502 291.418 485.438 280.952C455.8 250.196 439.278 209.124 439.364 166.412C439.364 75.1737 513.607 0.945478 604.864 0.945478C639.658 0.896281 673.579 11.8315 701.793 32.1924C730.007 52.5533 751.074 81.3008 761.991 114.338L762.139 114.782L761.704 114.958C750.437 119.52 740.067 121.712 730.148 121.605C741.452 124.806 753.186 126.225 764.927 125.81L765.331 125.796L765.429 126.189C768.709 139.345 770.367 152.853 770.364 166.412C770.364 166.902 770.362 167.391 770.358 167.879C770.326 178.422 772.516 188.854 776.786 198.493C781.056 208.133 787.309 216.765 795.138 223.826C807.646 235.205 817.54 249.159 824.139 264.727C830.739 280.296 833.887 297.109 833.368 314.01C832.849 330.912 828.675 347.5 821.132 362.634C813.59 377.768 802.858 391.088 789.676 401.678L789.436 401.871L789.156 401.744C771.846 393.89 759.791 385.123 751.581 374.36C757.132 387.913 765.226 400.279 775.426 410.79L775.87 411.248L775.32 411.57C757.822 421.762 737.983 427.246 717.735 427.486C697.487 427.727 677.522 422.717 659.788 412.944C652.665 437.279 637.862 458.658 617.588 473.887C597.315 489.117 572.659 497.38 547.303 497.443Z" fill="#F9A826"/>
<path d="M505.592 683.935C505.08 683.935 504.585 683.75 504.199 683.414C503.813 683.078 503.56 682.615 503.488 682.108C503.398 681.473 494.546 617.63 502.496 532.779C509.838 454.418 533.417 341.55 604.049 248.853C604.218 248.631 604.43 248.444 604.671 248.303C604.913 248.162 605.179 248.07 605.456 248.033C605.733 247.995 606.015 248.013 606.285 248.084C606.556 248.156 606.809 248.279 607.031 248.449C607.254 248.618 607.441 248.83 607.581 249.071C607.722 249.313 607.813 249.58 607.85 249.857C607.888 250.134 607.87 250.416 607.798 250.686C607.727 250.956 607.603 251.21 607.433 251.432C537.411 343.328 514.022 455.368 506.732 533.176C498.828 617.533 507.611 680.878 507.7 681.508C507.743 681.81 507.72 682.118 507.634 682.41C507.547 682.702 507.399 682.973 507.199 683.203C506.999 683.433 506.752 683.617 506.475 683.744C506.198 683.87 505.896 683.935 505.592 683.935Z" fill="#3F3D56"/>
<path d="M540.9 371.424C540.451 371.424 540.013 371.282 539.649 371.018C539.286 370.754 539.015 370.382 538.876 369.955C538.737 369.528 538.737 369.067 538.875 368.64C539.014 368.212 539.285 367.84 539.648 367.576C539.904 367.39 565.744 348.771 604.373 334.627C640.083 321.554 694.385 309.701 750.289 327.493C750.555 327.578 750.802 327.714 751.016 327.894C751.23 328.074 751.406 328.295 751.535 328.543C751.663 328.791 751.742 329.062 751.765 329.341C751.789 329.619 751.757 329.9 751.673 330.166C751.588 330.432 751.452 330.679 751.271 330.893C751.091 331.107 750.87 331.283 750.622 331.411C750.374 331.539 750.102 331.617 749.824 331.641C749.545 331.664 749.265 331.632 748.999 331.547C694.241 314.121 640.923 325.777 605.836 338.623C567.758 352.565 542.401 370.835 542.149 371.017C541.786 371.282 541.349 371.424 540.9 371.424Z" fill="#3F3D56"/>
<path d="M111.805 625.964L118.993 628.214L167.225 474.088C165.253 473.586 163.163 473.858 161.385 474.849C159.608 475.84 158.277 477.474 157.666 479.415L111.805 625.964Z" fill="#3F3D56"/>
<path d="M270.325 424.916H238.528V331.455H270.325C276.408 331.462 282.24 333.881 286.542 338.183C290.843 342.484 293.263 348.316 293.27 354.4V401.971C293.263 408.055 290.843 413.887 286.542 418.188C282.24 422.49 276.408 424.909 270.325 424.916Z" fill="#2F2E41"/>
<path d="M265.899 374.848C264.837 374.846 263.819 374.424 263.068 373.673C262.317 372.922 261.895 371.904 261.894 370.842V336.128H269.905V370.842C269.903 371.904 269.481 372.922 268.73 373.673C267.979 374.424 266.961 374.846 265.899 374.848Z" fill="#3F3D56"/>
<path d="M275.529 417.573H252.264C250.923 417.571 249.637 417.038 248.69 416.09C247.742 415.142 247.208 413.856 247.207 412.516V398.597C247.208 397.256 247.742 395.971 248.69 395.023C249.637 394.075 250.923 393.541 252.264 393.54H275.529C276.87 393.541 278.155 394.075 279.103 395.023C280.051 395.971 280.584 397.256 280.586 398.597V412.516C280.584 413.856 280.051 415.142 279.103 416.09C278.155 417.038 276.87 417.571 275.529 417.573Z" fill="#3F3D56"/>
<path d="M204.969 661.872H194.078L188.897 619.865H204.971L204.969 661.872Z" fill="#FFB6B6"/>
<path d="M210.829 682.552H203.101L201.721 675.255L198.188 682.552H177.692C176.709 682.552 175.752 682.238 174.961 681.656C174.17 681.073 173.585 680.253 173.293 679.315C173 678.377 173.015 677.371 173.336 676.442C173.656 675.513 174.265 674.711 175.073 674.153L191.441 662.848V655.472L208.658 656.5L210.829 682.552Z" fill="#2F2E41"/>
<path d="M298.774 653.652L288.734 657.873L267.675 621.158L282.493 614.929L298.774 653.652Z" fill="#FFB6B6"/>
<path d="M312.19 670.445L305.066 673.44L300.967 667.249L300.538 675.344L281.644 683.289C280.738 683.67 279.734 683.751 278.779 683.521C277.824 683.291 276.967 682.762 276.334 682.011C275.701 681.259 275.325 680.325 275.26 679.345C275.195 678.365 275.446 677.389 275.975 676.561L286.681 659.796L283.822 652.997L300.091 647.271L312.19 670.445Z" fill="#2F2E41"/>
<path d="M199.88 375.775L196.759 417.586L176.061 480.028L167.748 475.196L179.026 411.692L182.856 375.058L199.88 375.775Z" fill="#FFB6B6"/>
<path d="M171.233 489.135C176.044 489.135 179.944 485.235 179.944 480.423C179.944 475.612 176.044 471.712 171.233 471.712C166.421 471.712 162.521 475.612 162.521 480.423C162.521 485.235 166.421 489.135 171.233 489.135Z" fill="#FFB6B6"/>
<path d="M193.709 430.911L259.96 433.347L260.421 432.642C260.421 432.642 266.072 446.496 266.072 458.371C266.072 462.319 263.459 488.142 264.787 493.028C264.953 493.636 263.816 495.125 264.189 497.954C264.431 499.79 265.765 498.378 266.072 500.923C266.293 502.749 263.943 503.758 264.189 505.871C264.457 508.179 267.689 515.656 267.98 518.224C271.078 545.562 275.202 585.167 275.202 585.167C275.202 585.167 291.766 631.779 295.27 632.537C301.151 633.807 305.122 645.043 301.863 647.38C300.311 648.493 280.252 655.978 280.252 655.978C279.15 656.188 275.702 654.371 277.899 650.074C278.303 649.283 275.892 651.296 275.491 650.349C275.065 649.342 275.901 645.335 275.413 644.217C271.03 634.179 264.299 620.27 257.921 613.127C248.497 602.574 242.529 589.133 240.888 574.766L226.259 489.538L221.245 513.438L217.096 517.746L218.234 527.789L218.038 537.537L207.678 578.11C207.678 578.11 206.124 653.88 208.619 656.286C209.971 657.59 215.706 673.641 204.852 675.088L185.131 673.49C185.131 673.49 182.474 667.607 183.803 665.513C185.131 663.419 185.052 663.99 183.431 660.564C181.81 657.137 182.474 651.331 182.474 651.331C179.891 624.044 178.872 596.619 179.422 569.203C180.411 524.175 186.402 472.446 186.402 471.392C186.452 470.314 186.263 469.239 185.85 468.252V465.409L188.394 455.339L193.709 430.911Z" fill="#2F2E41"/>
<path d="M272.067 343.985L249.431 333.386L242.897 322L220.926 323.246L214.278 334.099L194.722 338.061L197.596 408.743C196.316 410.959 195.859 413.557 196.308 416.077C196.994 420.507 200.478 417.022 196.994 420.507C193.509 423.992 190.882 422.24 192.631 425.294C194.38 428.348 190.079 433.108 190.079 433.108C190.079 433.108 245.709 461.443 261.425 425.294C261.425 425.294 264.523 414.72 259.289 392.568C254.055 370.415 272.067 343.985 272.067 343.985Z" fill="#E4E4E4"/>
<path d="M201.149 342.562L194.722 338.061C194.722 338.061 185.832 341.71 185.533 349.093C185.233 356.477 180.123 378.572 180.123 378.572L200.417 389.481L201.149 342.562Z" fill="#E4E4E4"/>
<path d="M277.413 379.26L274.293 421.07L239.655 473.059L231.343 468.227L256.559 415.177L260.389 378.543L277.413 379.26Z" fill="#FFB6B6"/>
<path d="M261.479 346.349L272.067 343.985C272.067 343.985 278.447 346.023 279.319 355.605C280.19 365.188 280.92 381.866 280.92 381.866L258.7 398.207L253.184 374.771L261.479 346.349Z" fill="#E4E4E4"/>
<path d="M233.956 482.166C238.768 482.166 242.668 478.266 242.668 473.454C242.668 468.643 238.768 464.743 233.956 464.743C229.145 464.743 225.245 468.643 225.245 473.454C225.245 478.266 229.145 482.166 233.956 482.166Z" fill="#FFB6B6"/>
<path d="M233.2 317.669C220.018 317.669 209.333 307.37 209.333 294.666C209.333 281.963 220.018 271.664 233.2 271.664C246.382 271.664 257.068 281.963 257.068 294.666C257.068 307.37 246.382 317.669 233.2 317.669Z" fill="#FFB6B6"/>
<path d="M257.821 276.999C254.712 273.664 249.747 272.019 245.531 273.602C244.588 270.822 242.923 268.362 240.718 266.49C238.512 264.617 235.85 263.404 233.021 262.983C230.193 262.561 227.306 262.948 224.676 264.099C222.046 265.251 219.773 267.124 218.105 269.515C217.342 269.162 216.503 269.018 215.67 269.097C214.838 269.176 214.039 269.475 213.351 269.965C211.986 270.966 210.886 272.303 210.152 273.855C208.259 277.561 207.376 281.726 207.598 285.908C207.82 290.089 209.139 294.131 211.413 297.602C210.507 295.716 213.055 298.963 215.538 298.113C217.672 297.537 226.434 291.748 228.621 292.04C230.807 292.333 231.516 290.516 233.655 289.965C235.75 289.275 241.099 298.199 242.17 304.103C242.374 305.222 242.867 306.612 243.971 306.638C245.332 306.669 245.739 304.662 246.886 303.908C247.427 303.625 248.054 303.569 248.634 303.752C249.214 303.935 249.702 304.343 249.996 304.89C250.264 305.452 250.398 306.072 250.387 306.699C250.376 307.325 250.219 307.939 249.931 308.491C249.345 309.587 248.59 310.578 247.697 311.426L248.291 311.763C248.877 312.195 249.589 312.403 250.307 312.353C251.026 312.303 251.704 311.997 252.228 311.487C254.439 312.516 260.454 306.718 259.656 303.21C261.335 298.91 262.254 294.335 262.368 289.702C262.46 285.028 260.836 280.491 257.821 276.999Z" fill="#2F2E41"/>
<path d="M258.827 397.277C253.372 392.144 251.027 384.695 250.99 377.339C250.947 368.938 253.988 360.959 257.92 353.654C260.299 349.237 263.009 345.009 265.721 340.792C266.633 339.373 264.372 338.061 263.464 339.472C254.289 353.743 244.186 370.645 250.102 388.182C251.46 392.34 253.822 396.099 256.979 399.125C258.204 400.277 260.055 398.433 258.827 397.277Z" fill="#3F3D56"/>
<path d="M111.944 553.23C107.449 551.812 102.645 551.692 98.0848 552.882C98.0741 552.888 98.0663 552.885 98.056 552.891C94.5215 553.809 91.2266 555.479 88.3958 557.786C88.2314 557.918 88.0752 558.054 87.9186 558.189C84.3319 561.265 81.6839 565.29 80.2777 569.801L60.8835 631.775C59.4408 636.362 59.3422 641.267 60.5994 645.908C60.6754 646.169 60.7516 646.429 60.8279 646.69C61.7693 649.765 63.2844 652.634 65.2932 655.146C65.3057 655.159 65.3158 655.174 65.323 655.19C68.4587 659.083 72.6817 661.956 77.4546 663.441L114.032 674.888L148.522 564.676L111.944 553.23Z" fill="#F9A826"/>
<path d="M169.621 474.838L122.513 625.37C122.365 625.842 122.312 626.338 122.355 626.831C122.399 627.324 122.54 627.804 122.769 628.242C122.998 628.68 123.312 629.069 123.691 629.387C124.071 629.704 124.509 629.943 124.982 630.091C125.454 630.239 125.951 630.292 126.443 630.248C126.936 630.204 127.415 630.063 127.854 629.833C128.292 629.604 128.681 629.29 128.998 628.91C129.315 628.53 129.554 628.091 129.701 627.619L174.438 484.664C175.043 482.721 174.881 480.619 173.985 478.792C173.09 476.964 171.528 475.549 169.621 474.838Z" fill="#3F3D56"/>
<path d="M110.869 683.145C114.594 683.145 117.613 680.126 117.613 676.401C117.613 672.676 114.594 669.657 110.869 669.657C107.144 669.657 104.125 672.676 104.125 676.401C104.125 680.126 107.144 683.145 110.869 683.145Z" fill="#3F3D56"/>
<path d="M66.9444 669.399C70.6691 669.399 73.6886 666.38 73.6886 662.655C73.6886 658.93 70.6691 655.911 66.9444 655.911C63.2196 655.911 60.2001 658.93 60.2001 662.655C60.2001 666.38 63.2196 669.399 66.9444 669.399Z" fill="#3F3D56"/>
<path d="M98.0849 552.882C91.0997 574.783 72.8015 632.05 65.323 655.19C65.3159 655.174 65.3058 655.159 65.2932 655.146C63.2844 652.634 61.7693 649.765 60.828 646.69C60.7519 646.429 60.6758 646.169 60.5995 645.908C68.6178 620.762 82.0474 578.351 87.9187 558.189C88.0753 558.054 88.2315 557.918 88.3959 557.786C91.2267 555.479 94.5216 553.809 98.0561 552.891C98.0664 552.885 98.0742 552.888 98.0849 552.882Z" fill="#3F3D56"/>
<path d="M649.195 683.586H1.90379C1.5886 683.585 1.28664 683.459 1.06409 683.236C0.841535 683.012 0.716553 682.71 0.716553 682.395C0.716553 682.08 0.841535 681.777 1.06409 681.554C1.28664 681.331 1.5886 681.205 1.90379 681.204H649.195C649.511 681.205 649.813 681.331 650.035 681.554C650.258 681.777 650.383 682.08 650.383 682.395C650.383 682.71 650.258 683.012 650.035 683.236C649.813 683.459 649.511 683.585 649.195 683.586Z" fill="#CACACA"/>
<path d="M314.935 59.1493C304.657 48.9269 294.81 35.0245 280.314 35.0304C258.038 35.0395 248.469 67.2944 226.669 71.878C216.933 73.9252 206.999 69.8498 197.051 69.6735C187.103 69.4972 175.204 76.7203 177.306 86.4449L366.956 83.5858C347.353 81.5504 329.017 72.9372 314.935 59.1493Z" fill="#F0F0F0"/>
<path d="M737.313 16.4957C715.036 16.5048 705.467 48.7596 683.667 53.3432C673.931 55.3904 663.997 51.3151 654.049 51.1387C644.102 50.9625 632.203 58.1855 634.305 67.9102L823.954 65.0511C804.351 63.0157 786.015 54.4024 771.934 40.6145C761.655 30.3921 751.809 16.4897 737.313 16.4957Z" fill="#F0F0F0"/>
</g>
<defs>
<clipPath id="clip0_31_10959">
<rect width="832.71" height="682.99" fill="white" transform="translate(0.713135 0.945374)"/>
</clipPath>
</defs>
</svg>
