<svg width="506" height="597" viewBox="0 0 506 597" fill="none" xmlns="http://www.w3.org/2000/svg">
<g clip-path="url(#clip0_27_9545)">
<path d="M359.466 500.945L364.466 596.945C364.466 596.945 152.972 395.651 126.624 336.754C100.275 277.858 149.872 132.167 149.872 132.167L259.916 192.613L359.466 500.945Z" fill="#9F616A"/>
<path d="M35.1793 91.8691L2.63129 94.9689C2.63129 94.9689 -14.4177 132.167 38.2791 135.267L35.1793 91.8691Z" fill="#9F616A"/>
<path d="M35.1793 149.216L2.63129 152.315C2.63129 152.315 -14.4177 189.513 38.2791 192.613L35.1793 149.216Z" fill="#9F616A"/>
<path d="M35.1793 211.212L2.63129 214.312C2.63129 214.312 -14.4177 251.509 38.2791 254.609L35.1793 211.212Z" fill="#9F616A"/>
<path d="M44.4788 273.208L11.9309 276.308C11.9309 276.308 -5.11816 313.506 47.5787 316.605L44.4788 273.208Z" fill="#9F616A"/>
<path d="M19.3335 106.813H21.8032V39.1572C21.8032 34.015 22.816 28.9232 24.7838 24.1724C26.7516 19.4217 29.6359 15.105 33.272 11.4689C36.9081 7.83282 41.2247 4.94852 45.9755 2.98068C50.7263 1.01284 55.8181 3.93973e-06 60.9603 0H204.298C209.44 -1.05057e-05 214.532 1.01281 219.283 2.98064C224.033 4.94846 228.35 7.83275 231.986 11.4688C235.622 15.1049 238.507 19.4215 240.474 24.1723C242.442 28.9231 243.455 34.0149 243.455 39.1571V410.321C243.455 415.463 242.442 420.555 240.474 425.306C238.507 430.056 235.622 434.373 231.986 438.009C228.35 441.645 224.034 444.53 219.283 446.497C214.532 448.465 209.44 449.478 204.298 449.478H60.9605C50.5754 449.478 40.6156 445.353 33.2722 438.009C25.9287 430.666 21.8032 420.706 21.8032 410.321V154.971H19.3335V106.813Z" fill="#3F3D56"/>
<path d="M59.3806 10.1874H78.0909C77.2305 12.2969 76.902 14.5857 77.1345 16.852C77.367 19.1184 78.1532 21.2928 79.424 23.1837C80.6948 25.0746 82.4111 26.6239 84.4217 27.6953C86.4323 28.7666 88.6756 29.3271 90.9538 29.3273H173.07C175.348 29.3271 177.591 28.7666 179.602 27.6953C181.613 26.6239 183.329 25.0746 184.6 23.1837C185.871 21.2928 186.657 19.1184 186.889 16.852C187.122 14.5856 186.793 12.2969 185.933 10.1874H203.408C211.164 10.1874 218.602 13.2682 224.086 18.7522C229.57 24.2361 232.651 31.674 232.651 39.4295V410.049C232.651 413.889 231.894 417.691 230.425 421.239C228.955 424.787 226.801 428.011 224.086 430.726C221.37 433.441 218.147 435.595 214.599 437.065C211.051 438.534 207.249 439.291 203.408 439.291H59.3806C55.5405 439.291 51.7379 438.534 48.1901 437.065C44.6423 435.595 41.4187 433.441 38.7033 430.726C35.9879 428.011 33.8339 424.787 32.3643 421.239C30.8948 417.691 30.1384 413.889 30.1384 410.049V39.4295C30.1384 35.5894 30.8948 31.7869 32.3643 28.239C33.8339 24.6912 35.9879 21.4676 38.7033 18.7522C41.4187 16.0368 44.6423 13.8829 48.1901 12.4133C51.7379 10.9438 55.5405 10.1874 59.3806 10.1874Z" fill="white"/>
<path d="M162.252 114.016H100.537V128.909H162.252V114.016Z" fill="#F9A826"/>
<path d="M165.19 178.009H97.5986V192.901H165.19V178.009Z" fill="#E5E5E5"/>
<path d="M206.823 210H55.9653V224.892H206.823V210Z" fill="#E5E5E5"/>
<path d="M206.823 241.99H55.9653V256.883H206.823V241.99Z" fill="#E5E5E5"/>
<path d="M505.466 550.945L331.986 353.028L325.787 225.936L260.691 117.442L242.092 70.9453C242.092 70.9453 198.694 75.595 234.342 163.94L249.066 211.212C235.794 239.799 228.917 270.938 228.917 302.456V410.779C228.917 436.286 350.467 575.222 364.616 596.445L505.466 550.945Z" fill="#9F616A"/>
<path opacity="0.2" d="M247.195 126.636L260.136 120.276L259.695 119.378L247.738 125.255L229.688 77.932L228.754 78.289L247.195 126.636Z" fill="black"/>
<path opacity="0.2" d="M2.80469 94.4982L2.45898 95.4366L21.6298 102.499L21.9755 101.56L2.80469 94.4982Z" fill="black"/>
<path opacity="0.2" d="M2.80469 152.498L2.45898 153.437L21.6298 160.499L21.9755 159.56L2.80469 152.498Z" fill="black"/>
<path opacity="0.2" d="M2.80469 214.498L2.45898 215.437L21.6298 222.499L21.9755 221.56L2.80469 214.498Z" fill="black"/>
<path opacity="0.2" d="M12.8484 276.517L12.4158 277.418L21.7493 281.898L22.1819 280.996L12.8484 276.517Z" fill="black"/>
<path d="M131.471 385.405C155.346 385.405 174.701 366.051 174.701 342.175C174.701 318.3 155.346 298.945 131.471 298.945C107.595 298.945 88.2407 318.3 88.2407 342.175C88.2407 366.051 107.595 385.405 131.471 385.405Z" fill="#F9A826"/>
<path d="M127.351 360.424L114.413 343.787L121.937 337.935L128.063 345.812L148.76 323.964L155.681 330.521L127.351 360.424Z" fill="white"/>
</g>
<defs>
<clipPath id="clip0_27_9545">
<rect width="505.466" height="596.945" fill="white"/>
</clipPath>
</defs>
</svg>
