<svg width="861" height="573" viewBox="0 0 861 573" fill="none" xmlns="http://www.w3.org/2000/svg">
<g clip-path="url(#clip0_27_9832)">
<path d="M436.608 161.487C428.939 148.802 419.851 135.259 405.618 131.117C389.136 126.32 372.205 135.849 357.844 145.251C314.894 173.372 273.533 203.846 233.95 236.535L233.993 237.027C264.811 234.902 295.628 232.777 326.445 230.651C348.71 229.116 371.74 227.369 391.416 216.836C398.883 212.839 406.161 207.5 414.622 207.128C425.134 206.666 434.299 214.007 441.502 221.677C484.11 267.048 496.439 336.431 544.24 376.293C514.098 301.958 478.108 230.131 436.608 161.487Z" fill="#F2F2F2"/>
<path d="M698.509 546.315C693.797 540.365 691.872 538.972 687.224 532.967C649.381 484.023 613.812 433.426 580.516 381.175C557.901 345.688 536.406 309.52 516.034 272.671C506.334 255.152 496.901 237.496 487.734 219.702C480.62 205.905 473.665 192.026 466.869 178.064C464.926 174.076 463.037 170.07 461.158 166.055C456.73 156.612 452.385 147.124 447.719 137.81C442.402 127.195 435.93 116.065 426.166 108.933C421.723 105.554 416.41 103.51 410.848 103.039C402.9 102.525 395.566 105.807 388.672 109.392C338.233 135.693 291.013 168.667 248.302 206.189C205.482 243.795 167.208 286.281 134.26 332.781C133.252 334.22 130.869 332.845 131.886 331.396C135.893 325.731 139.978 320.127 144.143 314.584C195.932 245.706 259.433 186.475 331.743 139.598C343.908 131.714 356.302 124.2 368.925 117.055C375.288 113.453 381.677 109.896 388.177 106.559C394.548 103.286 401.314 100.343 408.592 100.233C433.363 99.8484 446.188 127.9 454.997 146.776C457.766 152.716 460.568 158.638 463.404 164.542C474.12 186.956 485.249 209.166 496.791 231.17C503.914 244.756 511.193 258.263 518.628 271.69C541.766 313.502 566.359 354.467 592.406 394.587C626.912 447.73 661.143 494.675 700.452 544.371C701.534 545.747 699.6 547.708 698.509 546.315Z" fill="#E4E4E4"/>
<path d="M245.854 192.337C244.415 190.733 242.985 189.129 241.536 187.525C230.114 174.892 217.858 162.406 202.172 155.164C194.693 151.602 186.529 149.709 178.245 149.618C169.683 149.645 161.313 151.891 153.402 155.036C149.662 156.53 146.004 158.226 142.401 160.032C138.285 162.104 134.242 164.313 130.218 166.541C122.664 170.721 115.208 175.085 107.85 179.631C93.2095 188.68 79.0276 198.418 65.3042 208.848C58.1901 214.256 51.2229 219.842 44.4025 225.606C38.0588 230.959 31.8434 236.457 25.7563 242.098C24.4546 243.298 22.511 241.355 23.8127 240.154C25.417 238.66 27.0396 237.175 28.6623 235.708C33.2459 231.564 37.903 227.5 42.6335 223.515C51.2596 216.237 60.1091 209.239 69.182 202.522C83.2906 192.072 97.8849 182.33 112.965 173.297C120.501 168.787 128.14 164.466 135.883 160.334C138.221 159.088 140.586 157.868 142.979 156.713C148.408 153.975 154.049 151.679 159.847 149.847C168.06 147.19 176.749 146.336 185.323 147.344C193.6 148.548 201.576 151.307 208.828 155.476C224.229 164.084 236.173 177.395 247.798 190.385C248.971 191.705 247.037 193.657 245.854 192.337Z" fill="#E4E4E4"/>
<path d="M561.415 323.244L598.319 309.746L616.643 303.045C622.61 300.862 628.563 298.377 634.732 296.814C640.094 295.283 645.786 295.355 651.106 297.023C655.851 298.779 660.194 301.471 663.877 304.939C667.64 308.405 671.141 312.144 674.352 316.126C678.341 320.92 682.272 325.765 686.22 330.593C702.514 350.52 718.702 370.534 734.783 390.634C750.863 410.734 766.837 430.92 782.702 451.19C798.607 471.511 814.402 491.916 830.088 512.406C832.009 514.916 833.929 517.428 835.848 519.94C836.907 521.328 839.297 519.96 838.222 518.552C822.421 497.856 806.509 477.244 790.487 456.717C774.426 436.142 758.254 415.653 741.971 395.252C725.688 374.851 709.295 354.538 692.792 334.314C688.681 329.276 684.563 324.243 680.438 319.216C676.958 314.975 673.518 310.688 669.702 306.741C662.696 299.496 653.944 293.093 643.467 292.92C637.308 292.818 631.346 294.772 625.623 296.843C619.454 299.075 613.299 301.348 607.137 303.602L569.974 317.194L560.684 320.592C559.035 321.195 559.747 323.854 561.415 323.244Z" fill="#E4E4E4"/>
<path d="M197.315 171.06C178.561 161.421 154.544 163.309 137.31 175.351C170.182 181.022 202.695 188.61 234.681 198.077C221.398 190.293 211.008 178.097 197.315 171.06Z" fill="#F2F2F2"/>
<path d="M137.126 175.318L133.515 178.252C134.737 177.225 136.006 176.262 137.31 175.351C137.249 175.34 137.187 175.328 137.126 175.318Z" fill="#F2F2F2"/>
<path d="M662.487 323.379C658.855 318.957 654.927 314.327 649.493 312.531L644.42 312.731C683.038 380.97 735.194 440.597 797.687 487.952C752.621 433.094 707.554 378.237 662.487 323.379Z" fill="#F2F2F2"/>
<path d="M347.022 286.9C349.37 295.429 354.659 302.853 361.953 307.859C364.773 309.779 368.11 311.621 369.075 314.893C369.582 316.979 369.269 319.181 368.201 321.043C367.135 322.882 365.837 324.576 364.34 326.085L364.203 326.597C357.205 322.449 350.547 317.203 346.681 310.045C342.815 302.888 342.275 293.506 347.022 286.9Z" fill="#F2F2F2"/>
<path d="M580.022 489.9C582.37 498.429 587.659 505.853 594.953 510.859C597.773 512.779 601.11 514.621 602.075 517.893C602.582 519.979 602.269 522.181 601.201 524.043C600.135 525.882 598.837 527.576 597.34 529.085L597.203 529.597C590.205 525.449 583.547 520.203 579.681 513.045C575.815 505.888 575.275 496.507 580.022 489.9Z" fill="#F2F2F2"/>
<path d="M115.022 475.9C117.37 484.429 122.659 491.853 129.953 496.859C132.773 498.779 136.11 500.621 137.075 503.893C137.582 505.979 137.27 508.181 136.201 510.043C135.135 511.882 133.837 513.576 132.34 515.085L132.203 515.597C125.205 511.449 118.547 506.203 114.681 499.045C110.815 491.888 110.275 482.507 115.022 475.9Z" fill="#F2F2F2"/>
<path d="M650.121 102.959C678.288 102.959 701.121 80.126 701.121 51.9595C701.121 23.7929 678.288 0.959473 650.121 0.959473C621.955 0.959473 599.121 23.7929 599.121 51.9595C599.121 80.126 621.955 102.959 650.121 102.959Z" fill="#F9A826"/>
<path d="M742.157 12.8298C717.44 9.4889 689.221 22.8485 682.815 46.9534C681.201 42.6675 678.266 39.0059 674.434 36.4974C670.602 33.9889 666.072 32.7635 661.498 32.9982C656.925 33.2329 652.544 34.9156 648.989 37.8031C645.434 40.6906 642.889 44.6335 641.722 49.0621L644.552 51.0887C697.519 62.543 752.349 62.2951 805.21 50.3624C788.017 32.2934 766.873 16.1707 742.157 12.8298Z" fill="#F0F0F0"/>
<path d="M636.157 80.8298C611.44 77.4889 583.221 90.8485 576.815 114.953C575.201 110.668 572.266 107.006 568.434 104.497C564.602 101.989 560.072 100.764 555.498 100.998C550.925 101.233 546.544 102.916 542.989 105.803C539.434 108.691 536.889 112.633 535.722 117.062L538.552 119.089C591.519 130.543 646.349 130.295 699.21 118.362C682.017 100.293 660.873 84.1707 636.157 80.8298Z" fill="#F0F0F0"/>
<path d="M851.884 93.6877C851.781 93.6879 851.679 93.6721 851.582 93.6408C587.175 10.0227 354.138 20.9572 205.202 44.8547C184.933 48.1057 164.611 51.8605 144.798 56.0158C139.74 57.0754 134.493 58.2111 129.201 59.3937C122.883 60.801 116.648 62.2502 110.669 63.6994C108.087 64.3108 105.556 64.927 103.075 65.5481C99.3162 66.4758 95.5028 67.4426 91.4149 68.505C86.847 69.6828 82.2059 70.9181 77.6175 72.1769C77.6007 72.1828 77.5836 72.1877 77.5662 72.1916L77.5667 72.1926C72.3841 73.6076 67.2288 75.0637 62.2435 76.5178C59.5452 77.2971 56.9398 78.0656 54.4442 78.8244C54.1654 78.9016 53.9183 78.9758 53.6678 79.052L53.1317 79.215C52.8211 79.3098 52.5145 79.4025 52.2078 79.4904L52.1883 79.4963L52.1888 79.4973L51.3773 79.7493C50.4095 80.0423 49.4652 80.3284 48.5364 80.6135C23.9915 88.18 10.4984 93.5628 10.3651 93.6155C10.2432 93.6644 10.1128 93.6887 9.98153 93.6872C9.85021 93.6857 9.72048 93.6583 9.59974 93.6067C9.47899 93.5551 9.3696 93.4802 9.27781 93.3862C9.18602 93.2923 9.11362 93.1812 9.06476 93.0593C9.0159 92.9374 8.99154 92.8071 8.99305 92.6758C8.99455 92.5445 9.02191 92.4148 9.07355 92.294C9.1252 92.1733 9.20011 92.0639 9.29403 91.9721C9.38794 91.8803 9.49902 91.8079 9.62092 91.759C9.7552 91.7063 23.3143 86.2962 47.9486 78.7014C48.8807 78.4153 49.8275 78.1292 50.7982 77.8352L51.5521 77.6008C51.5779 77.5911 51.6038 77.5833 51.6302 77.5755C51.9354 77.4885 52.2401 77.3958 52.5496 77.302L53.0867 77.1389C53.3543 77.0579 53.618 76.9778 53.888 76.9036C56.3665 76.1497 58.9808 75.3792 61.6859 74.5969C66.6732 73.1419 71.8333 71.6858 77.0199 70.2688C77.036 70.263 77.0526 70.259 77.0687 70.2542C81.6732 68.9915 86.3314 67.7502 90.9139 66.5686C95.0081 65.5051 98.8289 64.5364 102.594 63.6067C105.085 62.9866 107.622 62.3691 110.203 61.7542C116.188 60.303 122.436 58.8518 128.766 57.4417C134.065 56.2581 139.322 55.1194 144.388 54.0588C164.231 49.8967 184.586 46.136 204.885 42.8801C354.034 18.9485 587.406 7.99628 852.184 91.7346C852.412 91.8064 852.607 91.9574 852.733 92.1602C852.859 92.3629 852.908 92.6041 852.872 92.8401C852.835 93.0761 852.716 93.2913 852.534 93.4467C852.353 93.6022 852.122 93.6877 851.884 93.6877Z" fill="#CCCCCC"/>
<path d="M263.861 420.799C263.515 419.787 262.932 418.872 262.161 418.129C261.877 417.866 261.569 417.628 261.241 417.419C258.631 415.679 254.731 415.289 252.251 417.419C252.001 417.636 251.771 417.874 251.561 418.129C250.821 419.039 250.061 419.929 249.281 420.799C248.001 422.259 246.691 423.669 245.321 425.039C244.931 425.419 244.541 425.809 244.141 426.189C243.911 426.419 243.681 426.639 243.451 426.859C242.571 427.699 241.671 428.509 240.761 429.309C240.281 429.739 239.801 430.159 239.311 430.569C238.581 431.179 237.851 431.789 237.111 432.379C237.041 432.429 236.971 432.479 236.901 432.539C236.881 432.549 236.871 432.57 236.851 432.58C236.841 432.58 236.831 432.579 236.821 432.599C236.794 432.61 236.77 432.627 236.751 432.65C236.531 432.8 236.381 432.899 236.271 432.989C236.311 432.97 236.351 432.939 236.391 432.919C236.211 433.059 236.021 433.2 235.841 433.34C234.091 434.63 232.301 435.869 230.471 437.029C225.944 439.927 221.188 442.452 216.251 444.579C215.921 444.709 215.581 444.849 215.241 444.979C202.316 450.275 188.295 452.341 174.391 450.999C172.971 450.889 171.551 450.739 170.131 450.549C168.491 450.309 166.861 450.019 165.241 449.689C159.074 448.459 153.039 446.637 147.221 444.249C139.943 440.917 133.021 436.856 126.561 432.129C125.561 431.419 124.551 430.71 123.541 430.02C124.691 427.2 125.821 424.379 126.921 421.539C127.471 420.169 128.001 418.799 128.521 417.419C132.611 406.789 136.451 396.059 140.131 385.289C143.851 374.379 147.361 363.406 150.661 352.369C151.001 351.249 151.331 350.129 151.651 349.009C153.381 343.179 155.041 337.336 156.631 331.479C156.781 330.91 156.941 330.35 157.081 329.779C157.541 328.099 157.991 326.419 158.431 324.739C159.431 320.949 157.171 316.419 153.191 315.509C151.275 315.018 149.243 315.29 147.523 316.267C145.803 317.245 144.53 318.852 143.971 320.749C143.541 322.369 143.111 323.979 142.671 325.599C140.561 333.429 138.341 341.233 136.011 349.009C135.671 350.129 135.331 351.249 134.991 352.369C129.851 369.309 124.208 386.079 118.061 402.679C117.321 404.689 116.571 406.693 115.811 408.689C115.441 409.669 115.071 410.649 114.691 411.629C113.961 413.559 113.211 415.489 112.461 417.419C112.031 418.549 111.591 419.679 111.151 420.799C110.861 421.509 110.581 422.219 110.301 422.919C107.45 421.896 104.496 421.185 101.491 420.799L101.011 420.739C98.6816 420.459 96.3256 420.479 94.0012 420.799C90.5223 421.205 87.175 422.371 84.1959 424.213C81.2169 426.055 78.6788 428.529 76.7612 431.46C71.9912 438.97 72.0512 449.71 78.7412 456.09C85.6312 462.66 96.0612 462.609 104.171 458.499C108.469 456.174 112.093 452.778 114.691 448.639C115.687 447.139 116.601 445.587 117.431 443.989C117.641 444.129 117.851 444.269 118.061 444.419C118.861 444.979 119.661 445.549 120.451 446.109C125.054 449.444 129.905 452.423 134.961 455.02C145.833 460.424 157.536 463.964 169.581 465.489C169.851 465.519 170.111 465.56 170.381 465.59C171.711 465.76 173.051 465.889 174.391 465.999C193.613 467.448 212.859 463.514 229.971 454.639C231.421 453.889 232.858 453.103 234.281 452.279C236.491 450.999 238.651 449.639 240.761 448.199C241.911 447.419 243.031 446.629 244.141 445.799C248.992 442.227 253.513 438.228 257.651 433.849C259.221 432.199 260.724 430.496 262.161 428.739C263.52 427.302 264.303 425.416 264.361 423.439C264.353 422.537 264.184 421.643 263.861 420.799ZM98.2712 444.619C98.4812 444.469 98.6912 444.31 98.8912 444.15C98.8312 444.3 98.5412 444.469 98.2712 444.619ZM101.481 441.39C101.251 441.65 101.041 441.909 100.811 442.169C100.111 442.953 99.3598 443.688 98.5612 444.369C98.4512 444.469 98.3312 444.569 98.2112 444.659C98.2099 444.659 98.2086 444.66 98.2073 444.66C98.2061 444.661 98.205 444.661 98.2041 444.662C98.2031 444.663 98.2024 444.664 98.2019 444.666C98.2014 444.667 98.2012 444.668 98.2012 444.669C98.0567 444.734 97.9165 444.807 97.7812 444.889C97.3512 445.149 96.9112 445.389 96.4612 445.609C95.5801 445.934 94.6737 446.185 93.7512 446.359C93.0424 446.411 92.3309 446.418 91.6212 446.379H91.6012C91.1114 446.271 90.6275 446.137 90.1512 445.979C89.9112 445.859 89.6812 445.72 89.4512 445.579C89.3612 445.499 89.2812 445.419 89.2312 445.369C89.1335 445.28 89.0432 445.183 88.9613 445.079C88.9613 445.078 88.961 445.077 88.9605 445.076C88.96 445.074 88.9593 445.073 88.9584 445.072C88.9575 445.071 88.9563 445.071 88.9551 445.07C88.9539 445.07 88.9526 445.069 88.9513 445.069C88.8412 444.869 88.7212 444.669 88.6113 444.469C88.6056 444.464 88.602 444.457 88.6013 444.449C88.5213 444.199 88.4513 443.939 88.3913 443.679C88.3696 443.223 88.3729 442.766 88.4012 442.309C88.5354 441.671 88.7159 441.042 88.9413 440.429C89.1437 439.995 89.3742 439.574 89.6313 439.169C89.6513 439.129 89.7513 438.969 89.8613 438.789C89.8713 438.779 89.8712 438.78 89.8712 438.77C90.0212 438.6 90.1713 438.419 90.3313 438.259C90.6013 437.959 90.8913 437.699 91.1813 437.429C91.7453 437.06 92.3295 436.723 92.9313 436.419C93.8859 436.08 94.8655 435.816 95.8613 435.629C97.3296 435.513 98.8053 435.526 100.271 435.669C101.66 435.91 103.03 436.248 104.371 436.679C103.558 438.257 102.632 439.775 101.601 441.219C101.561 441.279 101.521 441.34 101.481 441.39ZM90.3612 438.099C90.2731 438.241 90.1691 438.372 90.0512 438.489C90.1306 438.342 90.2355 438.21 90.3612 438.099Z" fill="#3F3D56"/>
<path d="M233.801 318.669C233.711 321.809 233.621 324.949 233.531 328.089C233.341 335.059 233.145 342.033 232.941 349.009C232.731 356.859 232.511 364.706 232.281 372.549C232.171 376.599 232.058 380.65 231.941 384.699C231.631 395.609 231.325 406.516 231.021 417.419C230.991 418.549 230.951 419.669 230.921 420.799C230.771 426.209 230.621 431.619 230.471 437.029C230.301 442.899 230.135 448.769 229.971 454.639C229.851 459.039 229.728 463.443 229.601 467.849C228.701 499.779 227.801 531.709 226.901 563.639C226.863 565.617 226.061 567.502 224.662 568.901C223.264 570.299 221.378 571.101 219.401 571.139C217.417 571.123 215.519 570.328 214.116 568.925C212.713 567.522 211.917 565.624 211.901 563.639C212.401 545.679 212.908 527.719 213.421 509.759C213.871 493.519 214.328 477.279 214.791 461.039C214.941 455.689 215.091 450.336 215.241 444.979C215.471 436.919 215.698 428.859 215.921 420.799C215.951 419.669 215.991 418.549 216.021 417.419C216.041 416.429 216.071 415.449 216.101 414.459C216.541 398.809 216.981 383.156 217.421 367.499C217.601 361.339 217.775 355.176 217.941 349.009C218.141 341.979 218.341 334.953 218.541 327.929C218.631 324.839 218.711 321.759 218.801 318.669C218.839 316.692 219.642 314.807 221.04 313.408C222.438 312.01 224.324 311.207 226.301 311.169C228.285 311.185 230.184 311.981 231.587 313.384C232.99 314.787 233.785 316.685 233.801 318.669Z" fill="#3F3D56"/>
<path d="M645.229 320.751C637.365 350.53 627.965 379.883 617.068 408.692C614.061 416.638 610.985 424.569 607.697 432.404L608.453 430.612C606.985 434.344 605.111 437.903 602.863 441.224C602.71 441.438 602.555 441.65 602.396 441.86C603.173 440.867 603.321 440.671 602.839 441.271C602.585 441.572 602.334 441.874 602.072 442.167C601.372 442.95 600.62 443.686 599.823 444.37C599.622 444.542 599.418 444.71 599.211 444.874L600.149 444.145C600.04 444.402 599.276 444.743 599.038 444.888C598.267 445.353 597.464 445.76 596.633 446.107L598.425 445.351C597.064 445.899 595.644 446.289 594.194 446.511L596.187 446.244C594.762 446.44 593.318 446.456 591.889 446.29L593.883 446.557C592.714 446.396 591.57 446.088 590.478 445.64L592.27 446.396C591.687 446.143 591.126 445.843 590.591 445.5C590.32 445.323 589.486 444.692 590.576 445.525C591.71 446.391 590.722 445.599 590.489 445.369C590.294 445.177 590.119 444.969 589.929 444.774C589.047 443.87 590.925 446.331 590.326 445.273C590.005 444.742 589.712 444.196 589.448 443.636L590.204 445.428C589.859 444.575 589.615 443.685 589.476 442.776L589.743 444.77C589.6 443.64 589.599 442.496 589.74 441.365L589.472 443.359C589.656 442.097 589.99 440.861 590.467 439.679L589.711 441.47C590.044 440.675 590.438 439.907 590.889 439.172C591.097 438.792 591.341 438.433 591.618 438.1C591.667 438.116 590.349 439.613 591.048 438.857C591.231 438.66 591.402 438.452 591.587 438.255C591.883 437.942 592.201 437.655 592.513 437.358C593.557 436.363 591.051 438.324 592.256 437.537C593.13 436.962 594.05 436.461 595.006 436.037L593.214 436.793C594.815 436.136 596.494 435.686 598.209 435.454L596.215 435.721C598.364 435.474 600.534 435.5 602.676 435.798L600.682 435.53C603.394 435.941 606.045 436.687 608.574 437.75L606.782 436.994C612.172 439.308 616.946 442.743 621.71 446.112C626.313 449.445 631.162 452.422 636.217 455.018C647.089 460.424 658.793 463.965 670.839 465.492C688.114 467.608 705.645 465.352 721.822 458.931C737.998 452.51 752.303 442.128 763.424 428.74C764.781 427.301 765.563 425.414 765.621 423.437C765.607 421.451 764.819 419.548 763.424 418.134C760.673 415.608 755.475 414.895 752.818 418.134C750.3 421.208 747.592 424.123 744.711 426.861C743.366 428.137 741.985 429.373 740.569 430.57C739.76 431.254 738.94 431.925 738.108 432.582C737.715 432.892 736.489 433.72 738.371 432.384C737.94 432.69 737.526 433.024 737.101 433.339C730.803 437.982 723.978 441.863 716.768 444.904L718.56 444.148C710.824 447.393 702.699 449.619 694.389 450.77L696.383 450.502C687.834 451.627 679.174 451.614 670.629 450.464L672.623 450.732C664.079 449.559 655.724 447.283 647.766 443.962L649.557 444.718C641.878 441.32 634.589 437.098 627.821 432.127C624.298 429.518 620.583 427.18 616.708 425.133C612.193 422.827 607.305 421.341 602.27 420.744C592.831 419.633 583.213 423.31 578.024 431.464C573.248 438.969 573.31 449.708 579.998 456.09C586.885 462.662 597.316 462.606 605.433 458.495C613.251 454.536 617.946 446.31 621.248 438.553C628.679 421.098 635.258 403.24 641.388 385.29C647.452 367.532 652.952 349.595 657.887 331.477C658.498 329.233 659.1 326.987 659.693 324.738C660.694 320.95 658.432 316.418 654.455 315.512C652.538 315.019 650.505 315.29 648.783 316.267C647.062 317.244 645.788 318.852 645.229 320.751Z" fill="#3F3D56"/>
<path d="M720.062 318.669L717.362 414.462L714.677 509.756L713.158 563.64C713.175 565.624 713.971 567.522 715.374 568.925C716.777 570.328 718.674 571.123 720.658 571.14C722.636 571.102 724.521 570.299 725.919 568.901C727.318 567.503 728.12 565.617 728.158 563.64L730.858 467.847L733.543 372.553L735.062 318.669C735.045 316.685 734.249 314.787 732.847 313.384C731.444 311.982 729.546 311.186 727.562 311.169C725.585 311.207 723.699 312.01 722.301 313.408C720.903 314.806 720.1 316.692 720.062 318.669Z" fill="#3F3D56"/>
<path opacity="0.2" d="M460.464 536.895H462.793V430.853H517.121V428.53H462.793V383.786H504.748C504.133 383.003 503.5 382.231 502.849 381.469H462.793V351.916C462.022 351.587 461.246 351.271 460.464 350.972V381.469H414.812V343.604C414.029 343.639 413.259 343.693 412.483 343.759V381.469H376.063V353.218C375.28 353.564 374.51 353.928 373.746 354.31V381.469H343.13V383.786H373.746V428.53H343.13V430.853H373.746V536.895H376.063V430.853C380.846 430.852 385.582 431.793 390.001 433.623C394.42 435.453 398.436 438.136 401.818 441.518C405.2 444.9 407.883 448.915 409.712 453.335C411.542 457.754 412.484 462.49 412.483 467.273V536.895H414.812V430.853H460.464V536.895ZM376.063 428.53V383.786H412.483V428.53H376.063ZM414.812 428.53V383.786H415.725C421.601 383.786 427.419 384.944 432.847 387.193C438.275 389.441 443.207 392.737 447.361 396.892C451.516 401.047 454.811 405.98 457.059 411.408C459.307 416.836 460.464 422.655 460.464 428.53H414.812Z" fill="black"/>
<path d="M446.241 505.099C443.309 518.178 436.286 529.982 426.191 538.799C425.451 539.439 424.711 540.059 423.941 540.669C422.071 540.84 420.215 541.013 418.371 541.19C416.841 541.33 415.331 541.48 413.831 541.62L413.561 541.65L413.371 540.01L412.611 533.37C409.663 528.556 407.835 523.141 407.264 517.526C406.693 511.91 407.393 506.238 409.311 500.93C411.951 493.81 416.731 487.519 421.431 481.279C427.921 472.659 434.231 464.14 434.461 453.63C437.655 457.716 440.31 462.196 442.361 466.96C440.425 467.871 438.686 469.151 437.241 470.729C436.831 471.179 436.421 471.809 436.701 472.35C436.941 472.81 437.541 472.919 438.061 472.979C439.311 473.109 440.571 473.239 441.821 473.369C442.821 473.479 443.821 473.579 444.821 473.689C446.031 477.66 446.852 481.74 447.271 485.869C447.945 492.294 447.597 498.784 446.241 505.099Z" fill="#3F3D56"/>
<path d="M479.441 478.89C473.541 483.18 470.091 489.35 467.411 496.15C464.664 497.029 462.194 498.607 460.241 500.73C459.831 501.18 459.421 501.81 459.701 502.35C459.941 502.81 460.541 502.92 461.061 502.98C462.311 503.11 463.571 503.24 464.821 503.37C462.141 511.41 459.681 519.73 454.941 526.52C451.789 531.002 447.68 534.729 442.911 537.43C441.611 538.17 440.269 538.835 438.891 539.42C433.811 539.81 428.828 540.226 423.941 540.67C422.071 540.84 420.215 541.013 418.371 541.19C416.841 541.33 415.331 541.48 413.831 541.62C413.821 541.07 413.821 540.519 413.831 539.969C414.148 525.318 419.537 511.23 429.081 500.11C429.531 499.59 429.991 499.08 430.461 498.57C435.296 493.405 440.982 489.109 447.271 485.87C457.181 480.717 468.287 478.307 479.441 478.89Z" fill="#F9A826"/>
<path d="M420.101 536.06L418.951 539.46L418.371 541.19C416.841 541.33 415.331 541.48 413.831 541.62L413.561 541.65C411.901 541.82 410.251 541.989 408.601 542.159C408.171 541.659 407.741 541.15 407.321 540.63C396.883 527.99 391.873 511.732 393.385 495.41C394.897 479.087 402.809 464.027 415.391 453.52C414.071 460.43 415.611 467.05 418.141 473.62C417.871 473.73 417.611 473.84 417.361 473.96C415.425 474.871 413.686 476.151 412.241 477.729C411.831 478.179 411.421 478.809 411.701 479.35C411.941 479.81 412.541 479.919 413.061 479.979C414.311 480.109 415.571 480.239 416.821 480.369C417.821 480.479 418.821 480.579 419.821 480.689C420.291 480.739 420.761 480.789 421.231 480.839C421.301 480.989 421.361 481.129 421.431 481.279C424.281 487.459 427.351 493.669 429.081 500.109C429.515 501.725 429.856 503.365 430.101 505.019C430.871 510.612 430.372 516.306 428.641 521.68C426.91 527.053 423.991 531.968 420.101 536.06Z" fill="#F9A826"/>
<path d="M520.759 391.02C512.151 374.228 498.813 360.099 483.127 349.716C467.391 339.348 449.333 333.034 430.565 331.337C428.104 331.113 425.638 330.982 423.166 330.944C420.244 330.9 376.3 343.575 361.578 353.926C346.865 364.15 334.762 377.69 326.245 393.453C317.744 409.302 313.562 427.109 314.12 445.086C314.849 463.171 319.89 480.82 328.823 496.562C337.634 512.253 350.144 525.554 365.267 535.308C380.605 545.094 396.012 571.043 414.121 571.959C432.367 572.882 453.175 548.404 469.816 540.972C486.457 533.478 500.844 521.754 511.542 506.967C521.938 492.477 528.663 475.681 531.141 458.02C533.715 439.936 532.515 421.287 526.34 404.003C524.755 399.562 522.891 395.226 520.759 391.02C518.98 387.515 513.763 386.224 510.498 388.329C508.816 389.365 507.597 391.01 507.096 392.921C506.595 394.832 506.85 396.863 507.807 398.591C508.852 400.649 509.824 402.742 510.723 404.868L509.967 403.077C513.367 411.252 515.678 419.838 516.843 428.615L516.575 426.621C517.814 436.143 517.792 445.787 516.509 455.304L516.777 453.31C515.481 462.825 512.941 472.13 509.222 480.984L509.978 479.193C508.066 483.71 505.836 488.087 503.307 492.291C502.025 494.415 500.665 496.488 499.226 498.512C498.594 499.401 497.943 500.273 497.287 501.144C496.431 502.279 498.454 499.66 497.57 500.774C497.419 500.964 497.269 501.154 497.118 501.343C496.664 501.911 496.203 502.474 495.736 503.031C492.618 506.751 489.216 510.223 485.559 513.415C484.649 514.21 483.723 514.987 482.782 515.746C482.313 516.124 481.85 516.519 481.361 516.871C481.379 516.857 482.94 515.671 482.016 516.36C481.726 516.576 481.438 516.796 481.147 517.011C479.207 518.449 477.215 519.813 475.172 521.103C470.469 524.067 465.534 526.646 460.417 528.817L462.208 528.061C453.38 531.777 444.102 534.316 434.612 535.612L436.605 535.344C427.12 536.626 417.506 536.643 408.016 535.395L410.01 535.663C401.385 534.505 392.949 532.224 384.915 528.878L386.706 529.634C382.053 527.669 377.567 525.332 373.29 522.643C371.174 521.31 369.113 519.894 367.107 518.396C366.821 518.182 366.537 517.965 366.252 517.75C365.336 517.059 366.91 518.26 366.922 518.268C366.39 517.886 365.877 517.478 365.387 517.044C364.418 516.254 363.464 515.447 362.526 514.622C358.77 511.314 355.263 507.735 352.033 503.912C351.224 502.956 350.432 501.986 349.658 501.002C349.323 500.575 348.712 499.711 350.063 501.531C349.885 501.291 349.701 501.056 349.521 500.818C349.09 500.247 348.665 499.671 348.245 499.09C346.777 497.058 345.381 494.977 344.058 492.845C341.067 488.019 338.458 482.967 336.252 477.736L337.008 479.528C333.399 470.941 330.932 461.919 329.668 452.691L329.936 454.685C328.796 446.179 328.779 437.559 329.887 429.049L329.619 431.043C330.755 422.801 332.973 414.745 336.214 407.083L335.458 408.875C337.497 404.079 339.903 399.446 342.653 395.019C344.03 392.803 345.489 390.642 347.031 388.534C347.381 388.055 347.735 387.579 348.093 387.106C348.417 386.678 349.308 385.613 347.788 387.495C347.937 387.31 348.08 387.12 348.227 386.934C349.073 385.863 349.94 384.808 350.827 383.769C354.185 379.839 357.822 376.155 361.71 372.749C362.693 371.887 363.691 371.044 364.705 370.22C365.165 369.845 365.629 369.474 366.096 369.107C366.282 368.96 366.472 368.816 366.657 368.668C364.66 370.258 366.102 369.101 366.556 368.761C368.645 367.195 370.79 365.708 372.991 364.3C377.884 361.171 383.031 358.458 388.378 356.192L386.586 356.948C394.346 353.689 428.727 345.999 434.98 346.838L432.986 346.57C442.177 347.853 451.16 350.335 459.706 353.952L457.914 353.196C462.245 355.035 466.454 357.149 470.515 359.526C472.544 360.715 474.533 361.969 476.482 363.288C477.404 363.913 478.317 364.551 479.22 365.203C479.672 365.529 480.12 365.859 480.566 366.192C480.814 366.377 481.06 366.565 481.308 366.75C482.347 367.529 479.876 365.622 480.966 366.483C484.612 369.348 488.075 372.438 491.334 375.737C492.934 377.367 494.48 379.048 495.97 380.782C496.735 381.671 497.484 382.574 498.217 383.489C498.581 383.944 499.822 385.59 498.301 383.574C498.673 384.067 499.049 384.556 499.416 385.053C502.576 389.33 505.382 393.858 507.807 398.591C509.6 402.089 514.794 403.393 518.069 401.282C519.752 400.246 520.971 398.602 521.472 396.69C521.973 394.779 521.718 392.748 520.759 391.02Z" fill="#3F3D56"/>
<path d="M433.369 513.415C432.595 513.451 431.829 513.247 431.174 512.833C430.519 512.418 430.007 511.812 429.708 511.097C429.409 510.382 429.338 509.593 429.502 508.835C429.667 508.078 430.061 507.39 430.63 506.864C430.725 506.485 430.794 506.213 430.889 505.834C430.855 505.752 430.82 505.669 430.786 505.587C427.306 497.289 405.101 520.42 404.141 528.219C403.718 531.666 403.896 535.16 404.668 538.546C397.475 522.856 393.741 505.803 393.716 488.543C393.715 484.212 393.956 479.884 394.437 475.58C394.835 472.052 395.388 468.548 396.094 465.07C399.949 446.196 408.226 428.506 420.246 413.453C427.119 413.837 433.144 412.79 433.725 399.468C433.829 397.098 435.586 395.046 435.974 392.712C435.317 392.798 434.65 392.852 433.994 392.895C433.79 392.905 433.575 392.916 433.37 392.927L433.293 392.93C432.572 392.963 431.857 392.786 431.234 392.421C430.611 392.057 430.106 391.52 429.781 390.875C429.456 390.23 429.325 389.505 429.402 388.788C429.479 388.07 429.763 387.39 430.217 386.829C430.501 386.481 430.784 386.132 431.068 385.784C431.498 385.246 431.939 384.719 432.37 384.181C432.419 384.13 432.466 384.076 432.51 384.019C433.005 383.406 433.499 382.804 433.994 382.19C433.091 380.788 431.876 379.614 430.444 378.759C425.485 375.854 418.643 377.866 415.06 382.352C411.467 386.838 410.789 393.131 412.037 398.736C413.264 403.505 415.294 408.031 418.04 412.119C417.771 412.463 417.491 412.797 417.223 413.141C412.306 419.463 408.021 426.251 404.429 433.409C405.445 425.471 393.017 396.801 388.211 390.729C382.438 383.435 370.6 386.618 369.583 395.864C369.573 395.954 369.564 396.043 369.554 396.133C370.268 396.536 370.967 396.963 371.651 397.415C372.51 397.989 373.175 398.809 373.56 399.768C373.945 400.726 374.031 401.779 373.808 402.787C373.585 403.796 373.062 404.713 372.308 405.42C371.554 406.126 370.604 406.588 369.583 406.746L369.479 406.762C359.923 420.405 390.556 455.916 398.224 447.943C394.615 458.171 392.351 468.824 391.49 479.636C391.002 486.014 391.031 492.422 391.576 498.796L391.543 498.57C389.84 484.687 360.612 464.047 352.077 465.766C347.16 466.757 342.318 466.532 343.064 471.491C343.076 471.57 343.088 471.65 343.101 471.729C344.425 472.268 345.715 472.89 346.963 473.59C347.676 473.993 348.375 474.42 349.059 474.872C349.918 475.446 350.583 476.266 350.968 477.225C351.353 478.183 351.44 479.236 351.216 480.244C350.993 481.253 350.47 482.171 349.716 482.877C348.962 483.583 348.013 484.045 346.992 484.203L346.887 484.219C346.812 484.229 346.747 484.24 346.672 484.251C342.322 499.217 374.579 523.371 394.19 515.686H394.201C396.144 524.131 398.96 532.351 402.603 540.214H432.617C432.725 539.88 432.822 539.536 432.918 539.202C430.14 539.377 427.351 539.211 424.613 538.708C426.84 535.975 429.067 533.221 431.294 530.489C431.344 530.437 431.39 530.384 431.434 530.327C432.563 528.929 433.704 527.541 434.833 526.142L434.834 526.141C434.894 521.854 434.402 517.577 433.37 513.416L433.369 513.415ZM398.999 445.802L399.014 445.781L398.999 445.824V445.802ZM392.35 505.735L392.092 505.154C392.103 504.734 392.103 504.315 392.092 503.884C392.092 503.766 392.071 503.648 392.071 503.529C392.167 504.271 392.253 505.014 392.361 505.756L392.35 505.735Z" fill="#3F3D56"/>
<path d="M96.1212 450.959C102.196 450.959 107.121 446.035 107.121 439.959C107.121 433.884 102.196 428.959 96.1212 428.959C90.0461 428.959 85.1212 433.884 85.1212 439.959C85.1212 446.035 90.0461 450.959 96.1212 450.959Z" fill="#3F3D56"/>
<path d="M228.121 570.959C234.196 570.959 239.121 566.035 239.121 559.959C239.121 553.884 234.196 548.959 228.121 548.959C222.046 548.959 217.121 553.884 217.121 559.959C217.121 566.035 222.046 570.959 228.121 570.959Z" fill="#3F3D56"/>
<path d="M729.121 570.959C735.196 570.959 740.121 566.035 740.121 559.959C740.121 553.884 735.196 548.959 729.121 548.959C723.046 548.959 718.121 553.884 718.121 559.959C718.121 566.035 723.046 570.959 729.121 570.959Z" fill="#3F3D56"/>
<path d="M756.121 430.959C762.196 430.959 767.121 426.035 767.121 419.959C767.121 413.884 762.196 408.959 756.121 408.959C750.046 408.959 745.121 413.884 745.121 419.959C745.121 426.035 750.046 430.959 756.121 430.959Z" fill="#3F3D56"/>
<path d="M724.121 328.959C730.196 328.959 735.121 324.035 735.121 317.959C735.121 311.884 730.196 306.959 724.121 306.959C718.046 306.959 713.121 311.884 713.121 317.959C713.121 324.035 718.046 328.959 724.121 328.959Z" fill="#3F3D56"/>
<path d="M265.121 419.96C265.115 422.769 264.028 425.469 262.086 427.5C260.145 429.531 257.496 430.738 254.69 430.871C251.883 431.003 249.133 430.052 247.008 428.213C244.883 426.375 243.547 423.79 243.275 420.993C243.003 418.197 243.816 415.403 245.547 413.189C247.278 410.976 249.794 409.512 252.573 409.102C255.353 408.692 258.184 409.366 260.481 410.985C262.777 412.604 264.363 415.044 264.911 417.799C265.052 418.511 265.123 419.234 265.121 419.96Z" fill="#3F3D56"/>
<path d="M485.121 360.959C491.196 360.959 496.121 356.035 496.121 349.959C496.121 343.884 491.196 338.959 485.121 338.959C479.046 338.959 474.121 343.884 474.121 349.959C474.121 356.035 479.046 360.959 485.121 360.959Z" fill="#3F3D56"/>
<path d="M376.121 349.96C376.115 352.769 375.028 355.469 373.086 357.5C371.145 359.531 368.496 360.738 365.69 360.871C362.883 361.003 360.133 360.052 358.008 358.214C355.883 356.375 354.547 353.79 354.275 350.993C354.003 348.197 354.816 345.403 356.547 343.189C358.278 340.976 360.794 339.512 363.573 339.102C366.353 338.692 369.184 339.366 371.481 340.985C373.777 342.604 375.363 345.044 375.911 347.8C376.052 348.511 376.123 349.234 376.121 349.96Z" fill="#3F3D56"/>
<path d="M234.121 317.96C234.115 320.769 233.028 323.469 231.086 325.5C229.145 327.531 226.496 328.738 223.69 328.871C220.883 329.003 218.133 328.052 216.008 326.214C213.883 324.375 212.547 321.79 212.275 318.993C212.003 316.197 212.816 313.403 214.547 311.189C216.278 308.976 218.794 307.512 221.573 307.102C224.353 306.692 227.184 307.366 229.481 308.985C231.777 310.604 233.363 313.044 233.911 315.8C234.052 316.511 234.123 317.234 234.121 317.96Z" fill="#3F3D56"/>
<path d="M600.121 454.959C606.196 454.959 611.121 450.035 611.121 443.959C611.121 437.884 606.196 432.959 600.121 432.959C594.046 432.959 589.121 437.884 589.121 443.959C589.121 450.035 594.046 454.959 600.121 454.959Z" fill="#3F3D56"/>
<path d="M427.121 354.959C435.958 354.959 443.121 347.796 443.121 338.959C443.121 330.123 435.958 322.959 427.121 322.959C418.285 322.959 411.121 330.123 411.121 338.959C411.121 347.796 418.285 354.959 427.121 354.959Z" fill="#3F3D56"/>
<path d="M859.813 571.8L2.06311 572.107C1.90675 572.107 1.75191 572.077 1.60745 572.017C1.46299 571.957 1.33174 571.869 1.22118 571.759C1.11061 571.648 1.0229 571.517 0.963058 571.372C0.903221 571.228 0.872437 571.073 0.872437 570.917C0.872437 570.76 0.903221 570.606 0.963058 570.461C1.0229 570.317 1.11061 570.185 1.22118 570.075C1.33174 569.964 1.46299 569.877 1.60745 569.817C1.75191 569.757 1.90675 569.726 2.06311 569.726L859.813 569.419C860.128 569.42 860.43 569.545 860.653 569.769C860.875 569.992 861 570.294 861 570.609C861 570.925 860.875 571.227 860.653 571.45C860.43 571.673 860.128 571.799 859.813 571.8Z" fill="#CACACA"/>
</g>
<defs>
<clipPath id="clip0_27_9832">
<rect width="860.131" height="571.148" fill="white" transform="translate(0.872437 0.959473)"/>
</clipPath>
</defs>
</svg>
