<svg width="689" height="432" viewBox="0 0 689 432" fill="none" xmlns="http://www.w3.org/2000/svg">
<g clip-path="url(#clip0_31_10991)">
<path opacity="0.1" d="M689 298.714C689.049 281.311 684.916 264.152 676.949 248.683C668.983 233.215 657.417 219.892 643.227 209.837C643.62 206.077 643.821 202.301 643.829 198.521C643.829 138.751 596.105 90.2975 537.227 90.2975C519.097 90.278 501.271 94.9597 485.486 103.886C443.815 76.4433 389.411 59.8339 329.895 59.8339C233.055 59.8339 149.755 103.814 112.8 166.875C110.746 166.755 108.68 166.689 106.596 166.689C47.73 166.689 -0.00613406 215.142 -0.00613406 274.912C-0.0479396 296.028 6.04778 316.701 17.5381 334.41C17.5381 388.187 68.2434 431.776 130.765 431.776H584.349C633.458 431.776 673.269 397.55 673.269 355.324C683.598 338.255 689.041 318.671 689 298.714Z" fill="#F9A826"/>
<path d="M499.031 99.7205C494.49 101.638 489.937 103.561 485.709 106.093C483.788 107.238 481.945 108.505 479.969 109.547C477.843 110.681 475.585 111.537 473.344 112.453C467.161 114.981 461.157 117.926 455.372 121.268C455.872 114.787 454.927 107.745 451.054 102.693C450.485 101.944 449.852 101.246 449.163 100.607C446.423 98.0626 442.538 97.4055 439.846 95.1808C441.484 92.2991 445.122 89.6825 447.597 87.482C450.271 85.1147 453.046 82.87 455.92 80.7478C461.666 76.5003 467.784 72.7814 474.199 69.6367C478.271 67.6412 482.523 65.8567 487.016 65.2478C487.582 65.1201 488.174 65.1728 488.708 65.3985C489.407 65.7843 489.66 66.6525 489.828 67.4302C490.666 71.3188 491.093 75.3099 491.792 79.2286C492.134 81.2425 492.599 83.2337 493.183 85.1911C493.934 87.506 494.8 89.7817 495.779 92.0097C496.867 94.5779 497.951 97.1482 499.031 99.7205Z" fill="#FBBEBE"/>
<path d="M370.139 209.614C370.137 217.617 367.611 225.415 362.919 231.895C358.227 238.375 351.611 243.206 344.014 245.699C336.416 248.192 328.227 248.218 320.613 245.775C313 243.332 306.352 238.545 301.618 232.095C296.828 225.581 294.247 217.703 294.252 209.614C294.252 199.54 298.25 189.88 305.366 182.757C312.481 175.634 322.132 171.632 332.196 171.632C342.259 171.632 351.91 175.634 359.026 182.757C366.141 189.88 370.139 199.54 370.139 209.614Z" fill="#BE6F72"/>
<path d="M318.602 243.086C320.632 246.588 322.68 250.121 323.981 253.938C325.281 257.754 325.787 261.98 324.715 265.881C337.64 259.068 353.022 259.617 367.248 256.168C367.628 256.124 367.979 255.939 368.23 255.65C368.316 255.452 368.361 255.239 368.361 255.023C368.361 254.807 368.316 254.593 368.23 254.396C365.252 243.364 364.106 231.917 364.839 220.514L357.413 224.909C354.162 226.919 350.793 228.731 347.325 230.335C342.416 232.487 337.206 233.789 332.081 235.296C328.022 236.502 319.963 238.064 317.41 241.615C317.871 242.05 318.271 242.545 318.602 243.086Z" fill="#BE6F72"/>
<path d="M297.697 192.01C295.228 193.004 292.325 194.15 290.055 192.757C288.386 191.726 287.7 189.586 287.802 187.627C287.904 185.667 288.651 183.81 289.241 181.941C290.446 178.101 291.096 174.104 292.44 170.282C293.783 166.459 295.975 162.776 299.456 160.756C305.864 157.042 314.157 160.111 321.27 158.055C324.282 157.193 326.902 155.457 329.702 154.094C332.503 152.732 335.653 151.683 338.676 152.412C342.217 153.238 344.831 156.223 348.132 157.742C351.745 159.406 356.07 159.291 359.358 161.516C361.689 163.095 363.158 165.646 364.465 168.148C368.647 176.188 371.948 184.658 374.312 193.408C375.258 196.542 375.798 199.783 375.921 203.054C375.951 207.238 374.818 211.338 373.698 215.377L371.891 221.768C371.223 224.179 370.536 226.591 369.271 228.773C368.007 230.956 366.055 232.795 363.64 233.428C360.629 234.205 357.124 232.698 355.811 229.877C355.004 228.128 355.04 226.127 354.998 224.203C354.931 220.437 354.528 216.684 353.793 212.99C353.42 211.139 352.92 209.216 351.661 207.817C350.035 206.008 347.445 205.406 345.036 205.363C342.217 205.327 339.128 206.093 337.483 208.378C336.165 210.223 335.936 212.815 334.183 214.256C333.404 214.854 332.478 215.231 331.503 215.347C329.515 215.595 327.501 215.169 325.783 214.136C324.066 213.103 322.744 211.523 322.029 209.65C321.475 208.058 321.204 206.081 319.698 205.333C318.915 204.941 317.982 205.014 317.145 204.761C314.579 203.983 313.905 200.727 313.67 198.056C313.399 194.928 314.441 188.748 310.556 188.537C306.37 188.308 301.546 190.725 297.697 192.01Z" fill="#3F3D56"/>
<path d="M306.798 233.18C305.461 233.825 303.997 234.579 303.473 235.966C303.268 236.508 303.232 237.105 303.046 237.66C302.196 240.114 298.884 240.596 297.173 242.549C296.402 243.537 295.883 244.698 295.662 245.931C294.519 250.797 294.889 255.896 296.722 260.545C297.253 262.019 298.072 263.371 299.131 264.524C302.19 267.647 307.466 267.587 311.279 265.459C315.091 263.331 317.723 259.599 319.957 255.813C321.142 253.907 322.133 251.887 322.915 249.784C323.602 247.645 324.092 245.447 324.378 243.218C325.715 234.531 327.462 224.897 326.859 216.089C325.053 215.974 321.602 215.848 320.006 216.981C318.006 218.404 318.56 221.274 317.837 223.353C316.127 228.357 311.164 230.998 306.798 233.18Z" fill="#3F3D56"/>
<path d="M308.364 234.332C306.105 234.471 302.058 231.969 299.793 232.095C298.252 229.403 296.89 226.611 295.716 223.739C296.92 222.009 298.86 221.587 301.793 223.739C304.148 225.397 307.4 231.131 308.364 234.332Z" fill="#3F3D56"/>
<path d="M342.41 139.077C339.959 140.373 338.441 140.433 337.231 140.174C336.02 139.915 333.617 141.12 333.617 141.12C312.387 148.391 311.55 151.822 311.55 151.822L336.128 143.134C340.856 141.06 340.947 141.79 340.947 141.79C344.56 145.19 349.162 142.887 349.162 142.887C349.162 142.887 355.528 139.872 353.655 136.973C351.782 134.073 344.867 137.805 342.41 139.077ZM352.649 138.534C352.649 138.534 350.842 143.357 344.343 142.573C344.343 142.573 341.151 142.103 342.5 139.722C342.5 139.722 349.126 136.936 350.878 137.135C352.631 137.334 352.631 138.558 352.631 138.558L352.649 138.534Z" fill="#E8E8F0"/>
<path opacity="0.1" d="M342.41 139.077C339.959 140.373 338.441 140.433 337.231 140.174C336.02 139.915 333.617 141.12 333.617 141.12C312.387 148.391 311.55 151.822 311.55 151.822L336.128 143.134C340.856 141.06 340.947 141.79 340.947 141.79C344.56 145.19 349.162 142.887 349.162 142.887C349.162 142.887 355.528 139.872 353.655 136.973C351.782 134.073 344.867 137.805 342.41 139.077ZM352.649 138.534C352.649 138.534 350.842 143.357 344.343 142.573C344.343 142.573 341.151 142.103 342.5 139.722C342.5 139.722 349.126 136.936 350.878 137.135C352.631 137.334 352.631 138.558 352.631 138.558L352.649 138.534Z" fill="black"/>
<path d="M343.759 125.632C340.085 125.753 339.32 128.502 339.32 128.502C338.585 129.381 338.154 130.474 338.092 131.619C338.03 132.764 338.341 133.897 338.977 134.85L332.455 141.343C331.219 141.821 330.156 142.661 329.407 143.755C329.407 143.755 315.085 156.415 315.296 157.567C315.296 157.567 317.633 158.773 332.455 145.25L336.345 141.802C336.345 141.802 337.206 135.357 343.283 134.133C343.283 134.133 343.886 134.398 344.205 132.963C344.546 132.275 345 131.65 345.548 131.113C346.355 130.365 347.433 125.506 343.759 125.632ZM344.789 129.991C344.789 129.991 342.82 135.079 340.013 133.608C337.206 132.137 339.935 128.743 339.935 128.743C344.801 124.005 344.789 129.991 344.789 129.991Z" fill="#E8E8F0"/>
<path opacity="0.1" d="M332.581 143.876C333.01 143.876 333.358 143.527 333.358 143.098C333.358 142.668 333.01 142.32 332.581 142.32C332.152 142.32 331.804 142.668 331.804 143.098C331.804 143.527 332.152 143.876 332.581 143.876Z" fill="black"/>
<path d="M400.547 118.506C398.28 117.311 395.927 116.287 393.507 115.444C390.29 114.53 386.985 113.965 383.648 113.756C373.104 112.751 362.528 112.168 351.92 112.007C350.047 112.007 348.132 111.965 346.355 112.61C344.768 113.22 343.33 114.163 342.139 115.377C340.075 117.352 338.436 119.728 337.321 122.359C336.963 123.018 336.856 123.785 337.02 124.517C337.261 125.216 338.224 125.68 338.772 125.186C337.37 126.317 336.34 127.844 335.816 129.569C335.292 131.293 335.298 133.135 335.833 134.856C334.997 135.294 334.288 135.94 333.774 136.732C333.261 137.524 332.959 138.435 332.9 139.378C337.279 140.189 341.786 139.971 346.066 138.739C344.789 138.413 343.47 139.613 343.392 140.927C343.4 141.588 343.591 142.233 343.943 142.791C344.295 143.35 344.794 143.8 345.385 144.093C346.58 144.658 347.896 144.919 349.216 144.852C354.317 144.852 359.28 143.122 364.369 142.899C368.26 142.724 372.271 143.429 375.987 142.296C380.299 140.958 384.148 137.165 388.592 137.955C392.14 138.588 394.452 141.886 396.765 144.647C400.463 149.054 405.034 152.623 409.569 156.162C413.063 158.887 416.712 161.685 421.043 162.607C422.339 162.961 423.713 162.895 424.97 162.42C426.02 161.858 426.901 161.025 427.523 160.009C432.191 153.377 432.197 145.027 431.926 137.256C431.787 133.283 430.92 132.746 427.246 131.1C422.982 129.183 418.734 127.22 414.502 125.21C409.828 123.024 405.177 120.789 400.547 118.506Z" fill="#FBBEBE"/>
<path d="M449.362 133.385C448.644 133.815 447.885 134.172 447.097 134.452C445.778 134.766 444.435 134.205 443.152 133.771C437.732 131.963 431.709 132.391 426.469 130.154C428.188 140.027 425.938 150.179 420.212 158.399C419.128 159.942 417.7 161.522 415.821 161.642C416.658 164.217 419.236 165.772 421.681 166.93C425.586 168.78 429.671 170.222 433.871 171.234C435.076 171.518 436.545 171.656 437.244 170.631C437.666 170.029 437.846 168.998 438.587 169.034C439.719 170.24 439.346 172.711 440.912 173.254C441.4 173.378 441.911 173.378 442.399 173.254L445.893 172.651C446.941 172.56 447.95 172.212 448.832 171.638C449.384 171.158 449.84 170.577 450.175 169.926C454.09 163.252 455.595 155.529 456.198 147.903C456.493 144.117 456.86 140.101 456.601 136.303C456.36 133.048 452.192 132.065 449.362 133.385Z" fill="#E8E8F0"/>
<path opacity="0.1" d="M449.362 133.385C448.644 133.815 447.885 134.172 447.097 134.452C445.778 134.766 444.435 134.205 443.152 133.771C437.732 131.963 431.709 132.391 426.469 130.154C428.188 140.027 425.938 150.179 420.212 158.399C419.128 159.942 417.7 161.522 415.821 161.642C416.658 164.217 419.236 165.772 421.681 166.93C425.586 168.78 429.671 170.222 433.871 171.234C435.076 171.518 436.545 171.656 437.244 170.631C437.666 170.029 437.846 168.998 438.587 169.034C439.719 170.24 439.346 172.711 440.912 173.254C441.4 173.378 441.911 173.378 442.399 173.254L445.893 172.651C446.941 172.56 447.95 172.212 448.832 171.638C449.384 171.158 449.84 170.577 450.175 169.926C454.09 163.252 455.595 155.529 456.198 147.903C456.493 144.117 456.86 140.101 456.601 136.303C456.36 133.048 452.192 132.065 449.362 133.385Z" fill="black"/>
<path d="M247.462 328.942C245.745 326.735 243.981 324.396 241.439 323.233C239.975 322.641 238.433 322.264 236.862 322.111C228.388 320.906 219.896 319.652 211.343 319.416C208.549 319.338 205.55 319.416 203.273 321.05C200.665 322.913 199.659 326.344 199.515 329.545C199.359 333.357 200.115 337.151 201.72 340.611C203.325 344.072 205.732 347.099 208.742 349.44C213.861 353.347 220.329 354.98 226.641 356.271C229.96 356.952 233.296 357.561 236.645 358.079C239.994 358.598 243.402 359.008 246.637 360.045C253.551 362.263 259.652 367.279 266.903 367.695C267.244 367.748 267.593 367.689 267.897 367.526C268.215 367.269 268.429 366.905 268.499 366.501C270.095 360.865 275.63 347.366 268.499 343.423C264.771 341.367 260.633 341.277 256.984 338.666C253.334 336.056 250.232 332.505 247.462 328.942Z" fill="#BE6F72"/>
<path d="M186.578 366.363C181.886 362.275 175.412 360.111 172.003 354.908C170.503 352.617 169.744 349.928 168.992 347.288L166.775 339.318C166.605 338.828 166.527 338.311 166.546 337.792C166.715 336.128 168.672 335.339 170.323 335.079C178.754 333.765 187.536 337.165 193.847 342.917C200.159 348.668 204.213 356.602 206.592 364.826C206.759 365.244 206.784 365.706 206.664 366.14C206.458 366.526 206.132 366.835 205.736 367.02C202.689 368.829 198.593 371.463 195.034 372.018C191.474 372.573 189.114 368.545 186.578 366.363Z" fill="#BE6F72"/>
<path d="M392.423 331.999L417.116 341.892C419.459 342.83 421.387 344.579 422.549 346.821C423.711 349.063 424.029 351.649 423.446 354.106L405.071 431.474H359.129L367.127 343.453C367.127 343.453 384.593 328.984 392.423 331.999Z" fill="#3F3D56"/>
<path d="M416.273 322.714C415.815 323.715 415.141 324.704 415.243 325.795C415.303 326.446 415.641 327.061 415.592 327.706C415.496 328.972 414.032 329.678 412.768 329.69C411.503 329.702 410.232 329.292 408.985 329.509C406.938 329.858 405.552 331.745 403.782 332.837C401.312 334.356 398.229 334.266 395.35 334.525C389.327 335.067 383.63 337.328 378.179 339.902C374.475 341.651 370.542 343.894 369.145 347.74C367.139 353.166 371.03 358.881 371.891 364.621C372.122 366.553 372.179 368.502 372.06 370.444C371.428 390.713 370.338 411.217 369.181 431.462L148.412 431.721L159.283 412.652C169.883 394.053 180.766 375.105 196.757 360.883C199.128 358.739 201.793 356.945 204.67 355.553L217.493 367.008C218.519 368.03 219.71 368.872 221.016 369.498C223.425 370.481 226.123 369.92 228.707 370.004C233.676 370.167 238.217 372.705 242.529 375.183C245.692 376.901 248.735 378.833 251.636 380.965C253.334 382.267 255.785 383.081 257.556 384.281L257.14 362.637C257.098 360.684 257.068 358.682 257.652 356.819C258.785 353.202 262.019 350.646 263.573 347.203C264.277 345.654 264.621 343.966 265.211 342.38C266.045 340.342 267.082 338.393 268.307 336.563L276.299 323.709C278.274 320.538 280.244 317.367 282.388 314.31C291.765 300.92 304.389 290.195 316.669 279.433C316.384 276.367 317.091 273.289 318.687 270.655C319.316 269.779 319.837 268.829 320.24 267.828C320.501 266.641 320.576 265.421 320.463 264.211C320.463 263.903 320.463 263.608 320.463 263.282C320.597 261.311 321.42 259.449 322.788 258.025C324.197 256.56 326.083 255.668 327.938 254.836C337.537 250.538 347.519 247.151 357.75 244.72C359.382 244.334 361.111 243.972 362.719 244.46C363.207 246.034 364.869 246.588 366.531 246.986L367.597 247.234C370.42 247.844 373.053 249.131 375.27 250.983C377.601 253.021 379.203 255.746 380.763 258.429C392.489 278.583 397.892 305.026 416.032 319.67C416.911 320.363 416.731 321.75 416.273 322.714Z" fill="#F9A826"/>
<path opacity="0.1" d="M490.25 75.1711C483.902 89.1399 471.393 102.904 455.059 102.904C453.726 102.904 452.393 102.838 451.066 102.705C450.497 101.956 449.864 101.258 449.175 100.619C446.435 98.0746 442.55 97.4174 439.858 95.1928C441.496 92.311 445.134 89.6945 447.609 87.494C450.283 85.1267 453.058 82.882 455.933 80.7598C461.679 76.5122 467.796 72.7934 474.212 69.6487C478.283 67.6532 482.535 65.8686 487.028 65.2597C487.594 65.1321 488.186 65.1848 488.72 65.4104C489.419 65.7963 489.672 66.6644 489.841 67.4421C490.678 71.3006 489.551 71.2524 490.25 75.1711Z" fill="black"/>
<path d="M455.059 101.692C477.345 101.692 495.411 83.6073 495.411 61.2988C495.411 38.9904 477.345 20.9058 455.059 20.9058C432.773 20.9058 414.707 38.9904 414.707 61.2988C414.707 83.6073 432.773 101.692 455.059 101.692Z" fill="#FBBEBE"/>
<path d="M539.094 195.639C538.438 200.523 537.292 205.328 535.673 209.981C535.071 211.676 534.33 213.327 533.565 214.955C529.079 224.475 526.615 234.766 525.441 245.232C525.351 246.056 525.2 246.872 524.989 247.674C524.104 251.05 522.237 254.064 520.809 257.241C519.354 260.673 518.146 264.205 517.196 267.81C516.852 268.714 516.736 269.69 516.858 270.649C517.081 271.668 517.816 272.458 518.334 273.381C521.008 277.993 517.918 283.629 516.877 288.85C516.521 290.659 516.365 292.625 515.19 294.035C514.19 295.241 512.636 295.796 511.161 296.302C490.129 303.459 468.603 309.069 446.754 313.086C443.496 313.689 440.129 314.25 436.895 313.647C433.66 313.044 430.438 311.043 429.33 307.92C428.692 306.111 428.8 304.146 428.854 302.228C428.975 298.201 428.854 294.15 428.638 290.092C427.939 276.739 426.355 263.337 429.842 250.543C430.884 246.769 432.354 243.128 433.534 239.396C435.841 232.119 436.437 224.595 437.015 217.047C437.491 210.826 437.955 204.58 439.346 198.442C440.382 193.866 439.695 189.11 439.635 184.419C439.516 173.686 442.667 163.171 448.669 154.275C449.711 152.738 450.855 151.219 451.403 149.452C452.174 146.92 451.644 144.201 451.295 141.573C450.416 134.871 450.771 128.064 452.343 121.491C452.837 119.031 453.778 116.683 455.119 114.563C456.619 112.375 458.769 110.723 460.919 109.168C473.402 100.159 487.175 93.096 501.772 88.2175C503.115 91.6178 504.403 95.5908 505.433 99.0694C505.572 99.5396 505.668 100.136 505.283 100.438C504.897 100.739 504.5 100.577 504.078 100.589C503.643 100.636 503.233 100.814 502.9 101.099C502.568 101.384 502.33 101.763 502.217 102.186C502.007 103.04 502.087 103.94 502.446 104.743C503.265 106.853 505.03 108.426 506.728 109.915L515.268 117.373C516.291 118.33 517.407 119.183 518.599 119.917C519.671 120.52 520.839 120.948 521.942 121.503C526.362 123.739 529.416 128.098 531.12 132.752C532.825 137.407 532.054 143.001 534.276 147.42C541.66 162.071 541.6 179.403 539.094 195.639Z" fill="#E8E8F0"/>
<path d="M533.481 348.927C536.076 359.397 536.012 370.351 533.294 380.79C532.807 382.653 532.234 384.582 532.62 386.469C532.843 387.542 533.367 388.549 533.487 389.64C533.54 390.636 533.432 391.633 533.168 392.594C530.494 405.255 531.452 418.41 532.53 431.329C532.072 431.329 531.927 431.54 531.446 431.54H519.84C519.635 428.146 515.419 425.602 513.359 422.895C511.367 420.242 509.989 417.178 509.325 413.926C508.662 410.673 508.729 407.314 509.523 404.091C511.33 396.857 516.654 391.075 519.382 384.16C522.393 376.552 522.134 367.936 525.332 360.412C527.169 356.066 530.602 352.671 533.481 348.927Z" fill="#3F3D56"/>
<path opacity="0.1" d="M533.481 348.927C536.076 359.397 536.012 370.351 533.294 380.79C532.807 382.653 532.234 384.582 532.62 386.469C532.843 387.542 533.367 388.549 533.487 389.64C533.54 390.636 533.432 391.633 533.168 392.594C530.494 405.255 531.452 418.41 532.53 431.329C532.072 431.329 531.927 431.54 531.446 431.54H519.84C519.635 428.146 515.419 425.602 513.359 422.895C511.367 420.242 509.989 417.178 509.325 413.926C508.662 410.673 508.729 407.314 509.523 404.091C511.33 396.857 516.654 391.075 519.382 384.16C522.393 376.552 522.134 367.936 525.332 360.412C527.169 356.066 530.602 352.671 533.481 348.927Z" fill="black"/>
<path d="M509.125 290.9C499.26 289.321 489.702 294.294 480.174 297.315C465.617 301.927 449.591 302.21 436.142 309.451C434.94 310.03 433.851 310.818 432.926 311.778C431.834 313.131 431.147 314.765 430.944 316.492C430.343 320.311 431.082 324.22 433.034 327.555C433.871 328.978 434.925 330.286 435.576 331.812C437.117 335.429 436.088 339.601 435.823 343.556C435.22 352.388 438.641 360.985 439.328 369.811C439.737 375.014 439.201 380.332 440.424 385.408C441.189 388.591 442.628 391.593 443.225 394.813C443.821 398.032 443.562 401.179 443.761 404.362C444.321 413.484 448.47 422.346 447.459 431.432L525.754 431.691C522.851 421.581 520.436 411.127 523.068 400.944C523.981 397.724 525.116 394.572 526.465 391.509C530.843 380.916 535.342 370.294 537.757 359.092C540.172 347.891 540.389 335.929 536.3 325.222C531.747 313.285 522.068 303.356 519.96 290.755C516.346 290.273 512.745 291.479 509.125 290.9Z" fill="#3F3D56"/>
<path d="M426.957 41.5967C426.198 40.0051 424.048 38.9561 422.603 39.9629C421.157 40.9697 421.344 43.2184 420.989 45.0271C420.302 48.5841 416.773 51.0077 413.159 51.5744C411.467 51.8457 409.582 51.7372 408.269 50.6399C407.423 49.8292 406.801 48.8137 406.462 47.6918C402.848 38.0457 405.046 26.7839 410.961 18.3677C412.216 16.4818 413.772 14.8156 415.568 13.4361C420.549 9.81881 427.21 9.81881 433.371 10.0117C434.622 10.1475 435.888 10.0013 437.075 9.58369C437.98 9.107 438.808 8.49735 439.533 7.77504C445.369 2.63849 453.433 0.480178 461.214 0.823821C468.996 1.16746 476.482 3.83823 483.396 7.3892C486.703 9.0833 489.943 11.0065 492.533 13.6833C498.754 20.0919 500.272 29.5873 501.494 38.4376C502.807 47.9872 504.114 57.8021 501.904 67.189C500.651 72.5064 498.29 77.7033 498.567 83.1593C493.565 84.5894 488.48 85.7149 483.342 86.5295C480.933 86.9093 478.15 87.1323 476.386 85.4262C475.639 84.6254 475.094 83.6582 474.796 82.6047C472.887 76.9557 473.525 70.5049 470.64 65.2839C469.434 63.1552 467.71 61.3659 465.628 60.0822C463.547 58.7985 461.175 58.0619 458.733 57.9408C456.842 57.8745 454.692 58.3387 453.722 59.9605C453.35 60.7559 453.064 61.5885 452.867 62.4443C451.53 66.4776 446.055 68.4732 442.448 66.2244C440.641 65.091 439.406 63.21 437.774 61.7993C435.702 60.0208 433.046 59.1044 430.721 57.6695C422.976 52.8646 429.956 47.8968 426.957 41.5967Z" fill="#3F3D56"/>
<path d="M366.555 246.992C363.261 248.047 360.261 249.959 357.057 251.303C351.414 253.66 345.211 254.209 339.29 255.716C333.602 257.243 328.12 259.454 322.963 262.3C322.583 262.505 321.391 263.505 320.439 264.193C320.439 263.885 320.439 263.59 320.439 263.264C320.573 261.293 321.396 259.431 322.764 258.007C324.173 256.542 326.058 255.65 327.913 254.818C337.522 250.525 347.511 247.144 357.75 244.72C359.382 244.334 361.111 243.972 362.719 244.46C363.231 246.034 364.893 246.588 366.555 246.992Z" fill="#3F3D56"/>
<path opacity="0.1" d="M281.171 401.601C287.651 408.836 293.463 416.734 301.004 422.835C292.301 411.266 279.816 403.543 268.529 394.819C266.241 393.046 261.663 390.532 260.278 387.97C258.092 383.955 262.922 386.807 264.928 387.898C271.191 391.304 276.443 396.332 281.171 401.601Z" fill="black"/>
<path opacity="0.1" d="M514.341 190.424C514.034 193.028 513.064 195.5 512.082 197.924C509.673 203.953 507.09 209.921 503.452 215.269C500.946 218.952 497.965 222.28 495.351 225.879C492.668 229.7 490.207 233.671 487.979 237.774C483.872 245.057 479.869 252.4 475.97 259.804C474.109 263.349 472.26 266.924 469.857 270.125C468.171 272.286 466.361 274.347 464.437 276.298C460.221 280.748 455.89 284.859 452.12 289.682C450.253 292.094 447.139 293.022 444.23 293.842C443.258 294.166 442.244 294.349 441.219 294.385C440.188 294.313 439.173 294.087 438.208 293.716C434.959 292.723 431.78 291.515 428.692 290.098C427.993 276.745 426.409 263.343 429.896 250.549C430.938 246.775 432.408 243.134 433.588 239.402C435.895 232.125 436.491 224.601 437.069 217.053C437.786 215.54 438.551 214.039 439.292 212.58C444.315 202.644 448.549 191.702 447.242 180.627C446.909 178.631 446.678 176.618 446.549 174.598C446.562 172.122 446.979 169.664 447.784 167.322C449.586 161.79 452.566 156.716 456.517 152.448C460.468 148.181 465.297 144.822 470.67 142.603C472.367 141.81 474.217 141.398 476.091 141.398C478.5 141.524 480.806 142.778 483.155 142.32C491.111 145.823 497.55 151.803 502.362 159.05C507.174 166.297 507.439 175.979 512.673 182.924C514.22 185.034 514.642 187.826 514.341 190.424Z" fill="black"/>
<path d="M340.2 157.706L339.947 157.157L330.106 161.703L328.461 162.462L326.823 163.216L340.7 193.33L342.338 192.57L343.982 191.811L353.823 187.265L353.57 186.722L343.729 191.268L343.476 190.719L353.317 186.174L353.064 185.625L343.223 190.171L342.97 189.622L352.811 185.076L352.564 184.528L342.717 189.074L342.464 188.531L352.311 183.985L352.058 183.437L342.211 187.982L341.958 187.434L351.806 182.888L351.553 182.339L341.711 186.885L341.458 186.336L351.3 181.791L351.047 181.248L341.206 185.794L340.953 185.245L350.794 180.7L350.541 180.151L340.7 184.697L340.447 184.148L350.294 179.602L350.041 179.054L340.194 183.599L339.941 183.057L349.788 178.505L349.535 177.962L339.688 182.508L339.441 181.96L349.282 177.414L349.029 176.865L339.188 181.411L338.935 180.862L348.776 176.317L348.523 175.768L338.682 180.314L338.429 179.771L348.27 175.225L348.023 174.677L338.176 179.222L337.923 178.674L347.77 174.128L347.517 173.579L337.67 178.125L337.423 177.577L347.264 173.037L347.011 172.488L337.17 177.034L336.917 176.485L346.758 171.94L346.506 171.391L336.664 175.937L336.411 175.388L346.253 170.842L346.006 170.294L336.158 174.846L335.905 174.297L345.753 169.751L345.5 169.203L335.653 173.748L335.4 173.2L345.247 168.654L344.994 168.105L335.153 172.651L334.9 172.102L344.741 167.557L344.488 167.014L334.647 171.56L334.394 171.011L344.235 166.465L343.982 165.917L334.141 170.463L333.888 169.914L343.735 165.368L343.482 164.826L333.635 169.365L333.382 168.823L343.229 164.277L342.976 163.728L333.129 168.274L332.882 167.725L342.723 163.18L342.47 162.631L332.629 167.177L332.376 166.628L342.217 162.083L341.964 161.54L332.123 166.086L331.87 165.537L341.711 160.991L341.464 160.443L331.617 164.988L331.364 164.44L341.212 159.894L340.959 159.345L331.111 163.891L330.858 163.349L340.706 158.803L340.453 158.254L330.605 162.8L330.359 162.251L340.2 157.706Z" fill="black"/>
<path opacity="0.1" d="M371.096 223.938C369.826 226.09 367.88 227.959 365.465 228.592C362.454 229.37 358.949 227.863 357.636 225.041C356.829 223.293 356.865 221.291 356.823 219.368C356.756 215.602 356.353 211.849 355.618 208.155C355.245 206.304 354.745 204.381 353.486 202.982C351.86 201.173 349.27 200.57 346.861 200.528C344.042 200.492 340.953 201.258 339.308 203.543C337.989 205.387 337.761 207.98 336.008 209.421C335.229 210.019 334.303 210.396 333.328 210.512C331.34 210.76 329.326 210.333 327.608 209.301C325.891 208.268 324.569 206.688 323.854 204.815C323.3 203.223 323.029 201.246 321.523 200.498C320.74 200.106 319.807 200.179 318.97 199.925C316.404 199.148 315.73 195.892 315.495 193.221C315.224 190.092 316.265 183.913 312.381 183.702C308.225 183.473 303.401 185.89 299.552 187.174C297.083 188.169 294.18 189.315 291.91 187.922C290.241 186.891 289.555 184.751 289.657 182.791C289.759 180.832 290.506 178.975 291.097 177.106C292.108 173.947 292.717 170.668 293.644 167.46C293.208 168.368 292.82 169.297 292.482 170.246C291.145 174.05 290.518 178.083 289.29 181.905C288.687 183.774 287.953 185.631 287.85 187.59C287.748 189.55 288.453 191.69 290.103 192.721C292.373 194.114 295.276 192.968 297.746 191.973C301.594 190.689 306.418 188.272 310.574 188.501C314.459 188.712 313.417 194.891 313.688 198.02C313.923 200.691 314.597 203.947 317.163 204.724C318 204.978 318.934 204.905 319.717 205.297C321.222 206.045 321.523 208.022 322.047 209.614C322.762 211.487 324.084 213.067 325.802 214.1C327.519 215.132 329.533 215.559 331.521 215.311C332.496 215.195 333.422 214.818 334.201 214.22C335.954 212.779 336.183 210.186 337.502 208.342C339.146 206.045 342.235 205.279 345.054 205.327C347.463 205.363 350.083 205.966 351.679 207.781C352.938 209.18 353.438 211.103 353.811 212.954C354.546 216.648 354.949 220.401 355.016 224.167C355.058 226.09 355.016 228.092 355.829 229.84C357.136 232.662 360.647 234.169 363.658 233.391C366.067 232.758 368.019 230.889 369.29 228.737C370.257 226.98 371.002 225.108 371.506 223.166C371.373 223.444 371.241 223.691 371.096 223.938Z" fill="black"/>
<path d="M402.077 219.935C397.259 215.305 392.905 210.18 388.58 205.068C384.437 200.179 380.281 195.265 376.944 189.797C374.879 186.415 373.036 182.725 369.862 180.356C367.453 178.547 364.507 177.703 361.845 176.323C359.93 175.328 358.166 174.068 356.274 173.037C352.149 170.805 347.506 169.709 342.82 169.86C340.874 169.926 338.664 170.378 337.664 172.054C337.321 172.627 337.158 173.296 336.809 173.863C335.731 175.672 333.135 176.184 332.25 178.083C330.756 181.278 335.261 184.214 335.544 187.729C335.677 189.49 334.707 191.129 334.424 192.872C333.942 195.886 335.502 198.762 337.008 201.39C340.23 207.021 344.151 213.189 350.481 214.606C352.721 215.106 355.088 214.943 357.274 215.655C359.036 216.323 360.667 217.296 362.092 218.53C368.039 223.223 373.281 228.747 377.655 234.935C379.691 237.81 381.534 240.813 383.587 243.67C390.124 252.724 398.702 260.106 408.624 265.217L416.014 241.705C417.152 238.088 418.049 233.126 414.809 230.305C410.75 226.645 406.07 223.757 402.077 219.935Z" fill="#FBBEBE"/>
<path d="M482.523 139.33C480.174 139.782 477.843 138.534 475.458 138.407C473.585 138.407 471.734 138.818 470.038 139.613C464.665 141.833 459.837 145.192 455.886 149.46C451.935 153.727 448.955 158.8 447.151 164.331C446.354 166.683 445.943 169.149 445.935 171.632C445.971 173.652 446.392 175.641 446.627 177.661C447.934 188.718 443.7 199.666 438.683 209.614C435.907 215.106 432.775 220.9 433.432 227.019C433.516 227.839 433.648 228.761 433.148 229.43C432.546 230.226 431.245 230.268 430.685 231.106C430.125 231.944 430.637 233.21 430.191 234.157C429.589 235.495 427.626 235.333 426.222 234.856C422.376 233.553 418.813 231.528 415.725 228.888C410.72 231.812 405.366 235.296 403.721 240.855C403.335 242.273 403.067 243.721 402.92 245.184L400.337 266.767C399.993 269.624 399.825 272.977 401.981 274.882C405.697 278.173 412.316 273.911 416.291 276.889C417.309 277.649 417.971 278.782 418.7 279.813C423.042 285.776 430.517 288.398 437.527 290.665C438.493 291.032 439.508 291.256 440.538 291.328C441.564 291.299 442.579 291.116 443.55 290.786C446.465 289.966 449.572 289.013 451.439 286.632C455.216 281.809 459.546 277.697 463.762 273.248C465.683 271.293 467.493 269.232 469.182 267.074C471.592 263.867 473.434 260.292 475.296 256.747C479.186 249.344 483.185 242 487.293 234.718C489.543 230.631 492.027 226.678 494.731 222.877C497.351 219.26 500.326 215.944 502.831 212.266C506.445 206.913 509.041 200.92 511.462 194.921C512.444 192.51 513.413 190.02 513.727 187.422C514.04 184.823 513.618 182.032 512.04 179.94C506.806 172.989 506.547 163.312 501.735 156.066C496.923 148.819 490.485 142.826 482.523 139.33Z" fill="#E8E8F0"/>
<path d="M340.362 160.177C340.222 160.267 340.103 160.386 340.013 160.527C339.924 160.667 339.866 160.826 339.844 160.991C339.844 161.293 340.091 161.528 340.224 161.799C340.591 162.571 340.001 163.463 339.326 163.994C338.652 164.524 337.833 164.934 337.465 165.712C337.409 165.815 337.384 165.932 337.393 166.049C337.434 166.208 337.527 166.349 337.658 166.447C338.055 166.904 338.569 167.242 339.146 167.424C340.067 167.617 340.953 167.008 341.735 166.508C342.585 165.97 343.489 165.525 344.434 165.181C344.726 165.095 345.001 164.958 345.247 164.777C345.548 164.477 345.733 164.08 345.771 163.656C345.975 162.143 345.168 160.69 344.247 159.436C343.139 157.959 341.308 159.364 340.362 160.177Z" fill="#3F3D56"/>
<path d="M247.961 338.842L185.445 306.901C184.989 306.668 184.43 306.85 184.197 307.306L168.265 338.553C168.032 339.01 168.213 339.569 168.669 339.802L231.186 371.743C231.642 371.976 232.201 371.795 232.433 371.338L248.366 340.091C248.599 339.635 248.418 339.076 247.961 338.842Z" fill="#3F3D56"/>
<path d="M242.206 339.646L188.272 312.09L174.588 338.928L228.521 366.484L242.206 339.646Z" fill="#E8E8F0"/>
<path d="M180.244 324.912C180.408 324.589 180.146 324.125 179.657 323.875C179.168 323.625 178.638 323.685 178.473 324.008C178.308 324.331 178.571 324.796 179.06 325.045C179.549 325.295 180.079 325.236 180.244 324.912Z" fill="#E6E8EC"/>
<path d="M239.223 355.125C239.494 354.594 239.06 353.83 238.254 353.418C237.448 353.006 236.576 353.103 236.305 353.634C236.034 354.164 236.468 354.928 237.274 355.34C238.08 355.752 238.953 355.655 239.223 355.125Z" fill="#E6E8EC"/>
<g opacity="0.1">
<path d="M501.892 62.9446C500.639 68.262 498.278 73.4589 498.555 78.9149C493.553 80.345 488.468 81.4705 483.33 82.285C480.921 82.6649 478.138 82.8879 476.374 81.1818C475.627 80.381 475.082 79.4138 474.784 78.3603C472.874 72.7113 473.513 66.2604 470.628 61.0395C469.422 58.9107 467.698 57.1215 465.616 55.8378C463.535 54.5541 461.163 53.8175 458.721 53.6964C456.83 53.6301 454.68 54.0943 453.71 55.716C453.338 56.5115 453.052 57.3441 452.855 58.1999C451.518 62.2332 446.043 64.2287 442.435 61.98C440.629 60.8466 439.394 58.9656 437.762 57.5548C435.69 55.7763 433.034 54.86 430.709 53.4251C428.613 52.1349 427.608 50.8327 427.18 49.4883C426.65 52.3881 426.499 55.0529 430.709 57.6453C433.034 59.0801 435.69 59.9965 437.762 61.775C439.394 63.1737 440.605 65.0667 442.435 66.2002C446.049 68.4368 451.518 66.4534 452.855 62.4201C453.052 61.5643 453.338 60.7317 453.71 59.9362C454.68 58.3145 456.83 57.8503 458.721 57.9166C461.163 58.0377 463.535 58.7742 465.616 60.058C467.698 61.3417 469.422 63.1309 470.628 65.2597C473.513 70.4806 472.874 76.9314 474.784 82.5804C475.087 83.6427 475.64 84.6166 476.398 85.42C478.162 87.1081 480.951 86.9031 483.354 86.5233C488.492 85.7087 493.577 84.5833 498.579 83.1532C498.284 77.6971 500.663 72.5003 501.916 67.1829C502.881 62.8317 503.268 58.372 503.066 53.9195C502.97 56.959 502.577 59.9819 501.892 62.9446Z" fill="black"/>
<path d="M427.541 43.2847C427.982 41.3018 427.771 39.2294 426.939 37.3764C426.18 35.7848 424.03 34.7358 422.585 35.7426C421.139 36.7495 421.344 38.9982 420.989 40.8068C420.302 44.3638 416.773 46.7874 413.159 47.3541C411.467 47.6254 409.582 47.5169 408.269 46.4197C407.423 45.6089 406.801 44.5935 406.462 43.4716C405.537 40.9642 404.975 38.3371 404.793 35.6703C404.488 39.7506 405.057 43.8493 406.462 47.6917C406.801 48.8137 407.423 49.8291 408.269 50.6398C409.582 51.7371 411.467 51.8456 413.159 51.5743C416.731 51.0076 420.278 48.5599 420.989 45.027C421.332 43.2184 421.097 41.0299 422.591 39.9929C424.084 38.956 426.204 40.0352 426.945 41.6268C427.203 42.1562 427.403 42.7121 427.541 43.2847Z" fill="black"/>
</g>
</g>
<defs>
<clipPath id="clip0_31_10991">
<rect width="689" height="431" fill="white" transform="translate(0 0.769531)"/>
</clipPath>
</defs>
</svg>
