<svg width="71" height="71" viewBox="0 0 71 71" fill="none" xmlns="http://www.w3.org/2000/svg">
<g clip-path="url(#clip0_29_10953)">
<path d="M42.8755 47.2708C39.8263 45.5104 35.8995 46.6036 34.1045 49.7125C32.3096 52.8214 33.3263 56.7688 36.3755 58.5292C39.4246 60.2896 43.3514 59.1964 45.1464 56.0875C46.9413 52.9786 45.9246 49.0313 42.8755 47.2708Z" stroke="#3F3D56" stroke-width="5" stroke-linecap="round" stroke-linejoin="round"/>
<path d="M55.8755 24.7542C52.8263 22.9938 48.8995 24.0869 47.1045 27.1958C45.3096 30.3047 46.3263 34.2521 49.3755 36.0125C52.4246 37.7729 56.3514 36.6797 58.1464 33.5708C59.9413 30.4619 58.9246 26.5146 55.8755 24.7542Z" stroke="#3F3D56" stroke-width="5" stroke-linecap="round" stroke-linejoin="round"/>
<path d="M11.6944 41.7778L46.4272 32.1088" stroke="#3F3D56" stroke-width="5" stroke-linecap="round" stroke-linejoin="round"/>
<path d="M33.2247 27.9888L29.0279 11.7555" stroke="#3F3D56" stroke-width="5" stroke-linecap="round" stroke-linejoin="round"/>
<path d="M38.0206 46.6696L35.0836 35.2667" stroke="#3F3D56" stroke-width="5" stroke-linecap="round" stroke-linejoin="round"/>
</g>
<defs>
<clipPath id="clip0_29_10953">
<rect width="51" height="52" fill="white" transform="translate(44.1672 70.5333) rotate(-150)"/>
</clipPath>
</defs>
</svg>
