<svg width="300" height="49" viewBox="0 0 300 49" fill="none" xmlns="http://www.w3.org/2000/svg">
<g clip-path="url(#clip0_28_10909)">
<path d="M17.9916 14.6107C20.9156 14.6107 23.2429 15.5529 24.9734 17.4375C26.7338 19.2926 27.614 21.8544 27.614 25.1229V39.522H20.0056V26.1388C20.0056 24.4898 19.573 23.2089 18.7077 22.2961C17.8425 21.3832 16.6788 20.9269 15.2168 20.9269C13.7548 20.9269 12.5911 21.3832 11.7259 22.2961C10.8606 23.2089 10.428 24.4898 10.428 26.1388V39.522H2.77484V14.8757H10.428V18.1442C11.2037 17.0547 12.2481 16.2008 13.5609 15.5824C14.8737 14.9346 16.3506 14.6107 17.9916 14.6107ZM44.3 39.8754C41.8534 39.8754 39.6455 39.36 37.6762 38.3294C35.7369 37.2989 34.2002 35.8265 33.0665 33.9125C31.9625 31.9986 31.4105 29.7607 31.4105 27.1989C31.4105 24.6665 31.9774 22.4433 33.1112 20.5293C34.245 18.5859 35.7965 17.0988 37.7658 16.0683C39.735 15.0377 41.9429 14.5223 44.3895 14.5223C46.8362 14.5223 49.0441 15.0377 51.0133 16.0683C52.9825 17.0988 54.5341 18.5859 55.6678 20.5293C56.8016 22.4433 57.3685 24.6665 57.3685 27.1989C57.3685 29.7312 56.7867 31.9691 55.6231 33.9125C54.4893 35.8265 52.9229 37.2989 50.9238 38.3294C48.9546 39.36 46.7467 39.8754 44.3 39.8754ZM44.3 33.3383C45.762 33.3383 47.0002 32.8083 48.0147 31.7483C49.059 30.6882 49.5811 29.1718 49.5811 27.1989C49.5811 25.2259 49.0739 23.7095 48.0595 22.6494C47.0748 21.5894 45.8516 21.0594 44.3895 21.0594C42.8977 21.0594 41.6595 21.5894 40.6748 22.6494C39.6902 23.68 39.1979 25.1965 39.1979 27.1989C39.1979 29.1718 39.6753 30.6882 40.6301 31.7483C41.6147 32.8083 42.838 33.3383 44.3 33.3383ZM93.2944 14.6107C96.3972 14.6107 98.8588 15.5382 100.679 17.3933C102.529 19.2484 103.454 21.8249 103.454 25.1229V39.522H95.8455V26.1388C95.8455 24.5487 95.4126 23.3267 94.5476 22.4728C93.7119 21.5894 92.5483 21.1477 91.0567 21.1477C89.565 21.1477 88.386 21.5894 87.521 22.4728C86.6853 23.3267 86.2678 24.5487 86.2678 26.1388V39.522H78.6595V26.1388C78.6595 24.5487 78.2266 23.3267 77.3616 22.4728C76.5259 21.5894 75.3623 21.1477 73.8706 21.1477C72.379 21.1477 71.2 21.5894 70.335 22.4728C69.4995 23.3267 69.0818 24.5487 69.0818 26.1388V39.522H61.4287V14.8757H69.0818V17.9675C69.8576 16.9369 70.872 16.1271 72.1252 15.5382C73.3783 14.9199 74.7958 14.6107 76.3769 14.6107C78.2567 14.6107 79.9273 15.0082 81.3895 15.8032C82.8811 16.5983 84.0448 17.732 84.8804 19.2043C85.7455 17.8497 86.9245 16.7455 88.4161 15.8916C89.9077 15.0377 91.5343 14.6107 93.2944 14.6107ZM107.285 27.1547C107.285 24.6223 107.762 22.3991 108.717 20.4852C109.701 18.5712 111.029 17.0988 112.7 16.0683C114.371 15.0377 116.236 14.5223 118.294 14.5223C120.055 14.5223 121.592 14.8757 122.904 15.5824C124.247 16.2891 125.276 17.2167 125.992 18.365V14.8757H133.645V39.522H125.992V36.0327C125.246 37.1811 124.202 38.1086 122.859 38.8153C121.547 39.522 120.01 39.8754 118.25 39.8754C116.221 39.8754 114.371 39.36 112.7 38.3294C111.029 37.2694 109.701 35.7823 108.717 33.8684C107.762 31.9249 107.285 29.687 107.285 27.1547ZM125.992 27.1989C125.992 25.3143 125.455 23.8273 124.381 22.7378C123.337 21.6483 122.054 21.1035 120.532 21.1035C119.01 21.1035 117.713 21.6483 116.638 22.7378C115.594 23.7978 115.072 25.2701 115.072 27.1547C115.072 29.0393 115.594 30.541 116.638 31.6599C117.713 32.7494 119.01 33.2942 120.532 33.2942C122.054 33.2942 123.337 32.7494 124.381 31.6599C125.455 30.5704 125.992 29.0834 125.992 27.1989ZM137.661 27.1547C137.661 24.6223 138.138 22.3991 139.093 20.4852C140.078 18.5712 141.405 17.0988 143.076 16.0683C144.747 15.0377 146.612 14.5223 148.671 14.5223C150.311 14.5223 151.804 14.861 153.146 15.5382C154.518 16.2155 155.592 17.1283 156.369 18.2767V6.83693H164.022V39.522H156.369V35.9885C155.652 37.1663 154.623 38.1086 153.28 38.8153C151.967 39.522 150.431 39.8754 148.671 39.8754C146.612 39.8754 144.747 39.36 143.076 38.3294C141.405 37.2694 140.078 35.7823 139.093 33.8684C138.138 31.9249 137.661 29.687 137.661 27.1547ZM156.369 27.1989C156.369 25.3143 155.831 23.8273 154.757 22.7378C153.713 21.6483 152.43 21.1035 150.908 21.1035C149.387 21.1035 148.089 21.6483 147.015 22.7378C145.97 23.7978 145.448 25.2701 145.448 27.1547C145.448 29.0393 145.97 30.541 147.015 31.6599C148.089 32.7494 149.387 33.2942 150.908 33.2942C152.43 33.2942 153.713 32.7494 154.757 31.6599C155.831 30.5704 156.369 29.0834 156.369 27.1989ZM181.463 15.0524C184.327 15.0524 186.669 15.9358 188.49 17.7025C190.31 19.4398 191.22 22.0311 191.22 25.4763V39.522H189.25V25.6088C189.25 22.7525 188.52 20.5735 187.057 19.0718C185.595 17.5405 183.611 16.775 181.105 16.775C178.479 16.775 176.376 17.5995 174.794 19.2484C173.243 20.8974 172.467 23.3414 172.467 26.5805V39.522H170.453V6.83693H172.467V20.6177C173.153 18.8214 174.302 17.4522 175.913 16.5099C177.524 15.5382 179.374 15.0524 181.463 15.0524ZM197.085 27.508C197.085 25.0346 197.577 22.8703 198.562 21.0152C199.576 19.1601 200.964 17.732 202.724 16.7308C204.514 15.7296 206.543 15.229 208.811 15.229C211.376 15.229 213.555 15.8474 215.345 17.0841C217.135 18.3209 218.388 19.8963 219.104 21.8102V15.5382H221.118V39.522H219.104V33.2058C218.388 35.1493 217.12 36.7541 215.3 38.0203C213.51 39.257 211.347 39.8754 208.811 39.8754C206.543 39.8754 204.514 39.3748 202.724 38.3736C200.964 37.343 199.576 35.9001 198.562 34.0451C197.577 32.1605 197.085 29.9815 197.085 27.508ZM219.104 27.508C219.104 25.4174 218.657 23.577 217.762 21.9869C216.897 20.3674 215.703 19.1306 214.181 18.2767C212.659 17.3933 210.959 16.9516 209.079 16.9516C207.11 16.9516 205.379 17.3786 203.887 18.2325C202.396 19.0571 201.232 20.2643 200.397 21.8544C199.561 23.4445 199.143 25.3291 199.143 27.508C199.143 29.687 199.561 31.5716 200.397 33.1617C201.232 34.7518 202.396 35.9738 203.887 36.8277C205.409 37.6816 207.14 38.1086 209.079 38.1086C210.959 38.1086 212.659 37.6816 214.181 36.8277C215.733 35.9443 216.941 34.7076 217.806 33.1175C218.671 31.4979 219.104 29.6281 219.104 27.508ZM229.481 10.1938C229.004 10.1938 228.601 10.0466 228.273 9.75209C227.944 9.42821 227.78 9.00122 227.78 8.47119C227.78 7.97063 227.944 7.55834 228.273 7.23446C228.601 6.91057 229.004 6.7486 229.481 6.7486C229.958 6.7486 230.361 6.91057 230.689 7.23446C231.018 7.55834 231.182 7.97063 231.182 8.47119C231.182 9.00122 231.018 9.42821 230.689 9.75209C230.361 10.0466 229.958 10.1938 229.481 10.1938ZM230.466 15.5382V39.522H228.452V15.5382H230.466ZM239.862 20.4852C240.459 18.7184 241.518 17.3786 243.04 16.4658C244.562 15.5235 246.501 15.0524 248.858 15.0524V17.1283H248.187C245.8 17.1283 243.815 17.8056 242.234 19.1601C240.653 20.4852 239.862 22.6641 239.862 25.6971V39.522H237.848V15.5382H239.862V20.4852Z" fill="#3F3D56"/>
<mask id="mask0_28_10909" style="mask-type:luminance" maskUnits="userSpaceOnUse" x="250" y="0" width="50" height="49">
<path d="M250.349 31.0793L281.236 48.6779L299.417 17.5985L268.531 -6.70871e-05L250.349 31.0793Z" fill="white"/>
</mask>
<g mask="url(#mask0_28_10909)">
<path d="M280.332 32.6233C278.2 31.4084 275.454 32.1628 274.199 34.3084C272.944 36.454 273.655 39.1782 275.787 40.3932C277.92 41.6081 280.665 40.8536 281.92 38.708C283.176 36.5625 282.465 33.8383 280.332 32.6233Z" stroke="#3F3D56" stroke-width="5" stroke-linecap="round" stroke-linejoin="round"/>
<path d="M289.423 17.0837C287.291 15.8687 284.545 16.6231 283.29 18.7687C282.035 20.9143 282.745 23.6386 284.878 24.8535C287.01 26.0684 289.756 25.3139 291.011 23.1684C292.266 21.0228 291.556 18.2986 289.423 17.0837Z" stroke="#3F3D56" stroke-width="5" stroke-linecap="round" stroke-linejoin="round"/>
<path d="M258.527 28.8326L282.816 22.1597" stroke="#3F3D56" stroke-width="5" stroke-linecap="round" stroke-linejoin="round"/>
<path d="M273.584 19.3162L270.649 8.11298" stroke="#3F3D56" stroke-width="5" stroke-linecap="round" stroke-linejoin="round"/>
<path d="M276.938 32.2085L274.884 24.3389" stroke="#3F3D56" stroke-width="5" stroke-linecap="round" stroke-linejoin="round"/>
</g>
</g>
<defs>
<clipPath id="clip0_28_10909">
<rect width="300" height="49" fill="white"/>
</clipPath>
</defs>
</svg>
