<svg width="300" height="50" viewBox="0 0 300 50" fill="none" xmlns="http://www.w3.org/2000/svg">
<g clip-path="url(#clip0_28_10931)">
<path d="M17.9916 14.9089C20.9156 14.9089 23.2429 15.8704 24.9734 17.7934C26.7338 19.6864 27.614 22.3004 27.614 25.6356V40.3286H20.0056V26.6723C20.0056 24.9897 19.573 23.6826 18.7077 22.7511C17.8425 21.8197 16.6788 21.354 15.2168 21.354C13.7548 21.354 12.5911 21.8197 11.7259 22.7511C10.8606 23.6826 10.428 24.9897 10.428 26.6723V40.3286H2.77484V15.1793H10.428V18.5145C11.2037 17.4028 12.2481 16.5314 13.5609 15.9004C14.8737 15.2394 16.3506 14.9089 17.9916 14.9089ZM44.3 40.6892C41.8534 40.6892 39.6455 40.1633 37.6762 39.1117C35.7369 38.0601 34.2002 36.5577 33.0665 34.6047C31.9625 32.6516 31.4105 30.368 31.4105 27.754C31.4105 25.1699 31.9774 22.9014 33.1112 20.9483C34.245 18.9652 35.7965 17.4478 37.7658 16.3962C39.735 15.3446 41.9429 14.8187 44.3895 14.8187C46.8362 14.8187 49.0441 15.3446 51.0133 16.3962C52.9825 17.4478 54.5341 18.9652 55.6678 20.9483C56.8016 22.9014 57.3685 25.1699 57.3685 27.754C57.3685 30.338 56.7867 32.6216 55.6231 34.6047C54.4893 36.5577 52.9229 38.0601 50.9238 39.1117C48.9546 40.1633 46.7467 40.6892 44.3 40.6892ZM44.3 34.0187C45.762 34.0187 47.0002 33.4779 48.0147 32.3962C49.059 31.3145 49.5811 29.7671 49.5811 27.754C49.5811 25.7408 49.0739 24.1934 48.0595 23.1117C47.0748 22.03 45.8516 21.4892 44.3895 21.4892C42.8977 21.4892 41.6595 22.03 40.6748 23.1117C39.6902 24.1633 39.1979 25.7108 39.1979 27.754C39.1979 29.7671 39.6753 31.3145 40.6301 32.3962C41.6147 33.4779 42.838 34.0187 44.3 34.0187ZM93.2944 14.9089C96.3972 14.9089 98.8588 15.8554 100.679 17.7483C102.529 19.6413 103.454 22.2704 103.454 25.6356V40.3286H95.8455V26.6723C95.8455 25.0497 95.4126 23.8028 94.5476 22.9314C93.7119 22.03 92.5483 21.5793 91.0567 21.5793C89.565 21.5793 88.386 22.03 87.521 22.9314C86.6853 23.8028 86.2678 25.0497 86.2678 26.6723V40.3286H78.6595V26.6723C78.6595 25.0497 78.2266 23.8028 77.3616 22.9314C76.5259 22.03 75.3623 21.5793 73.8706 21.5793C72.379 21.5793 71.2 22.03 70.335 22.9314C69.4995 23.8028 69.0818 25.0497 69.0818 26.6723V40.3286H61.4287V15.1793H69.0818V18.3342C69.8576 17.2826 70.872 16.4563 72.1252 15.8554C73.3783 15.2244 74.7958 14.9089 76.3769 14.9089C78.2567 14.9089 79.9273 15.3145 81.3895 16.1258C82.8811 16.9371 84.0448 18.0939 84.8804 19.5962C85.7455 18.214 86.9245 17.0873 88.4161 16.2159C89.9077 15.3446 91.5343 14.9089 93.2944 14.9089ZM107.285 27.7089C107.285 25.1249 107.762 22.8563 108.717 20.9033C109.701 18.9502 111.029 17.4478 112.7 16.3962C114.371 15.3446 116.236 14.8187 118.294 14.8187C120.055 14.8187 121.592 15.1793 122.904 15.9004C124.247 16.6216 125.276 17.568 125.992 18.7399V15.1793H133.645V40.3286H125.992V36.768C125.246 37.9399 124.202 38.8864 122.859 39.6075C121.547 40.3286 120.01 40.6892 118.25 40.6892C116.221 40.6892 114.371 40.1633 112.7 39.1117C111.029 38.03 109.701 36.5126 108.717 34.5596C107.762 32.5765 107.285 30.2929 107.285 27.7089ZM125.992 27.754C125.992 25.8309 125.455 24.3136 124.381 23.2018C123.337 22.0901 122.054 21.5342 120.532 21.5342C119.01 21.5342 117.713 22.0901 116.638 23.2018C115.594 24.2835 115.072 25.7859 115.072 27.7089C115.072 29.6319 115.594 31.1643 116.638 32.3061C117.713 33.4178 119.01 33.9737 120.532 33.9737C122.054 33.9737 123.337 33.4178 124.381 32.3061C125.455 31.1943 125.992 29.677 125.992 27.754ZM137.661 27.7089C137.661 25.1249 138.138 22.8563 139.093 20.9033C140.078 18.9502 141.405 17.4478 143.076 16.3962C144.747 15.3446 146.612 14.8187 148.671 14.8187C150.311 14.8187 151.804 15.1643 153.146 15.8554C154.518 16.5464 155.592 17.4779 156.369 18.6497V6.97649H164.022V40.3286H156.369V36.723C155.652 37.9249 154.623 38.8864 153.28 39.6075C151.967 40.3286 150.431 40.6892 148.671 40.6892C146.612 40.6892 144.747 40.1633 143.076 39.1117C141.405 38.03 140.078 36.5126 139.093 34.5596C138.138 32.5765 137.661 30.2929 137.661 27.7089ZM156.369 27.754C156.369 25.8309 155.831 24.3136 154.757 23.2018C153.713 22.0901 152.43 21.5342 150.908 21.5342C149.387 21.5342 148.089 22.0901 147.015 23.2018C145.97 24.2835 145.448 25.7859 145.448 27.7089C145.448 29.6319 145.97 31.1643 147.015 32.3061C148.089 33.4178 149.387 33.9737 150.908 33.9737C152.43 33.9737 153.713 33.4178 154.757 32.3061C155.831 31.1943 156.369 29.677 156.369 27.754ZM181.463 15.3596C184.327 15.3596 186.669 16.261 188.49 18.0638C190.31 19.8366 191.22 22.4807 191.22 25.9962V40.3286H189.25V26.1314C189.25 23.2168 188.52 20.9934 187.057 19.461C185.595 17.8985 183.611 17.1173 181.105 17.1173C178.479 17.1173 176.376 17.9587 174.794 19.6413C173.243 21.3239 172.467 23.8178 172.467 27.123V40.3286H170.453V6.97649H172.467V21.0385C173.153 19.2056 174.302 17.8084 175.913 16.8469C177.524 15.8554 179.374 15.3596 181.463 15.3596ZM197.085 28.0695C197.085 25.5455 197.577 23.3371 198.562 21.4441C199.576 19.5511 200.964 18.0939 202.724 17.0723C204.514 16.0506 206.543 15.5399 208.811 15.5399C211.376 15.5399 213.555 16.1709 215.345 17.4328C217.135 18.6948 218.388 20.3023 219.104 22.2554V15.8554H221.118V40.3286H219.104V33.8835C218.388 35.8666 217.12 37.5042 215.3 38.7962C213.51 40.0582 211.347 40.6892 208.811 40.6892C206.543 40.6892 204.514 40.1784 202.724 39.1568C200.964 38.1052 199.576 36.6328 198.562 34.7399C197.577 32.8168 197.085 30.5934 197.085 28.0695ZM219.104 28.0695C219.104 25.9361 218.657 24.0582 217.762 22.4356C216.897 20.783 215.703 19.5211 214.181 18.6497C212.659 17.7483 210.959 17.2976 209.079 17.2976C207.11 17.2976 205.379 17.7333 203.887 18.6047C202.396 19.446 201.232 20.6779 200.397 22.3004C199.561 23.923 199.143 25.846 199.143 28.0695C199.143 30.2929 199.561 32.2159 200.397 33.8385C201.232 35.461 202.396 36.708 203.887 37.5793C205.409 38.4506 207.14 38.8864 209.079 38.8864C210.959 38.8864 212.659 38.4506 214.181 37.5793C215.733 36.6779 216.941 35.4159 217.806 33.7934C218.671 32.1408 219.104 30.2328 219.104 28.0695ZM229.481 10.4018C229.004 10.4018 228.601 10.2516 228.273 9.95114C227.944 9.62065 227.78 9.18494 227.78 8.6441C227.78 8.13332 227.944 7.71262 228.273 7.38213C228.601 7.05163 229.004 6.88635 229.481 6.88635C229.958 6.88635 230.361 7.05163 230.689 7.38213C231.018 7.71262 231.182 8.13332 231.182 8.6441C231.182 9.18494 231.018 9.62065 230.689 9.95114C230.361 10.2516 229.958 10.4018 229.481 10.4018ZM230.466 15.8554V40.3286H228.452V15.8554H230.466ZM239.862 20.9033C240.459 19.1004 241.518 17.7333 243.04 16.8018C244.562 15.8404 246.501 15.3596 248.858 15.3596V17.4779H248.187C245.8 17.4779 243.815 18.169 242.234 19.5511C240.653 20.9033 239.862 23.1267 239.862 26.2216V40.3286H237.848V15.8554H239.862V20.9033Z" fill="white"/>
<mask id="mask0_28_10931" style="mask-type:luminance" maskUnits="userSpaceOnUse" x="250" y="0" width="50" height="50">
<path d="M250.349 31.7135L281.236 49.6713L299.417 17.9577L268.531 -8.84755e-05L250.349 31.7135Z" fill="white"/>
</mask>
<g mask="url(#mask0_28_10931)">
<path d="M280.332 33.2891C278.2 32.0494 275.454 32.8192 274.199 35.0086C272.944 37.1979 273.655 39.9778 275.787 41.2175C277.92 42.4572 280.665 41.6874 281.92 39.498C283.176 37.3086 282.465 34.5288 280.332 33.2891Z" stroke="white" stroke-width="5" stroke-linecap="round" stroke-linejoin="round"/>
<path d="M289.423 17.4324C287.291 16.1927 284.545 16.9624 283.29 19.1518C282.035 21.3412 282.745 24.121 284.878 25.3607C287.01 26.6005 289.756 25.8306 291.011 23.6412C292.266 21.4519 291.556 18.6721 289.423 17.4324Z" stroke="white" stroke-width="5" stroke-linecap="round" stroke-linejoin="round"/>
<path d="M258.527 29.4211L282.816 22.6119" stroke="white" stroke-width="5" stroke-linecap="round" stroke-linejoin="round"/>
<path d="M273.584 19.7105L270.649 8.27856" stroke="white" stroke-width="5" stroke-linecap="round" stroke-linejoin="round"/>
<path d="M276.938 32.8658L274.884 24.8356" stroke="white" stroke-width="5" stroke-linecap="round" stroke-linejoin="round"/>
</g>
</g>
<defs>
<clipPath id="clip0_28_10931">
<rect width="300" height="50" fill="white"/>
</clipPath>
</defs>
</svg>
