<svg width="28" height="28" viewBox="0 0 28 28" fill="none" xmlns="http://www.w3.org/2000/svg">
<g clip-path="url(#clip0_120_2)">
<path d="M14 0.346558C6.265 0.346558 0 6.61506 0 14.3466C0 20.5334 4.011 25.7799 9.5725 27.6291C10.2725 27.7609 10.5292 27.3281 10.5292 26.9559C10.5292 26.6234 10.5175 25.7426 10.5117 24.5759C6.61733 25.4206 5.796 22.6976 5.796 22.6976C5.159 21.0817 4.2385 20.6501 4.2385 20.6501C2.97033 19.7821 4.3365 19.7996 4.3365 19.7996C5.74233 19.8976 6.48083 21.2416 6.48083 21.2416C7.72917 23.3824 9.758 22.7641 10.5583 22.4059C10.6843 21.5006 11.0448 20.8834 11.445 20.5334C8.33583 20.1834 5.068 18.9794 5.068 13.6151C5.068 12.0867 5.6105 10.8384 6.50883 9.85839C6.35133 9.50489 5.87883 8.08156 6.63133 6.15306C6.63133 6.15306 7.80383 5.77739 10.4813 7.58806C11.6013 7.27656 12.7913 7.12256 13.9813 7.11556C15.1713 7.12256 16.3613 7.27656 17.4813 7.58806C20.1413 5.77739 21.3138 6.15306 21.3138 6.15306C22.0663 8.08156 21.5938 9.50489 21.4538 9.85839C22.3463 10.8384 22.8888 12.0867 22.8888 13.6151C22.8888 18.9934 19.6163 20.1776 16.5013 20.5217C16.9913 20.9417 17.4463 21.8004 17.4463 23.1117C17.4463 24.9854 17.4288 26.4904 17.4288 26.9454C17.4288 27.3129 17.6738 27.7504 18.3913 27.6104C23.9925 25.7741 28 20.5241 28 14.3466C28 6.61506 21.7315 0.346558 14 0.346558Z" fill="black"/>
</g>
<defs>
<clipPath id="clip0_120_2">
<rect width="28" height="28" fill="white"/>
</clipPath>
</defs>
</svg>
